<?xml version="1.0" standalone="no"?>
<!DOCTYPE svg PUBLIC "-//W3C//DTD SVG 1.1//EN" "http://www.w3.org/Graphics/SVG/1.1/DTD/svg11.dtd" >
<svg xmlns="http://www.w3.org/2000/svg" xmlns:xlink="http://www.w3.org/1999/xlink" version="1.1">
<metadata>
Created by FontForge 20170731 at Wed Feb  9 21:10:13 2022
 By Aleksey,,,
Copyright (c) 2014 by Letterhead Studio. All rights reserved.
</metadata>
<defs>
<font id="20Kopeek-Book" horiz-adv-x="1214" >
  <font-face 
    font-family="20 Kopeek Book"
    font-weight="300"
    font-stretch="normal"
    units-per-em="2048"
    panose-1="2 0 0 0 0 0 0 0 0 0"
    ascent="1608"
    descent="-440"
    x-height="938"
    cap-height="1479"
    bbox="-238 -569 2216 1980"
    underline-thickness="102"
    underline-position="-307"
    unicode-range="U+0020-FB02"
  />
<missing-glyph horiz-adv-x="548" 
 />
    <glyph glyph-name="fi" unicode="fi" horiz-adv-x="966" 
d="M844 938v-938h-154v809h-340v-809h-155v809h-164v129h164v192q0 377 368 377q132 0 206.5 -64.5t74.5 -174.5v-121h-154v108q0 63 -35 101.5t-100 38.5q-101 0 -153 -58t-52 -204v-195h494z" />
    <glyph glyph-name="fl" unicode="fl" horiz-adv-x="966" 
d="M844 1536v-1536h-154v1260q0 59 -35.5 97t-99.5 38q-101 0 -153 -58t-52 -204v-195h211v-129h-211v-809h-155v809h-164v129h164v192q0 192 85 284.5t263 92.5q113 0 180 -82l92 111h29z" />
    <glyph glyph-name=".notdef" horiz-adv-x="548" 
 />
    <glyph glyph-name=".null" horiz-adv-x="0" 
 />
    <glyph glyph-name="nonmarkingreturn" horiz-adv-x="682" 
 />
    <glyph glyph-name="space" unicode=" " horiz-adv-x="548" 
 />
    <glyph glyph-name="exclam" unicode="!" horiz-adv-x="434" 
d="M309 1167l-55 -716h-76l-53 716v312h184v-312zM123 201h188v-201h-188v201z" />
    <glyph glyph-name="quotedbl" unicode="&#x22;" horiz-adv-x="684" 
d="M582 1479l-162 -346l-66 20l82 326h146zM350 1479l-162 -346l-65 20l82 326h145z" />
    <glyph glyph-name="numbersign" unicode="#" horiz-adv-x="1507" 
d="M952 471l-145 -471h-129l147 471h-317l-146 -471h-126l147 471h-260v129h301l92 303h-360v129h403l148 475h127l-150 -475h317l150 475h125l-148 -475h256v-129h-299l-92 -303h359v-129h-400zM958 903h-317l-92 -303h317z" />
    <glyph glyph-name="dollar" unicode="$" horiz-adv-x="1206" 
d="M666 -27v-161h-123v161q-142 9 -252 62q-220 118 -236 450l170 17q15 -203 99 -287q83 -83 219 -92v559q-176 44 -297 123q-137 96 -137 291q0 185 124 288q123 106 310 121v185h123v-187q208 -18 312.5 -132.5t125.5 -332.5l-168 -16q-18 167 -83.5 241t-186.5 87v-523
q76 -17 137 -34q60 -16 125 -48q101 -45 151 -124.5t56 -214.5q0 -204 -138 -312q-132 -106 -331 -121zM967 406q0 99 -71 152.5t-230 92.5v-528q137 11 219 82t82 201zM279 1096q0 -94 66 -150t198 -90v498q-122 -11 -193 -75t-71 -183z" />
    <glyph glyph-name="percent" unicode="%" horiz-adv-x="1605" 
d="M981 76q-76 104 -76 264t76 264q76 107 221 107q143 0 219 -107q78 -107 78 -264t-78 -264q-77 -105 -219 -105q-144 0 -221 105zM1034 340q0 -279 168 -279q166 0 166 279q0 276 -166 276q-168 0 -168 -276zM182 778q-76 107 -76 266q0 161 76 265q75 106 221 106
q145 0 220 -106q77 -106 77 -265q0 -157 -77 -266q-76 -104 -220 -104q-145 0 -221 104zM238 1044q0 -278 165 -278q168 0 168 278q0 277 -168 277q-165 0 -165 -277zM1382 1386l-1020 -1386h-137l1022 1386h135z" />
    <glyph glyph-name="ampersand" unicode="&#x26;" horiz-adv-x="1499" 
d="M1415 184l49 -71q-63 -80 -119 -111t-137 -31q-128 0 -250 140q-190 -140 -403 -140q-210 0 -336 111q-125 110 -125 299q0 141 85.5 232.5t264.5 172.5q-141 206 -141 353q0 167 109.5 267.5t292.5 100.5q164 0 264 -100q102 -99 102 -242q0 -166 -121 -266
q-101 -84 -260 -154l299 -403q107 131 172 367l150 -17q-67 -282 -228 -469q88 -104 183 -104q75 0 149 65zM555 121q168 0 311 104l-336 449q-138 -66 -202 -132t-64 -161q0 -123 76 -191.5t215 -68.5zM473 1141q0 -100 131 -283q156 70 226.5 138t70.5 169q0 87 -54.5 140
t-141.5 53q-108 0 -170 -55.5t-62 -161.5z" />
    <glyph glyph-name="quotesingle" unicode="'" horiz-adv-x="452" 
d="M350 1479l-162 -346l-65 20l82 326h145z" />
    <glyph glyph-name="parenleft" unicode="(" horiz-adv-x="749" 
d="M678 -174l-66 -88q-508 350 -508 973q0 622 508 972l66 -90q-238 -182 -328 -391q-92 -210 -92 -491t92 -494q90 -209 328 -391z" />
    <glyph glyph-name="parenright" unicode=")" horiz-adv-x="749" 
d="M489 711q0 281 -92 491q-87 207 -327 391l65 90q510 -349 510 -972t-510 -973l-65 88q240 184 327 389q92 213 92 496z" />
    <glyph glyph-name="asterisk" unicode="*" horiz-adv-x="933" 
d="M649 973l-160 145l46 -211l-17 -129h-102l-17 125l47 215l-161 -145l-121 -49l-51 86l102 80l209 65l-209 68l-102 80l51 88l119 -50l161 -151l-45 217l17 129h102l17 -127l-50 -219l166 151l119 50l51 -88l-104 -80l-209 -68l211 -65l102 -80l-51 -86z" />
    <glyph glyph-name="plus" unicode="+" horiz-adv-x="1183" 
d="M655 614v-387h-125v387h-385v121h385v389h125v-389h385v-121h-385z" />
    <glyph glyph-name="comma" unicode="," horiz-adv-x="434" 
d="M123 201h188q17 -104 17 -211q0 -151 -197 -271l-41 74q72 43 101.5 89t29.5 118h-98v201z" />
    <glyph glyph-name="hyphen" unicode="-" horiz-adv-x="897" 
d="M760 614v-143h-625v143h625z" />
    <glyph glyph-name="period" unicode="." horiz-adv-x="434" 
d="M123 201h188v-201h-188v201z" />
    <glyph glyph-name="slash" unicode="/" horiz-adv-x="714" 
d="M715 1479l-580 -1479h-135l573 1479h142z" />
    <glyph glyph-name="zero" unicode="0" 
d="M946 739q0 279 -86 449q-83 170 -252 170q-171 0 -254 -170q-84 -173 -84 -449q0 -291 85.5 -455.5t252.5 -164.5q164 0 251 165.5t87 454.5zM608 -29q-252 0 -381 215q-127 216 -127 553t127 553q129 215 381 215q251 0 377 -215q129 -214 129 -553t-129 -553
q-126 -215 -377 -215z" />
    <glyph glyph-name="one" unicode="1" 
d="M596 1507h104v-1360h334v-147h-852v147h348v1080h-303v110q147 0 228 19q80 22 100 51q24 35 41 100z" />
    <glyph glyph-name="two" unicode="2" 
d="M299 1044l-168 27q15 193 137 315q124 121 332 121q207 0 326 -116q121 -115 121 -306q0 -215 -138 -403q-142 -190 -530 -532h713v-150h-951v111l463 444q137 134 203 248q70 116 70 282q0 121 -76 195t-201 74q-141 0 -211 -80t-90 -230z" />
    <glyph glyph-name="three" unicode="3" horiz-adv-x="1216" 
d="M131 1329v150h924v-113l-437 -444q21 8 56 8q201 -3 319 -139q123 -135 123 -322q0 -210 -141 -354q-138 -144 -363 -144q-124 0 -239 41q-119 43 -196 142.5t-77 230.5l170 21q7 -133 102 -210t240 -77q156 0 244 98q90 104 90 252q0 152 -96 233q-94 82 -227 82
q-96 0 -181 -43l-90 101l469 487h-690z" />
    <glyph glyph-name="four" unicode="4" 
d="M733 485v435l170 49v-484h242v-149h-242v-336h-170v336h-667v149q236 242 356 473q122 236 149 521h170q-50 -316 -163 -545q-116 -235 -349 -449h504z" />
    <glyph glyph-name="five" unicode="5" 
d="M606 119q158 0 248 98.5t90 261.5q0 151 -95 247.5t-249 96.5q-190 0 -321 -137l-99 84l105 709h753v-152h-632l-64 -428q110 72 264 72q230 0 369 -133t139 -359q0 -214 -145 -362q-146 -146 -363 -146q-205 0 -354 107q-152 109 -152 307l170 21q7 -131 102.5 -209
t233.5 -78z" />
    <glyph glyph-name="six" unicode="6" 
d="M625 1358q-96 0 -169 -46.5t-112 -127.5q-74 -151 -74 -350q168 116 406 116q210 0 323 -137q115 -139 115 -332q0 -222 -141 -366t-346 -144q-291 0 -410 174q-117 175 -117 529q0 833 525 833q231 0 338 -116q109 -115 124 -293l-169 -17q-13 135 -90.5 206t-202.5 71z
M627 121q146 0 231.5 96.5t85.5 263.5q0 151 -81.5 236.5t-229.5 85.5q-107 0 -204.5 -34t-158.5 -93q-2 -20 -2 -84q0 -471 359 -471z" />
    <glyph glyph-name="seven" unicode="7" 
d="M1116 1479v-109q-237 -374 -348 -694q-106 -314 -133 -676h-189q21 339 140 643q122 316 354 686h-817v150h993z" />
    <glyph glyph-name="eight" unicode="8" 
d="M944 406q0 127 -90.5 205.5t-247.5 78.5t-246.5 -78.5t-89.5 -205.5q0 -132 87.5 -209.5t248.5 -77.5t249.5 78.5t88.5 208.5zM100 393q0 137 87 239.5t223 135.5q-263 89 -263 356q0 168 136 277q133 106 323 106q194 0 326 -106q135 -108 135 -277q0 -267 -262 -356
q136 -33 222.5 -135.5t86.5 -239.5q0 -179 -131 -301q-130 -121 -377 -121t-377 121q-129 123 -129 301zM317 1102q0 -117 81 -189.5t210 -72.5t210 72.5t81 189.5q0 115 -80.5 185.5t-210.5 70.5t-210.5 -70.5t-80.5 -185.5z" />
    <glyph glyph-name="nine" unicode="9" 
d="M590 119q127 0 211 84q80 80 111.5 187.5t31.5 254.5q-166 -117 -405 -117q-210 0 -324 138q-115 139 -115 331q0 220 142 365q145 145 346 145q290 0 407 -176q119 -174 119 -528q0 -142 -15.5 -261.5t-53.5 -227t-97 -182t-150 -118t-208 -43.5q-229 0 -338 115
q-110 116 -125 293l170 16q13 -134 90.5 -205t202.5 -71zM588 1356q-147 0 -232.5 -96t-85.5 -263q0 -151 82 -237t230 -86q105 0 203 34.5t159 94.5q2 18 2 82q0 471 -358 471z" />
    <glyph glyph-name="colon" unicode=":" horiz-adv-x="434" 
d="M123 201h188v-201h-188v201zM123 938h188v-201h-188v201z" />
    <glyph glyph-name="semicolon" unicode=";" horiz-adv-x="434" 
d="M123 938h188v-201h-188v201zM123 201h188q17 -104 17 -211q0 -151 -197 -271l-41 74q72 43 101.5 89t29.5 118h-98v201z" />
    <glyph glyph-name="less" unicode="&#x3c;" horiz-adv-x="1196" 
d="M1067 334v-137l-922 450v53l922 451v-143l-698 -334z" />
    <glyph glyph-name="equal" unicode="=" horiz-adv-x="1183" 
d="M1040 922v-121h-895v121h895zM1040 545v-123h-895v123h895z" />
    <glyph glyph-name="greater" unicode="&#x3e;" horiz-adv-x="1210" 
d="M1067 696v-49l-922 -450v137l701 340l-701 336v139z" />
    <glyph glyph-name="question" unicode="?" horiz-adv-x="972" 
d="M246 1096h-170q0 177 98 293q97 118 309 118q195 0 297 -108q101 -107 101 -252q0 -85 -29 -154q-11 -25 -24.5 -45.5t-32.5 -39.5t-31.5 -29.5t-39.5 -31.5t-38 -30q-36 -28 -96 -80q-47 -40 -79 -115t-38 -171h-76q-8 47 -8 108q0 71 18 129.5t46 98t62.5 73t69 63.5
t62.5 60.5t46 72t18 91.5q0 90 -61.5 150.5t-166.5 60.5q-115 0 -176 -68.5t-61 -193.5zM342 201h190v-201h-190v201z" />
    <glyph glyph-name="at" unicode="@" horiz-adv-x="1767" 
d="M1257 -186l33 -82q-170 -99 -391 -99q-392 0 -604 226q-213 227 -213 602q0 390 223 606q226 221 594 221q361 0 574 -201t213 -540q0 -257 -111 -416q-112 -160 -281 -160q-148 0 -157 203q-117 -203 -379 -203q-127 0 -200 69t-73 183q0 143 144 238q146 96 479 96
q4 66 4 109q0 101 -53 143.5t-172 42.5q-226 0 -238 -199l-129 23q0 146 115 217q119 72 264 72q371 0 371 -299q0 -64 -6 -234q-4 -226 -4 -248q0 -104 59 -104q99 0 176 123q80 127 80 344q0 314 -184 477q-182 164 -488 164q-311 0 -512 -189q-198 -186 -198 -538
q0 -343 192 -535q194 -194 518 -194q199 0 354 82zM795 78q132 0 220.5 101t92.5 278q-469 0 -469 -221q0 -69 42.5 -113.5t113.5 -44.5z" />
    <glyph glyph-name="A" unicode="A" horiz-adv-x="1327" 
d="M1296 0h-182l-139 383h-645l-140 -383h-159l549 1479h168zM920 532l-269 732l-268 -732h537z" />
    <glyph glyph-name="B" unicode="B" horiz-adv-x="1239" 
d="M612 1329h-305v-493h305q129 0 208 70t79 177t-79 176.5t-208 69.5zM674 0h-537v1479h430q504 0 504 -367q0 -132 -74 -227q-72 -96 -186 -117q336 -53 336 -371q0 -183 -135 -291q-130 -106 -338 -106zM975 418q0 140 -99 204t-298 64h-271v-539h355q142 0 227.5 73.5
t85.5 197.5z" />
    <glyph glyph-name="C" unicode="C" horiz-adv-x="1333" 
d="M705 1507q195 0 356 -108q87 -57 141.5 -168t61.5 -260l-174 -23q-12 208 -115 309t-270 101q-447 0 -447 -627q0 -304 114 -458t330 -154q165 0 271.5 112.5t118.5 317.5l176 -23q-15 -268 -183 -413q-165 -142 -383 -142q-290 0 -454 201t-164 559q0 349 158 563
q160 213 463 213z" />
    <glyph glyph-name="D" unicode="D" horiz-adv-x="1347" 
d="M618 0h-481v1479h492q307 0 471 -215q166 -214 166 -525t-170 -526q-171 -213 -478 -213zM602 1329h-295v-1182h287q246 0 371 168q127 171 127 424t-123 422q-122 168 -367 168z" />
    <glyph glyph-name="E" unicode="E" horiz-adv-x="1116" 
d="M307 147h737v-147h-907v1479h891v-150h-721v-493h664v-150h-664v-539z" />
    <glyph glyph-name="F" unicode="F" horiz-adv-x="1030" 
d="M307 686v-686h-170v1479h862v-150h-692v-493h647v-150h-647z" />
    <glyph glyph-name="G" unicode="G" horiz-adv-x="1411" 
d="M702 119q108 0 216 59.5t182 155.5v184h-312v152h486v-670h-96l-45 172q-198 -201 -431 -201q-290 0 -454 201t-164 559q0 349 158 563q160 213 463 213q75 0 145 -14.5t143 -52t127.5 -96t91.5 -154.5t43 -219l-174 -23q-12 211 -111 310.5t-265 99.5q-447 0 -447 -627
q0 -304 114 -458t330 -154z" />
    <glyph glyph-name="H" unicode="H" horiz-adv-x="1357" 
d="M307 0h-170v1479h170v-643h744v643h168v-1479h-168v686h-744v-686z" />
    <glyph glyph-name="I" unicode="I" horiz-adv-x="444" 
d="M307 1479v-1479h-170v1479h170z" />
    <glyph glyph-name="J" unicode="J" horiz-adv-x="894" 
d="M20 387h170q0 -122 52.5 -195t152.5 -73t158.5 71.5t58.5 198.5v1090h170v-1090q0 -214 -102.5 -316t-284.5 -102q-198 0 -286 119q-89 121 -89 297z" />
    <glyph glyph-name="K" unicode="K" horiz-adv-x="1273" 
d="M659 887l553 -887h-198l-475 758l-232 -250v-508h-170v1479h170v-750l697 750h204z" />
    <glyph glyph-name="L" unicode="L" horiz-adv-x="1042" 
d="M137 1473h170v-1326h707v-147h-877v1473z" />
    <glyph glyph-name="M" unicode="M" horiz-adv-x="1665" 
d="M408 1479l423 -1172l424 1172h271v-1479h-168v1284h-10l-463 -1284h-105l-463 1284h-12v-1284h-168v1479h271z" />
    <glyph glyph-name="N" unicode="N" horiz-adv-x="1382" 
d="M1094 1479h149v-1479h-207l-741 1229h-8v-1229h-150v1479h207l741 -1229h9v1229z" />
    <glyph glyph-name="O" unicode="O" horiz-adv-x="1492" 
d="M1411 739q0 -346 -178 -557t-488 -211q-309 0 -487 211q-176 212 -176 557q0 344 178 555q180 213 485 213q306 0 486 -213q180 -210 180 -555zM1237 739q0 273 -129 445q-128 174 -363 174q-232 0 -360 -174q-129 -172 -129 -445q0 -275 129 -448q129 -172 360 -172
q234 0 363 172q129 173 129 448z" />
    <glyph glyph-name="P" unicode="P" horiz-adv-x="1210" 
d="M967 1016q0 142 -90 227.5t-261 85.5h-309v-647h309q171 0 261 96q90 101 90 238zM137 0v1479h471q249 0 392 -126.5t143 -342.5q0 -219 -144 -348q-145 -130 -389 -130h-303v-532h-170z" />
    <glyph glyph-name="Q" unicode="Q" horiz-adv-x="1497" 
d="M1413 739q0 -282 -120 -477.5t-335 -261.5q25 -110 66 -165.5t111 -55.5q48 0 94 14l16 -137q-91 -16 -151 -16q-165 0 -228 106q-56 93 -78 231q-4 0 -17 -1t-17 -1q-312 0 -492 207q-178 205 -178 557q0 344 178 555q180 213 486 213q305 0 485 -213q180 -210 180 -555
zM1239 739q0 273 -129 445q-128 174 -362 174q-233 0 -361 -174q-129 -172 -129 -445q0 -290 135 -452t381 -162q-22 129 -60 188.5t-114 59.5q-42 0 -100 -15l-17 140q76 20 170 20q58 0 106 -21t75 -55q31 -35 51 -84q21 -47 31 -86.5t22 -115.5q145 61 223 214t78 369z
" />
    <glyph glyph-name="R" unicode="R" horiz-adv-x="1298" 
d="M1143 1051q0 -159 -86.5 -261.5t-241.5 -127.5q116 -23 173.5 -81.5t94.5 -191.5q11 -34 25 -104l29 -115q36 -116 80 -170h-209l-101 373q-33 120 -102.5 164.5t-183.5 44.5h-314v-582h-170v1479h484q244 0 383 -114.5t139 -313.5zM307 1329v-598h328q166 0 252 80.5
t86 218.5t-86 218.5t-252 80.5h-328z" />
    <glyph glyph-name="S" unicode="S" horiz-adv-x="1208" 
d="M1147 406q0 -92 -31 -167t-83 -124t-121.5 -82.5t-142.5 -47.5t-151 -14q-85 0 -144 8.5t-132 36.5q-254 90 -281 469l170 17q15 -238 134 -318q56 -36 114 -50.5t139 -14.5q163 0 261 71t98 216q0 60 -29.5 104.5t-79.5 71t-114.5 47t-136 38t-143 37t-136 51t-114.5 74
t-79.5 110.5t-29.5 157q0 196 143 303q144 108 336 108q247 0 371.5 -116.5t148.5 -352.5l-170 -16q-21 203 -108 266q-89 68 -242 68q-127 0 -219 -62q-92 -59 -92 -198q0 -63 29.5 -108.5t79.5 -72t115 -45.5t136.5 -34.5t143 -33.5t136.5 -48.5t115 -72.5t79.5 -112.5
t29.5 -162.5z" />
    <glyph glyph-name="T" unicode="T" 
d="M692 1329v-1329h-170v1329h-495v150h1161v-150h-496z" />
    <glyph glyph-name="U" unicode="U" horiz-adv-x="1323" 
d="M1063 481v998h147v-998q0 -240 -153 -375t-395 -135q-243 0 -396 135t-153 375v998h168v-998q0 -174 110 -268q113 -94 281 -94t278 94q113 94 113 268z" />
    <glyph glyph-name="V" unicode="V" horiz-adv-x="1327" 
d="M31 1479h180l463 -1268l461 1268h161l-548 -1479h-168z" />
    <glyph glyph-name="W" unicode="W" horiz-adv-x="1890" 
d="M31 1479h180l317 -1231l336 1231h180l318 -1231l336 1231h162l-422 -1479h-168l-328 1192l-338 -1192h-168z" />
    <glyph glyph-name="X" unicode="X" horiz-adv-x="1325" 
d="M1268 0h-203l-410 623l-419 -623h-179l510 756l-473 723h203l373 -570l383 570h176l-473 -705z" />
    <glyph glyph-name="Y" unicode="Y" horiz-adv-x="1191" 
d="M993 1479h168l-481 -893v-586h-170v586l-479 893h192l385 -717z" />
    <glyph glyph-name="Z" unicode="Z" horiz-adv-x="1208" 
d="M61 106l838 1223h-805v150h1034v-109l-837 -1223h856v-147h-1086v106z" />
    <glyph glyph-name="bracketleft" unicode="[" horiz-adv-x="663" 
d="M592 -139v-125h-449v1939h449v-125h-295v-1689h295z" />
    <glyph glyph-name="backslash" unicode="\" horiz-adv-x="714" 
d="M137 1479l578 -1479h-137l-578 1479h137z" />
    <glyph glyph-name="bracketright" unicode="]" horiz-adv-x="663" 
d="M520 1675v-1939h-448v125h295v1689h-295v125h448z" />
    <glyph glyph-name="asciicircum" unicode="^" horiz-adv-x="1071" 
d="M999 688h-170l-294 447l-293 -447h-172l413 612h103z" />
    <glyph glyph-name="underscore" unicode="_" horiz-adv-x="1050" 
d="M1051 -106v-113h-1051v113h1051z" />
    <glyph glyph-name="grave" unicode="`" horiz-adv-x="669" 
d="M365 1440l159 -307h-92l-260 307h193z" />
    <glyph glyph-name="a" unicode="a" horiz-adv-x="1042" 
d="M391 78q132 0 215.5 99t87.5 284q-141 0 -237.5 -17t-145 -49t-67.5 -68t-19 -83q0 -69 47.5 -117.5t118.5 -48.5zM975 137l55 -69q-43 -56 -74 -76.5t-79 -20.5q-145 0 -154 199q-114 -199 -369 -199q-127 0 -204.5 73t-77.5 187q0 330 622 330q4 102 4 105
q-1 101 -54.5 143.5t-172.5 42.5q-105 0 -167 -51t-66 -148l-132 23q0 146 115 217q119 72 264 72q371 0 371 -299q0 -64 -6 -234q-4 -226 -4 -248q0 -94 55 -94q33 0 74 47z" />
    <glyph glyph-name="b" unicode="b" horiz-adv-x="1075" 
d="M123 0v1479h153v-725q37 99 121 155t199 56q185 0 293 -144t108 -352q0 -211 -110 -354q-108 -144 -305 -144q-227 0 -322 183l-51 -154h-86zM276 463q0 -164 77 -264.5t202 -100.5q131 0 207 93t76 272t-78 277t-209 98q-123 0 -199 -104t-76 -271z" />
    <glyph glyph-name="c" unicode="c" horiz-adv-x="956" 
d="M504 90q95 0 157.5 57.5t75.5 161.5l154 -16q-17 -149 -120.5 -235.5t-266.5 -86.5q-209 0 -317.5 133t-108.5 365q0 229 110 363.5t316 134.5q163 0 266.5 -87.5t120.5 -236.5l-154 -16q-13 104 -75.5 161.5t-157.5 57.5q-132 0 -201.5 -99t-69.5 -278q0 -181 69.5 -280
t201.5 -99z" />
    <glyph glyph-name="d" unicode="d" horiz-adv-x="1075" 
d="M952 1479v-1479h-153v166q-103 -195 -310 -195q-195 0 -303 144t-108 354q0 212 104 352q108 144 293 144q242 0 324 -211v725h153zM799 463q0 170 -77 272.5t-202 102.5q-132 0 -208 -97t-76 -278q0 -177 75 -271t205 -94q128 0 205.5 100t77.5 265z" />
    <glyph glyph-name="e" unicode="e" horiz-adv-x="980" 
d="M907 436h-669q0 -155 74 -246.5t204 -91.5q105 0 168 54.5t70 156.5l137 -16q-17 -149 -116 -235.5t-259 -86.5q-212 0 -326 138q-112 136 -112 360q0 228 110 363t318 135q195 0 298 -138.5t103 -392.5zM504 854q-254 0 -266 -299h510q-4 141 -70.5 220t-173.5 79z" />
    <glyph glyph-name="f" unicode="f" horiz-adv-x="567" 
d="M348 809v-809h-153v809h-164v129h164v192q0 377 313 377q107 0 170 -54.5t63 -143.5q0 -56 -20 -109l-131 17q18 43 18 77q0 44 -27 72.5t-75 28.5q-78 0 -118 -58t-40 -204v-195h213v-129h-213z" />
    <glyph glyph-name="g" unicode="g" horiz-adv-x="1071" 
d="M575 299q-211 0 -305 129q-75 -24 -75 -117q0 -90 75 -116q76 -27 285 -27q195 0 309.5 -68.5t114.5 -201.5q0 -144 -119 -225t-352 -81q-226 0 -338.5 73t-112.5 202q0 65 54.5 126t142.5 87q-80 20 -128 86t-48 149q0 180 139 236q-10 38 -10 82q0 152 97 243t271 91
q179 0 279 -103q51 26 51 99v65h135v-65q0 -57 -38.5 -109.5t-92.5 -65.5q33 -65 33 -155q0 -156 -96 -245t-271 -89zM186 -131q0 -80 77.5 -115t244.5 -35q171 0 250.5 35.5t79.5 114.5t-75 114t-247 35q-170 0 -250 -35.5t-80 -113.5zM575 412q222 0 222 221t-222 221
q-221 0 -221 -221t221 -221z" />
    <glyph glyph-name="h" unicode="h" horiz-adv-x="1056" 
d="M944 635v-635h-153v584q0 125 -50.5 188.5t-142.5 63.5q-115 0 -217 -105t-102 -244v-487h-156v1479h151v-768q49 117 150.5 186.5t218.5 69.5q136 0 218.5 -89.5t82.5 -242.5z" />
    <glyph glyph-name="i" unicode="i" horiz-adv-x="399" 
d="M276 1372v-225h-153v225h153zM276 938v-938h-153v938h153z" />
    <glyph glyph-name="j" unicode="j" horiz-adv-x="399" 
d="M276 1372v-225h-153v225h153zM-227 -170l143 16q0 -153 100 -153q65 0 86 54t21 204v987h153v-1079q0 -273 -264 -273q-224 0 -239 244z" />
    <glyph glyph-name="k" unicode="k" horiz-adv-x="976" 
d="M545 569l393 -569h-190l-318 455l-154 -148v-307h-153v1479h153v-996l451 455h193z" />
    <glyph glyph-name="l" unicode="l" horiz-adv-x="399" 
d="M276 1479v-1479h-153v1479h153z" />
    <glyph glyph-name="m" unicode="m" horiz-adv-x="1673" 
d="M276 0h-153v938h153v-242q48 125 145 198t220 73q249 0 270 -271q42 127 142 199t229 72q153 0 216 -89t63 -274v-604h-154v537q0 163 -42 232t-146 69q-105 0 -205 -115q-99 -114 -99 -262v-461h-153v537q0 165 -40 233t-147 68t-202 -117q-97 -120 -97 -266v-455z" />
    <glyph glyph-name="n" unicode="n" horiz-adv-x="1056" 
d="M944 635v-635h-153v584q0 122 -48 184.5t-135 62.5q-119 0 -225 -100q-107 -98 -107 -244v-487h-153v938h149v-227q49 117 151.5 186.5t219.5 69.5q138 0 219.5 -88t81.5 -244z" />
    <glyph glyph-name="o" unicode="o" horiz-adv-x="1050" 
d="M735 195q78 101 78 274q0 176 -78 272q-79 97 -211 97t-211 -97q-75 -93 -75 -272q0 -177 75 -274q79 -97 211 -97t211 97zM852 823q119 -143 119 -354t-119 -354q-117 -144 -328 -144q-209 0 -329 144q-117 144 -117 354q0 208 117 352q122 146 329 146q211 0 328 -144z
" />
    <glyph glyph-name="p" unicode="p" horiz-adv-x="1075" 
d="M276 180v-565h-153v1323h153v-166q114 193 306 193q197 0 305 -144q110 -143 110 -352q0 -210 -108 -354t-293 -144q-115 0 -199 55.5t-121 153.5zM276 475q0 -168 76 -272.5t199 -104.5q130 0 208.5 99t78.5 278q0 176 -76 269.5t-207 93.5q-124 0 -201.5 -100
t-77.5 -263z" />
    <glyph glyph-name="q" unicode="q" horiz-adv-x="1075" 
d="M952 958v-1343h-153v565q-37 -98 -121 -153.5t-199 -55.5q-187 0 -295 144q-106 141 -106 354q0 208 108 352q111 144 308 144q103 0 188 -53.5t133 -143.5l78 190h59zM799 475q0 163 -77.5 263t-201.5 100q-131 0 -206.5 -93.5t-75.5 -269.5q0 -179 78 -278t208 -99
q123 0 199 104.5t76 272.5z" />
    <glyph glyph-name="r" unicode="r" horiz-adv-x="782" 
d="M281 352v-352h-158v938h158v-281q94 304 286 304q91 0 141 -51.5t50 -143.5q0 -65 -31 -135l-133 16q27 53 27 98q0 39 -22.5 65t-57.5 26q-107 0 -183 -166q-77 -165 -77 -318z" />
    <glyph glyph-name="s" unicode="s" horiz-adv-x="901" 
d="M831 256q0 -135 -98 -210t-272 -75q-157 0 -266 64q-118 73 -127 280l147 15q15 -246 248 -246q100 0 158.5 47t58.5 127q0 43 -24.5 72t-65 42.5t-92 26t-105.5 21t-105.5 28t-92 46.5t-65 78.5t-24.5 121.5q0 129 93 201t250 72q341 0 362 -308l-147 -14
q-15 209 -220 209q-81 0 -134.5 -39t-53.5 -121q0 -56 53.5 -87.5t149.5 -51.5q38 -8 56.5 -12t55.5 -13t58 -17t52 -22t49.5 -28.5t40 -36t33 -46t19.5 -56t8 -68.5z" />
    <glyph glyph-name="t" unicode="t" horiz-adv-x="729" 
d="M565 215l111 -25q-27 -219 -227 -219q-133 0 -188.5 63t-55.5 197v578h-174v129h174v272l153 78v-350h277v-129h-277v-578q0 -80 23.5 -110.5t79.5 -30.5q83 0 104 125z" />
    <glyph glyph-name="u" unicode="u" horiz-adv-x="1052" 
d="M930 938v-938h-148v223q-50 -116 -152.5 -184t-219.5 -68q-137 0 -217 87t-80 243v637h153v-586q0 -250 187 -250q113 0 219 103q104 104 104 241v492h154z" />
    <glyph glyph-name="v" unicode="v" horiz-adv-x="937" 
d="M768 938h141l-370 -938h-140l-372 938h155l293 -770z" />
    <glyph glyph-name="w" unicode="w" horiz-adv-x="1417" 
d="M637 938h156l227 -737l225 737h144l-306 -938h-139l-237 735l-232 -735h-141l-307 938h155l230 -737z" />
    <glyph glyph-name="x" unicode="x" horiz-adv-x="940" 
d="M383 469l-330 469h183l241 -346l250 346h158l-332 -453l346 -485h-184l-254 360l-264 -360h-156z" />
    <glyph glyph-name="y" unicode="y" horiz-adv-x="952" 
d="M35 938h166l327 -799l254 799h142l-322 -983q-64 -197 -129.5 -276.5t-179.5 -79.5q-75 0 -146 47q-67 46 -67 131q0 45 18 98q109 -14 142 -16q-17 -59 -17 -84q0 -35 23 -56.5t61 -21.5q88 0 146 248z" />
    <glyph glyph-name="z" unicode="z" horiz-adv-x="921" 
d="M287 127h561v-127h-774v92l544 717h-538v129h754v-92z" />
    <glyph glyph-name="braceleft" unicode="{" horiz-adv-x="737" 
d="M96 676v92q100 38 145.5 97.5t45.5 150.5v241q0 168 67 283q39 64 116 100.5t181 36.5v-110q-117 0 -164 -59t-47 -181v-205q0 -78 -5.5 -123.5t-24.5 -103.5q-38 -111 -193 -172q155 -60 193 -176q19 -57 24.5 -102t5.5 -123v-205q0 -121 47 -179.5t164 -58.5v-112
q-104 0 -181 36.5t-116 100.5q-67 115 -67 282v242q0 91 -45.5 150.5t-145.5 97.5z" />
    <glyph glyph-name="bar" unicode="|" horiz-adv-x="372" 
d="M256 1499v-1933h-139v1933h139z" />
    <glyph glyph-name="braceright" unicode="}" horiz-adv-x="737" 
d="M641 768v-92q-99 -38 -144.5 -97.5t-45.5 -150.5v-242q0 -167 -70 -282q-37 -64 -114 -100.5t-181 -36.5v112q117 0 164 58.5t47 179.5v205q0 76 6 122t25 103q38 116 192 176q-154 60 -192 172q-19 59 -25 105t-6 122v205q0 122 -47 181t-164 59v110q104 0 181 -36.5
t114 -100.5q70 -115 70 -283v-241q0 -91 45.5 -150.5t144.5 -97.5z" />
    <glyph glyph-name="asciitilde" unicode="~" horiz-adv-x="1181" 
d="M852 500q-91 0 -277 80q-180 79 -245 79q-123 0 -150 -180h-84q6 148 66 240t168 92q91 0 280 -80t242 -80q125 0 152 180h81q-6 -148 -65.5 -239.5t-167.5 -91.5z" />
    <glyph glyph-name="uni00A0" unicode="&#xa0;" horiz-adv-x="548" 
 />
    <glyph glyph-name="exclamdown" unicode="&#xa1;" horiz-adv-x="434" 
d="M125 -229l55 716h76l53 -716v-312h-184v312zM311 737h-188v201h188v-201z" />
    <glyph glyph-name="cent" unicode="&#xa2;" horiz-adv-x="956" 
d="M545 258v-446h-125v452q-168 24 -255 155t-87 337t87 335.5t255 153.5v445h125v-441q146 -10 237.5 -95.5t108.5 -223.5l-154 -17q-27 194 -192 215v-747q78 11 128.5 66.5t63.5 148.5l154 -16q-17 -138 -109 -225t-237 -97zM420 393v723q-90 -26 -138.5 -119.5
t-48.5 -240.5t48.5 -242t138.5 -121z" />
    <glyph glyph-name="sterling" unicode="&#xa3;" 
d="M1006 1151l-154 -10q0 108 -65 169.5t-158 61.5q-232 0 -232 -237q0 -127 49 -324h363v-123h-334q25 -128 25 -217q0 -167 -99 -299q73 21 136 21q76 0 180 -39q107 -37 160 -37q84 0 119.5 40t58.5 162l86 -22q-11 -154 -83 -240t-190 -86q-77 0 -190 39
q-118 41 -205 41q-109 0 -252 -49q-82 -29 -147 -29v123q128 3 202 105q74 106 74 252q0 98 -35 235h-241v123h207q-52 195 -52 307q0 190 102.5 296t299.5 106q82 0 148.5 -24.5t108 -63t69 -88.5t38.5 -98t11 -95z" />
    <glyph glyph-name="yen" unicode="&#xa5;" horiz-adv-x="1191" 
d="M993 1479h168l-440 -813h334v-134h-375v-141h375v-133h-375v-258h-170v258h-373v133h373v141h-373v134h330l-436 813h192l385 -715z" />
    <glyph glyph-name="brokenbar" unicode="&#xa6;" horiz-adv-x="372" 
d="M256 227v-692h-139v692h139zM256 1513v-692h-139v692h139z" />
    <glyph glyph-name="section" unicode="&#xa7;" horiz-adv-x="1181" 
d="M113 637q0 128 123 242q-72 93 -72 229q0 172 119 285q120 114 301 114q250 0 346 -125q46 -59 68 -126.5t28 -163.5l-170 -17q-18 283 -270 283q-119 0 -186.5 -62t-67.5 -174q0 -56 25.5 -99t68.5 -70.5t99 -50t117.5 -42t123.5 -41.5t118 -54.5t99 -74.5t68.5 -108
t25.5 -150q0 -158 -116 -252q65 -83 65 -200q0 -183 -135 -291q-133 -109 -309 -109q-452 0 -467 447l168 14q0 -155 77.5 -233t221.5 -78q120 0 198 65t78 168q0 143 -264 227q-108 34 -219 78q-117 47 -189.5 142t-72.5 227zM281 637q0 -81 50.5 -136.5t129.5 -80.5
q59 -17 184 -62q124 -41 191 -79q73 58 73 153q0 134 -116 184q-67 31 -121 46q-214 64 -316 122q-75 -57 -75 -147z" />
    <glyph glyph-name="dieresis" unicode="&#xa8;" horiz-adv-x="972" 
d="M713 1356v-209h-154v209h154zM344 1356v-209h-154v209h154z" />
    <glyph glyph-name="copyright" unicode="&#xa9;" horiz-adv-x="1746" 
d="M1640 735q0 -316 -227 -540q-224 -224 -543 -224q-316 0 -540 224t-224 540q0 318 224 545t540 227q319 0 543 -227q227 -227 227 -545zM1528 735q0 274 -193 467t-465 193q-267 0 -462 -195q-191 -194 -191 -465q0 -272 191 -463q193 -190 462 -190q275 0 465 190
q193 190 193 463zM870 389q87 0 144 52.5t69 148.5l134 -17q-17 -129 -111 -206.5t-236 -77.5q-184 0 -280 120.5t-96 323.5q0 205 96 326t280 121q142 0 236 -78.5t111 -208.5l-134 -14q-12 95 -68.5 146.5t-144.5 51.5q-117 0 -179 -91t-62 -253t62 -253t179 -91z" />
    <glyph glyph-name="ordfeminine" unicode="&#xaa;" horiz-adv-x="882" 
d="M322 766q201 0 213 262q-201 -3 -261 -41q-63 -40 -63 -110q0 -48 30.5 -79.5t80.5 -31.5zM752 811l49 -63q-58 -76 -125 -76q-105 0 -111 139q-92 -139 -268 -139q-97 0 -156 55t-59 141q0 245 453 248q2 18 2 72q0 71 -36.5 100t-119.5 29q-153 0 -162 -141l-110 14
q0 114 86 170q85 55 196 55q279 0 279 -227q0 -13 -0.5 -34.5t-1.5 -62t-2 -71.5q-4 -164 -4 -182q0 -64 34 -64q26 0 56 37z" />
    <glyph glyph-name="guillemotleft" unicode="&#xab;" horiz-adv-x="1003" 
d="M793 55l-308 457l308 457h163l-292 -457l292 -457h-163zM399 55l-307 457l307 457h164l-295 -457l295 -457h-164z" />
    <glyph glyph-name="logicalnot" unicode="&#xac;" horiz-adv-x="987" 
d="M745 309v299h-618v135h731v-434h-113z" />
    <glyph glyph-name="uni00AD" unicode="&#xad;" horiz-adv-x="897" 
d="M760 614v-143h-625v143h625z" />
    <glyph glyph-name="registered" unicode="&#xae;" horiz-adv-x="1746" 
d="M1264 430l20 -78q-54 -28 -115 -28q-58 0 -87.5 32t-51.5 105l-33 102q-24 63 -30 68q-20 28 -50.5 38.5t-89.5 12.5h-143v-338h-131v819h330q156 0 235.5 -52.5t79.5 -174.5q0 -92 -60.5 -151t-156.5 -70q109 -18 147 -156l5 -12q26 -92 38 -109q14 -20 58 -20
q14 0 35 12zM1063 922q0 141 -166 141h-213v-285h152q124 0 175.5 32.5t51.5 111.5zM1640 735q0 -314 -227 -538q-224 -224 -543 -224q-316 0 -540 224t-224 538q0 318 224 545t540 227q319 0 543 -227q227 -227 227 -545zM1528 735q0 274 -193 467t-465 193
q-267 0 -462 -195q-191 -194 -191 -465q0 -270 191 -461q193 -190 462 -190q274 0 465 188q193 190 193 463z" />
    <glyph glyph-name="overscore" unicode="&#xaf;" horiz-adv-x="976" 
d="M766 1327v-135h-555v135h555z" />
    <glyph glyph-name="degree" unicode="&#xb0;" horiz-adv-x="720" 
d="M199 1243q0 -67 49.5 -117.5t111.5 -50.5q63 0 111.5 50.5t48.5 117.5q0 63 -47 109.5t-113 46.5q-62 0 -111.5 -47.5t-49.5 -108.5zM106 1245q0 109 72.5 180.5t181.5 71.5t181.5 -71.5t72.5 -180.5q0 -115 -72 -188.5t-182 -73.5q-111 0 -182.5 73.5t-71.5 188.5z" />
    <glyph glyph-name="plusminus" unicode="&#xb1;" horiz-adv-x="1183" 
d="M655 678v-342h-125v342h-385v123h385v342h125v-342h385v-123h-385zM1040 190v-122h-895v122h895z" />
    <glyph glyph-name="twosuperior" unicode="&#xb2;" horiz-adv-x="704" 
d="M219 1174l-102 18q6 103 66 163t159 60q104 0 172 -57.5t68 -145.5q0 -83 -41.5 -152t-149.5 -167l-112 -102h307v-95h-465v70l207 203l69 69q26 30 46 76.5t20 93.5q0 48 -34 79.5t-87 31.5q-59 0 -87 -36t-36 -109z" />
    <glyph glyph-name="threesuperior" unicode="&#xb3;" horiz-adv-x="737" 
d="M129 1294v95h457v-68l-207 -193q100 0 169.5 -58t69.5 -155q0 -98 -77 -172q-77 -71 -183 -71q-102 0 -171.5 54t-69.5 148l121 19q6 -127 120 -127q66 0 104 40t38 109q0 140 -133 140q-40 0 -88 -25l-60 57l209 207h-299z" />
    <glyph glyph-name="acute" unicode="&#xb4;" horiz-adv-x="669" 
d="M555 1440l-262 -307h-90l159 307h193z" />
    <glyph glyph-name="paragraph" unicode="&#xb6;" horiz-adv-x="1095" 
d="M950 1479v-1479h-131v1329h-180v-1329h-131v696q-173 6 -291 101q-115 95 -115 288q0 87 26.5 156.5t69.5 113t101.5 72.5t117.5 40.5t122 11.5h411z" />
    <glyph glyph-name="middot" unicode="&#xb7;" horiz-adv-x="434" 
d="M123 651h188v-200h-188v200z" />
    <glyph glyph-name="cedilla" unicode="&#xb8;" horiz-adv-x="811" 
d="M262 -328l21 62q47 -29 92 -29q92 0 92 66q0 69 -152 69l45 160h103l-33 -106q59 -2 98 -35.5t39 -89.5q0 -57 -46 -96.5t-122 -39.5q-72 0 -137 39z" />
    <glyph glyph-name="onesuperior" unicode="&#xb9;" horiz-adv-x="673" 
d="M313 1411h86v-623h156v-94h-438v94h162v469h-148v74q103 0 137 17q32 14 45 63z" />
    <glyph glyph-name="ordmasculine" unicode="&#xba;" horiz-adv-x="876" 
d="M559 848q53 68 53 194q0 127 -53 195t-145 68q-95 0 -148 -68t-53 -195q0 -126 53 -194t148 -68q92 0 145 68zM748 1042q0 -155 -89 -264q-87 -106 -245 -106q-161 0 -248 106q-88 107 -88 264q0 158 88 265q88 108 248 108q156 0 245 -108q89 -109 89 -265z" />
    <glyph glyph-name="guillemotright" unicode="&#xbb;" horiz-adv-x="1003" 
d="M440 969h164l307 -457l-307 -457h-164l293 457zM45 969h164l307 -457l-307 -457h-164l295 457z" />
    <glyph glyph-name="onequarter" unicode="&#xbc;" horiz-adv-x="1435" 
d="M1294 1386l-1020 -1386h-137l1022 1386h135zM313 1411h86v-623h156v-94h-438v94h162v469h-148v74q103 0 137 17q32 14 45 63zM1102 242v166l119 38v-204h112v-95h-112v-147h-119v147h-314v91q106 112 156 215q49 104 64 247h120q-21 -147 -71 -254q-51 -105 -156 -204
h201z" />
    <glyph glyph-name="onehalf" unicode="&#xbd;" horiz-adv-x="1433" 
d="M1294 1386l-1020 -1386h-137l1022 1386h135zM313 1411h86v-623h156v-94h-438v94h162v469h-148v74q103 0 137 17q32 14 45 63zM950 477l-102 19q5 103 65 163t160 60q103 0 171.5 -57.5t68.5 -145.5q0 -99 -62 -182q-65 -84 -243 -240h309v-94h-465v70l207 202l67 70
q27 28 46.5 74t19.5 96q0 47 -34 79t-85 32q-59 0 -87 -36.5t-36 -109.5z" />
    <glyph glyph-name="threequarters" unicode="&#xbe;" horiz-adv-x="1523" 
d="M1376 1386l-1020 -1386h-137l1020 1386h137zM1180 242v166l118 38v-204h113v-95h-113v-147h-118v147h-314v91q106 112 156 215q48 101 63 247h121q-21 -147 -71 -254q-51 -105 -156 -204h201zM129 1294v95h457v-68l-207 -193q100 0 169.5 -58t69.5 -155q0 -98 -77 -172
q-77 -71 -183 -71q-102 0 -171.5 54t-69.5 148l121 19q6 -127 120 -127q66 0 104 40t38 109q0 140 -133 140q-40 0 -88 -25l-60 57l209 207h-299z" />
    <glyph glyph-name="questiondown" unicode="&#xbf;" horiz-adv-x="972" 
d="M713 -158h170q0 -176 -99 -293q-97 -118 -309 -118q-195 0 -297 108q-100 106 -100 252q0 87 28 154q11 25 24.5 45.5t32.5 39.5t31.5 29.5t39.5 31.5t38 30q45 35 97 80q46 40 78 115t38 171h76q8 -47 8 -108q0 -71 -17.5 -129.5t-46 -98t-62.5 -73t-68.5 -63.5
t-63 -60.5t-46 -72t-17.5 -91.5q0 -90 61 -150.5t166 -60.5q115 0 176.5 68.5t61.5 193.5zM616 737h-190v201h190v-201z" />
    <glyph glyph-name="Agrave" unicode="&#xc0;" horiz-adv-x="1327" 
d="M1296 0h-182l-139 383h-645l-140 -383h-159l549 1479h168zM920 532l-269 732l-268 -732h537zM678 1980l160 -307h-93l-260 307h193z" />
    <glyph glyph-name="Aacute" unicode="&#xc1;" horiz-adv-x="1327" 
d="M1296 0h-182l-139 383h-645l-140 -383h-159l549 1479h168zM920 532l-269 732l-268 -732h537zM885 1980l-262 -307h-91l160 307h193z" />
    <glyph glyph-name="Acircumflex" unicode="&#xc2;" horiz-adv-x="1327" 
d="M1296 0h-182l-139 383h-645l-140 -383h-159l549 1479h168zM920 532l-269 732l-268 -732h537zM662 1870l-181 -197h-90l191 307h159l191 -307h-90z" />
    <glyph glyph-name="Atilde" unicode="&#xc3;" horiz-adv-x="1327" 
d="M1296 0h-182l-139 383h-645l-140 -383h-159l549 1479h168zM920 532l-269 732l-268 -732h537zM557 1784q-67 0 -125 -94l-67 47q44 93 86 131.5t108 38.5q58 0 117 -47q60 -45 90 -45q67 0 123 90l67 -43q-44 -95 -85.5 -133.5t-106.5 -38.5q-59 0 -121 47t-86 47z" />
    <glyph glyph-name="Adieresis" unicode="&#xc4;" horiz-adv-x="1327" 
d="M1296 0h-182l-139 383h-645l-140 -383h-159l549 1479h168zM920 532l-269 732l-268 -732h537zM924 1896v-208h-154v208h154zM555 1896v-208h-154v208h154z" />
    <glyph glyph-name="Aring" unicode="&#xc5;" horiz-adv-x="1327" 
d="M1296 0h-182l-139 383h-645l-140 -383h-159l549 1479h168zM920 532l-269 732l-268 -732h537zM662 1903q-33 0 -57.5 -23.5t-24.5 -58.5t24.5 -60.5t57.5 -25.5q32 0 56.5 25.5t24.5 60.5t-23 58.5t-58 23.5zM662 1667q-66 0 -109 44t-43 110t43 108.5t109 42.5
t107.5 -42.5t41.5 -108.5t-43 -110t-106 -44z" />
    <glyph glyph-name="AE" unicode="&#xc6;" horiz-adv-x="2078" 
d="M1270 147h737v-147h-907v383h-631l-276 -383h-179l1082 1477h866v-150h-692v-491h678v-150h-678v-539zM1098 532v719l-520 -719h520z" />
    <glyph glyph-name="Ccedilla" unicode="&#xc7;" horiz-adv-x="1333" 
d="M514 -328l18 64q42 -31 95 -31q90 0 90 68q0 67 -152 67l41 137q-250 31 -386 228.5t-136 525.5q0 349 158 563q160 213 463 213q195 0 356 -108q87 -57 141.5 -168t61.5 -260l-174 -23q-12 208 -115 309t-270 101q-447 0 -447 -627q0 -304 114 -458t330 -154
q165 0 271.5 112.5t118.5 317.5l176 -23q-7 -112 -42 -205t-89 -156t-125 -107t-148 -65t-159 -22l-25 -77q59 -2 99 -36t40 -89q0 -57 -46.5 -96.5t-123.5 -39.5q-73 0 -135 39z" />
    <glyph glyph-name="Egrave" unicode="&#xc8;" horiz-adv-x="1116" 
d="M307 147h737v-147h-907v1479h891v-150h-721v-493h664v-150h-664v-539zM573 1980l160 -307h-92l-260 307h192z" />
    <glyph glyph-name="Eacute" unicode="&#xc9;" horiz-adv-x="1116" 
d="M307 147h737v-147h-907v1479h891v-150h-721v-493h664v-150h-664v-539zM764 1980l-262 -307h-90l159 307h193z" />
    <glyph glyph-name="Ecircumflex" unicode="&#xca;" horiz-adv-x="1116" 
d="M307 147h737v-147h-907v1479h891v-150h-721v-493h664v-150h-664v-539zM557 1870l-180 -197h-90l190 307h160l190 -307h-90z" />
    <glyph glyph-name="Edieresis" unicode="&#xcb;" horiz-adv-x="1116" 
d="M307 147h737v-147h-907v1479h891v-150h-721v-493h664v-150h-664v-539zM819 1896v-208h-153v208h153zM451 1896v-208h-154v208h154z" />
    <glyph glyph-name="Igrave" unicode="&#xcc;" horiz-adv-x="444" 
d="M307 1479v-1479h-170v1479h170zM240 1980l159 -307h-92l-260 307h193z" />
    <glyph glyph-name="Iacute" unicode="&#xcd;" horiz-adv-x="444" 
d="M307 1479v-1479h-170v1479h170zM430 1980l-262 -307h-90l160 307h192z" />
    <glyph glyph-name="Icircumflex" unicode="&#xce;" horiz-adv-x="444" 
d="M223 1804l-139 -196h-90l149 307h160l150 -307h-91zM307 1479v-1479h-170v1479h170z" />
    <glyph glyph-name="Idieresis" unicode="&#xcf;" horiz-adv-x="444" 
d="M307 1479v-1479h-170v1479h170zM485 1896v-208h-153v208h153zM117 1896v-208h-154v208h154z" />
    <glyph glyph-name="Eth" unicode="&#xd0;" horiz-adv-x="1347" 
d="M618 0h-481v686h-137v150h137v643h492q307 0 471 -215q166 -214 166 -525t-170 -526q-171 -213 -478 -213zM651 836v-150h-344v-539h287q246 0 371 168q127 171 127 424t-123 422q-122 168 -367 168h-295v-493h344z" />
    <glyph glyph-name="Ntilde" unicode="&#xd1;" horiz-adv-x="1382" 
d="M1094 1479h149v-1479h-207l-741 1229h-8v-1229h-150v1479h207l741 -1229h9v1229zM586 1784q-67 0 -125 -94l-68 47q44 93 86.5 131.5t108.5 38.5q58 0 117 -47q60 -45 90 -45q64 0 123 90l67 -43q-44 -95 -85.5 -133.5t-106.5 -38.5q-59 0 -121 47t-86 47z" />
    <glyph glyph-name="Ograve" unicode="&#xd2;" horiz-adv-x="1492" 
d="M1411 739q0 -346 -178 -557t-488 -211q-309 0 -487 211q-176 212 -176 557q0 344 178 555q180 213 485 213q306 0 486 -213q180 -210 180 -555zM1237 739q0 273 -129 445q-128 174 -363 174q-232 0 -360 -174q-129 -172 -129 -445q0 -275 129 -448q129 -172 360 -172
q234 0 363 172q129 173 129 448zM762 1980l160 -307h-93l-260 307h193z" />
    <glyph glyph-name="Oacute" unicode="&#xd3;" horiz-adv-x="1492" 
d="M1411 739q0 -346 -178 -557t-488 -211q-309 0 -487 211q-176 212 -176 557q0 344 178 555q180 213 485 213q306 0 486 -213q180 -210 180 -555zM1237 739q0 273 -129 445q-128 174 -363 174q-232 0 -360 -174q-129 -172 -129 -445q0 -275 129 -448q129 -172 360 -172
q234 0 363 172q129 173 129 448zM952 1980l-262 -307h-90l160 307h192z" />
    <glyph glyph-name="Ocircumflex" unicode="&#xd4;" horiz-adv-x="1492" 
d="M1411 739q0 -346 -178 -557t-488 -211q-309 0 -487 211q-176 212 -176 557q0 344 178 555q180 213 485 213q306 0 486 -213q180 -210 180 -555zM1237 739q0 273 -129 445q-128 174 -363 174q-232 0 -360 -174q-129 -172 -129 -445q0 -275 129 -448q129 -172 360 -172
q234 0 363 172q129 173 129 448zM745 1870l-180 -197h-90l191 307h159l191 -307h-90z" />
    <glyph glyph-name="Otilde" unicode="&#xd5;" horiz-adv-x="1492" 
d="M1411 739q0 -346 -178 -557t-488 -211q-309 0 -487 211q-176 212 -176 557q0 344 178 555q180 213 485 213q306 0 486 -213q180 -210 180 -555zM1237 739q0 273 -129 445q-128 174 -363 174q-232 0 -360 -174q-129 -172 -129 -445q0 -275 129 -448q129 -172 360 -172
q234 0 363 172q129 173 129 448zM641 1784q-67 0 -125 -94l-67 47q44 93 86 131.5t108 38.5q58 0 117 -47q60 -45 90 -45q67 0 123 90l67 -43q-44 -95 -85.5 -133.5t-106.5 -38.5q-59 0 -121 47t-86 47z" />
    <glyph glyph-name="Odieresis" unicode="&#xd6;" horiz-adv-x="1492" 
d="M1411 739q0 -346 -178 -557t-488 -211q-309 0 -487 211q-176 212 -176 557q0 344 178 555q180 213 485 213q306 0 486 -213q180 -210 180 -555zM1237 739q0 273 -129 445q-128 174 -363 174q-232 0 -360 -174q-129 -172 -129 -445q0 -275 129 -448q129 -172 360 -172
q234 0 363 172q129 173 129 448zM1006 1896v-208h-154v208h154zM637 1896v-208h-154v208h154z" />
    <glyph glyph-name="multiply" unicode="&#xd7;" horiz-adv-x="1175" 
d="M166 334l336 342l-336 336l84 86l338 -336l325 319l84 -84l-321 -321l321 -324l-84 -86l-325 324l-338 -340z" />
    <glyph glyph-name="Oslash" unicode="&#xd8;" horiz-adv-x="1492" 
d="M348 100l-76 -100h-149l135 182q-176 206 -176 557q0 344 178 555q180 213 485 213q228 0 396 -131l76 103h153l-137 -187q178 -205 178 -553q0 -346 -178 -557t-488 -211q-238 0 -397 129zM1237 739q0 249 -109 414l-682 -924q119 -110 299 -110q234 0 363 172
q129 173 129 448zM256 739q0 -255 106 -415l682 925q-121 109 -299 109q-232 0 -360 -174q-129 -172 -129 -445z" />
    <glyph glyph-name="Ugrave" unicode="&#xd9;" horiz-adv-x="1323" 
d="M1063 481v998h147v-998q0 -240 -153 -375t-395 -135q-243 0 -396 135t-153 375v998h168v-998q0 -174 110 -268q113 -94 281 -94t278 94q113 94 113 268zM676 1980l160 -307h-93l-260 307h193z" />
    <glyph glyph-name="Uacute" unicode="&#xda;" horiz-adv-x="1323" 
d="M1063 481v998h147v-998q0 -240 -153 -375t-395 -135q-243 0 -396 135t-153 375v998h168v-998q0 -174 110 -268q113 -94 281 -94t278 94q113 94 113 268zM866 1980l-262 -307h-90l160 307h192z" />
    <glyph glyph-name="Ucircumflex" unicode="&#xdb;" horiz-adv-x="1323" 
d="M1063 481v998h147v-998q0 -240 -153 -375t-395 -135q-243 0 -396 135t-153 375v998h168v-998q0 -174 110 -268q113 -94 281 -94t278 94q113 94 113 268zM662 1870l-181 -197h-90l191 307h159l191 -307h-90z" />
    <glyph glyph-name="Udieresis" unicode="&#xdc;" horiz-adv-x="1323" 
d="M1063 481v998h147v-998q0 -240 -153 -375t-395 -135q-243 0 -396 135t-153 375v998h168v-998q0 -174 110 -268q113 -94 281 -94t278 94q113 94 113 268zM922 1896v-208h-154v208h154zM553 1896v-208h-154v208h154z" />
    <glyph glyph-name="Yacute" unicode="&#xdd;" horiz-adv-x="1191" 
d="M993 1479h168l-481 -893v-586h-170v586l-479 893h192l385 -717zM803 1980l-262 -307h-90l159 307h193z" />
    <glyph glyph-name="Thorn" unicode="&#xde;" horiz-adv-x="1210" 
d="M137 0v1479h170v-215h301q249 0 392 -126.5t143 -342.5q0 -217 -144 -349q-144 -129 -389 -129h-303v-317h-170zM967 801q0 142 -90 227.5t-261 85.5h-309v-647h309q171 0 261 96q90 101 90 238z" />
    <glyph glyph-name="germandbls" unicode="&#xdf;" horiz-adv-x="1196" 
d="M479 281l142 -19q-13 -33 -13 -59q0 -49 34 -77t89 -28q117 0 177.5 78.5t60.5 226.5q0 316 -410 316v127q146 7 219.5 82t73.5 207q0 101 -63 162t-187 61q-115 0 -183.5 -87t-68.5 -263v-1008h-153v1008q0 237 106.5 368t298.5 131q195 0 301.5 -97.5t106.5 -256.5
q0 -283 -258 -348q171 -12 273.5 -121.5t102.5 -280.5q0 -202 -100 -315t-293 -113q-123 0 -196.5 61.5t-73.5 160.5q0 46 14 84z" />
    <glyph glyph-name="agrave" unicode="&#xe0;" horiz-adv-x="1042" 
d="M391 78q132 0 215.5 99t87.5 284q-141 0 -237.5 -17t-145 -49t-67.5 -68t-19 -83q0 -69 47.5 -117.5t118.5 -48.5zM975 137l55 -69q-43 -56 -74 -76.5t-79 -20.5q-145 0 -154 199q-114 -199 -369 -199q-127 0 -204.5 73t-77.5 187q0 330 622 330q4 102 4 105
q-1 101 -54.5 143.5t-172.5 42.5q-105 0 -167 -51t-66 -148l-132 23q0 146 115 217q119 72 264 72q371 0 371 -299q0 -64 -6 -234q-4 -226 -4 -248q0 -94 55 -94q33 0 74 47zM502 1440l160 -307h-93l-260 307h193z" />
    <glyph glyph-name="aacute" unicode="&#xe1;" horiz-adv-x="1042" 
d="M391 78q132 0 215.5 99t87.5 284q-141 0 -237.5 -17t-145 -49t-67.5 -68t-19 -83q0 -69 47.5 -117.5t118.5 -48.5zM975 137l55 -69q-43 -56 -74 -76.5t-79 -20.5q-145 0 -154 199q-114 -199 -369 -199q-127 0 -204.5 73t-77.5 187q0 330 622 330q4 102 4 105
q-1 101 -54.5 143.5t-172.5 42.5q-105 0 -167 -51t-66 -148l-132 23q0 146 115 217q119 72 264 72q371 0 371 -299q0 -64 -6 -234q-4 -226 -4 -248q0 -94 55 -94q33 0 74 47zM723 1440l-262 -307h-90l159 307h193z" />
    <glyph glyph-name="acircumflex" unicode="&#xe2;" horiz-adv-x="1042" 
d="M391 78q132 0 215.5 99t87.5 284q-141 0 -237.5 -17t-145 -49t-67.5 -68t-19 -83q0 -69 47.5 -117.5t118.5 -48.5zM975 137l55 -69q-43 -56 -74 -76.5t-79 -20.5q-145 0 -154 199q-114 -199 -369 -199q-127 0 -204.5 73t-77.5 187q0 330 622 330q4 102 4 105
q-1 101 -54.5 143.5t-172.5 42.5q-105 0 -167 -51t-66 -148l-132 23q0 146 115 217q119 72 264 72q371 0 371 -299q0 -64 -6 -234q-4 -226 -4 -248q0 -94 55 -94q33 0 74 47zM514 1329l-180 -196h-90l190 307h160l190 -307h-90z" />
    <glyph glyph-name="atilde" unicode="&#xe3;" horiz-adv-x="1042" 
d="M391 78q132 0 215.5 99t87.5 284q-141 0 -237.5 -17t-145 -49t-67.5 -68t-19 -83q0 -69 47.5 -117.5t118.5 -48.5zM975 137l55 -69q-43 -56 -74 -76.5t-79 -20.5q-145 0 -154 199q-114 -199 -369 -199q-127 0 -204.5 73t-77.5 187q0 330 622 330q4 102 4 105
q-1 101 -54.5 143.5t-172.5 42.5q-105 0 -167 -51t-66 -148l-132 23q0 146 115 217q119 72 264 72q371 0 371 -299q0 -64 -6 -234q-4 -226 -4 -248q0 -94 55 -94q33 0 74 47zM397 1243q-67 0 -125 -94l-67 47q44 93 86 131.5t108 38.5q58 0 117 -47q60 -45 90 -45
q64 0 123 90l68 -43q-44 -94 -86 -133t-107 -39q-59 0 -121 47t-86 47z" />
    <glyph glyph-name="adieresis" unicode="&#xe4;" horiz-adv-x="1042" 
d="M391 78q132 0 215.5 99t87.5 284q-141 0 -237.5 -17t-145 -49t-67.5 -68t-19 -83q0 -69 47.5 -117.5t118.5 -48.5zM975 137l55 -69q-43 -56 -74 -76.5t-79 -20.5q-145 0 -154 199q-114 -199 -369 -199q-127 0 -204.5 73t-77.5 187q0 330 622 330q4 102 4 105
q-1 101 -54.5 143.5t-172.5 42.5q-105 0 -167 -51t-66 -148l-132 23q0 146 115 217q119 72 264 72q371 0 371 -299q0 -64 -6 -234q-4 -226 -4 -248q0 -94 55 -94q33 0 74 47zM776 1356v-209h-153v209h153zM408 1356v-209h-154v209h154z" />
    <glyph glyph-name="aring" unicode="&#xe5;" horiz-adv-x="1042" 
d="M391 78q132 0 215.5 99t87.5 284q-141 0 -237.5 -17t-145 -49t-67.5 -68t-19 -83q0 -69 47.5 -117.5t118.5 -48.5zM975 137l55 -69q-43 -56 -74 -76.5t-79 -20.5q-145 0 -154 199q-114 -199 -369 -199q-127 0 -204.5 73t-77.5 187q0 330 622 330q4 102 4 105
q-1 101 -54.5 143.5t-172.5 42.5q-105 0 -167 -51t-66 -148l-132 23q0 146 115 217q119 72 264 72q371 0 371 -299q0 -64 -6 -234q-4 -226 -4 -248q0 -94 55 -94q33 0 74 47zM516 1362q-33 0 -57.5 -23.5t-24.5 -58.5t24.5 -60.5t57.5 -25.5t57.5 25.5t24.5 60.5t-23.5 58.5
t-58.5 23.5zM516 1126q-66 0 -108.5 44t-42.5 110t42.5 109t108.5 43t108 -43t42 -109t-43.5 -110t-106.5 -44z" />
    <glyph glyph-name="ae" unicode="&#xe6;" horiz-adv-x="1597" 
d="M1524 438h-670q0 -161 72.5 -250.5t206.5 -89.5q111 0 165 49.5t72 161.5l137 -16q-17 -149 -115.5 -235.5t-258.5 -86.5q-261 0 -369 244q-130 -244 -410 -244q-127 0 -204.5 73t-77.5 187q0 324 622 324q4 102 4 111q-1 101 -54.5 143.5t-172.5 42.5q-105 0 -167 -51
t-66 -148l-132 23q0 146 115 217q119 72 264 72q252 0 320 -170q102 172 317 172q195 0 298.5 -137.5t103.5 -391.5zM391 78q78 0 150 43.5t114 120.5q36 62 39 215q-271 -3 -370 -60q-99 -55 -99 -153q0 -69 47.5 -117.5t118.5 -48.5zM1120 854q-123 0 -194.5 -75
t-71.5 -220h510q-4 141 -69 218t-175 77z" />
    <glyph glyph-name="ccedilla" unicode="&#xe7;" horiz-adv-x="956" 
d="M317 -328l19 62q47 -29 94 -29q90 0 90 66q0 69 -151 69l41 140q-163 29 -247.5 158t-84.5 331q0 229 110 363.5t316 134.5q163 0 266.5 -87.5t120.5 -236.5l-154 -16q-13 104 -75.5 161.5t-157.5 57.5q-132 0 -201.5 -99t-69.5 -278q0 -181 69.5 -280t201.5 -99
q95 0 157.5 57.5t75.5 161.5l154 -16q-17 -147 -119.5 -234t-263.5 -88l-25 -77q59 -2 99.5 -36t40.5 -89q0 -57 -46.5 -96.5t-123.5 -39.5q-74 0 -136 39z" />
    <glyph glyph-name="egrave" unicode="&#xe8;" horiz-adv-x="980" 
d="M907 436h-669q0 -155 74 -246.5t204 -91.5q105 0 168 54.5t70 156.5l137 -16q-17 -149 -116 -235.5t-259 -86.5q-212 0 -326 138q-112 136 -112 360q0 228 110 363t318 135q195 0 298 -138.5t103 -392.5zM504 854q-254 0 -266 -299h510q-4 141 -70.5 220t-173.5 79z
M506 1440l160 -307h-93l-260 307h193z" />
    <glyph glyph-name="eacute" unicode="&#xe9;" horiz-adv-x="980" 
d="M907 436h-669q0 -155 74 -246.5t204 -91.5q105 0 168 54.5t70 156.5l137 -16q-17 -149 -116 -235.5t-259 -86.5q-212 0 -326 138q-112 136 -112 360q0 228 110 363t318 135q195 0 298 -138.5t103 -392.5zM504 854q-254 0 -266 -299h510q-4 141 -70.5 220t-173.5 79z
M696 1440l-262 -307h-90l160 307h192z" />
    <glyph glyph-name="ecircumflex" unicode="&#xea;" horiz-adv-x="980" 
d="M907 436h-669q0 -155 74 -246.5t204 -91.5q105 0 168 54.5t70 156.5l137 -16q-17 -149 -116 -235.5t-259 -86.5q-212 0 -326 138q-112 136 -112 360q0 228 110 363t318 135q195 0 298 -138.5t103 -392.5zM504 854q-254 0 -266 -299h510q-4 141 -70.5 220t-173.5 79z
M489 1329l-180 -196h-90l191 307h159l191 -307h-90z" />
    <glyph glyph-name="edieresis" unicode="&#xeb;" horiz-adv-x="980" 
d="M907 436h-669q0 -155 74 -246.5t204 -91.5q105 0 168 54.5t70 156.5l137 -16q-17 -149 -116 -235.5t-259 -86.5q-212 0 -326 138q-112 136 -112 360q0 228 110 363t318 135q195 0 298 -138.5t103 -392.5zM504 854q-254 0 -266 -299h510q-4 141 -70.5 220t-173.5 79z
M752 1356v-209h-154v209h154zM383 1356v-209h-154v209h154z" />
    <glyph glyph-name="igrave" unicode="&#xec;" horiz-adv-x="399" 
d="M219 1440l160 -307h-92l-260 307h192zM276 938v-938h-153v938h153z" />
    <glyph glyph-name="iacute" unicode="&#xed;" horiz-adv-x="399" 
d="M410 1440l-263 -307h-90l160 307h193zM276 938v-938h-153v938h153z" />
    <glyph glyph-name="icircumflex" unicode="&#xee;" horiz-adv-x="368" 
d="M184 1329l-129 -196h-86l140 307h151l139 -307h-86zM262 938v-938h-153v938h153z" />
    <glyph glyph-name="idieresis" unicode="&#xef;" horiz-adv-x="399" 
d="M391 1356v-209h-145v209h145zM123 1356v-209h-143v209h143zM262 938v-938h-153v938h153z" />
    <glyph glyph-name="eth" unicode="&#xf0;" 
d="M422 1608h96v-131q122 -1 218 -47t156.5 -120t99.5 -176t54.5 -208t14.5 -224q0 -316 -100 -509q-55 -106 -151.5 -164t-229.5 -58q-210 0 -344 140q-130 142 -130 370q0 193 119 330q121 139 324 139q104 0 197 -41t141 -121q-9 149 -47 271q-36 116 -121 207
q-82 88 -201 88v-164h-96v149q-80 -19 -146 -79l-59 94q91 85 205 108v146zM274 481q0 -180 85.5 -281.5t220.5 -101.5q144 0 223 113q82 113 82 281q0 143 -88 241t-228 98q-132 0 -213 -100q-82 -98 -82 -250z" />
    <glyph glyph-name="ntilde" unicode="&#xf1;" horiz-adv-x="1056" 
d="M944 635v-635h-153v584q0 122 -48 184.5t-135 62.5q-119 0 -225 -100q-107 -98 -107 -244v-487h-153v938h149v-227q49 117 151.5 186.5t219.5 69.5q138 0 219.5 -88t81.5 -244zM422 1243q-67 0 -125 -94l-68 47q44 93 86.5 131.5t108.5 38.5q58 0 117 -47q60 -45 90 -45
q64 0 123 90l67 -43q-44 -95 -85.5 -133.5t-106.5 -38.5q-59 0 -121 47t-86 47z" />
    <glyph glyph-name="ograve" unicode="&#xf2;" horiz-adv-x="1050" 
d="M735 195q78 101 78 274q0 176 -78 272q-79 97 -211 97t-211 -97q-75 -93 -75 -272q0 -177 75 -274q79 -97 211 -97t211 97zM852 823q119 -143 119 -354t-119 -354q-117 -144 -328 -144q-209 0 -329 144q-117 144 -117 354q0 208 117 352q122 146 329 146q211 0 328 -144z
M541 1440l159 -307h-92l-260 307h193z" />
    <glyph glyph-name="oacute" unicode="&#xf3;" horiz-adv-x="1050" 
d="M735 195q78 101 78 274q0 176 -78 272q-79 97 -211 97t-211 -97q-75 -93 -75 -272q0 -177 75 -274q79 -97 211 -97t211 97zM852 823q119 -143 119 -354t-119 -354q-117 -144 -328 -144q-209 0 -329 144q-117 144 -117 354q0 208 117 352q122 146 329 146q211 0 328 -144z
M731 1440l-262 -307h-90l160 307h192z" />
    <glyph glyph-name="ocircumflex" unicode="&#xf4;" horiz-adv-x="1050" 
d="M735 195q78 101 78 274q0 176 -78 272q-79 97 -211 97t-211 -97q-75 -93 -75 -272q0 -177 75 -274q79 -97 211 -97t211 97zM852 823q119 -143 119 -354t-119 -354q-117 -144 -328 -144q-209 0 -329 144q-117 144 -117 354q0 208 117 352q122 146 329 146q211 0 328 -144z
M524 1329l-180 -196h-90l190 307h160l191 -307h-90z" />
    <glyph glyph-name="otilde" unicode="&#xf5;" horiz-adv-x="1050" 
d="M735 195q78 101 78 274q0 176 -78 272q-79 97 -211 97t-211 -97q-75 -93 -75 -272q0 -177 75 -274q79 -97 211 -97t211 97zM852 823q119 -143 119 -354t-119 -354q-117 -144 -328 -144q-209 0 -329 144q-117 144 -117 354q0 208 117 352q122 146 329 146q211 0 328 -144z
M420 1243q-67 0 -125 -94l-68 47q44 93 86.5 131.5t108.5 38.5q58 0 117 -47q60 -45 90 -45q67 0 123 90l67 -43q-44 -95 -85.5 -133.5t-106.5 -38.5q-59 0 -121 47t-86 47z" />
    <glyph glyph-name="odieresis" unicode="&#xf6;" horiz-adv-x="1050" 
d="M735 195q78 101 78 274q0 176 -78 272q-79 97 -211 97t-211 -97q-75 -93 -75 -272q0 -177 75 -274q79 -97 211 -97t211 97zM852 823q119 -143 119 -354t-119 -354q-117 -144 -328 -144q-209 0 -329 144q-117 144 -117 354q0 208 117 352q122 146 329 146q211 0 328 -144z
M784 1356v-209h-153v209h153zM416 1356v-209h-154v209h154z" />
    <glyph glyph-name="divide" unicode="&#xf7;" horiz-adv-x="1183" 
d="M694 254h-202v203h202v-203zM1040 735v-121h-895v121h895zM694 897h-202v203h202v-203z" />
    <glyph glyph-name="oslash" unicode="&#xf8;" horiz-adv-x="1050" 
d="M254 63l-53 -63h-119l102 127q-106 130 -106 342q0 208 117 352q122 146 329 146q155 0 271 -93l49 64h125l-107 -129q109 -139 109 -340q0 -211 -119 -354q-117 -144 -328 -144q-161 0 -270 92zM813 469q0 134 -47 223l-426 -524q73 -70 184 -70q136 0 212.5 97.5
t76.5 273.5zM238 469q0 -137 45 -223l424 524q-74 68 -183 68q-136 0 -211 -96.5t-75 -272.5z" />
    <glyph glyph-name="ugrave" unicode="&#xf9;" horiz-adv-x="1052" 
d="M930 938v-938h-148v223q-50 -116 -152.5 -184t-219.5 -68q-137 0 -217 87t-80 243v637h153v-586q0 -250 187 -250q113 0 219 103q104 104 104 241v492h154zM541 1440l159 -307h-92l-260 307h193z" />
    <glyph glyph-name="uacute" unicode="&#xfa;" horiz-adv-x="1052" 
d="M930 938v-938h-148v223q-50 -116 -152.5 -184t-219.5 -68q-137 0 -217 87t-80 243v637h153v-586q0 -250 187 -250q113 0 219 103q104 104 104 241v492h154zM731 1440l-262 -307h-90l160 307h192z" />
    <glyph glyph-name="ucircumflex" unicode="&#xfb;" horiz-adv-x="1052" 
d="M930 938v-938h-148v223q-50 -116 -152.5 -184t-219.5 -68q-137 0 -217 87t-80 243v637h153v-586q0 -250 187 -250q113 0 219 103q104 104 104 241v492h154zM524 1329l-180 -196h-90l190 307h160l191 -307h-90z" />
    <glyph glyph-name="udieresis" unicode="&#xfc;" horiz-adv-x="1052" 
d="M930 938v-938h-148v223q-50 -116 -152.5 -184t-219.5 -68q-137 0 -217 87t-80 243v637h153v-586q0 -250 187 -250q113 0 219 103q104 104 104 241v492h154zM786 1356v-209h-153v209h153zM418 1356v-209h-154v209h154z" />
    <glyph glyph-name="yacute" unicode="&#xfd;" horiz-adv-x="952" 
d="M35 938h166l327 -799l254 799h142l-322 -983q-64 -197 -129.5 -276.5t-179.5 -79.5q-75 0 -146 47q-67 46 -67 131q0 45 18 98q109 -14 142 -16q-17 -59 -17 -84q0 -35 23 -56.5t61 -21.5q88 0 146 248zM682 1440l-262 -307h-90l159 307h193z" />
    <glyph glyph-name="thorn" unicode="&#xfe;" horiz-adv-x="1075" 
d="M276 180v-565h-153v1864h153v-707q114 193 306 193q197 0 305 -144q110 -143 110 -352q0 -210 -108 -354t-293 -144q-115 0 -199 55.5t-121 153.5zM276 475q0 -168 76 -272.5t199 -104.5q130 0 208.5 99t78.5 278q0 176 -76 269.5t-207 93.5q-124 0 -201.5 -100
t-77.5 -263z" />
    <glyph glyph-name="ydieresis" unicode="&#xff;" horiz-adv-x="952" 
d="M35 938h166l327 -799l254 799h142l-322 -983q-64 -197 -129.5 -276.5t-179.5 -79.5q-75 0 -146 47q-67 46 -67 131q0 45 18 98q109 -14 142 -16q-17 -59 -17 -84q0 -35 23 -56.5t61 -21.5q88 0 146 248zM750 1356v-209h-154v209h154zM381 1356v-209h-154v209h154z" />
    <glyph glyph-name="Amacron" unicode="&#x100;" horiz-adv-x="1327" 
d="M1296 0h-182l-139 383h-645l-140 -383h-159l549 1479h168zM920 532l-269 732l-268 -732h537zM940 1868v-135h-555v135h555z" />
    <glyph glyph-name="amacron" unicode="&#x101;" horiz-adv-x="1042" 
d="M391 78q132 0 215.5 99t87.5 284q-141 0 -237.5 -17t-145 -49t-67.5 -68t-19 -83q0 -69 47.5 -117.5t118.5 -48.5zM975 137l55 -69q-43 -56 -74 -76.5t-79 -20.5q-145 0 -154 199q-114 -199 -369 -199q-127 0 -204.5 73t-77.5 187q0 330 622 330q4 102 4 105
q-1 101 -54.5 143.5t-172.5 42.5q-105 0 -167 -51t-66 -148l-132 23q0 146 115 217q119 72 264 72q371 0 371 -299q0 -64 -6 -234q-4 -226 -4 -248q0 -94 55 -94q33 0 74 47zM799 1327v-135h-555v135h555z" />
    <glyph glyph-name="Aogonek" unicode="&#x104;" horiz-adv-x="1327" 
d="M580 1479h168l548 -1479q-81 -38 -134.5 -91.5t-53.5 -96.5q0 -64 78 -64q48 0 104 33l25 -55q-84 -66 -189 -66q-67 0 -105 39t-38 102q0 117 131 199l-139 383h-645l-140 -383h-159zM920 532l-269 732l-268 -732h537z" />
    <glyph glyph-name="aogonek" unicode="&#x105;" horiz-adv-x="1042" 
d="M975 137l55 -69q-26 -33 -94 -80q-79 -56 -119.5 -96.5t-40.5 -79.5q0 -64 80 -64q49 0 105 33l24 -55q-76 -64 -188 -64q-68 0 -106 38t-38 101q0 117 152 191q-46 27 -63.5 63t-18.5 115q-114 -199 -369 -199q-128 0 -205 73.5t-77 186.5q0 330 622 330q4 102 4 105
q0 102 -53 144t-174 42q-105 0 -167 -51t-66 -148l-132 23q0 146 115 217q119 72 264 72q371 0 371 -299q0 -64 -6 -234q-4 -226 -4 -248q0 -94 55 -94q33 0 74 47zM391 78q78 0 150 43.5t114 120.5q36 65 39 219q-141 0 -237.5 -17t-145 -49t-67.5 -68t-19 -83
q0 -69 47.5 -117.5t118.5 -48.5z" />
    <glyph glyph-name="Cacute" unicode="&#x106;" horiz-adv-x="1333" 
d="M705 1507q195 0 356 -108q87 -57 141.5 -168t61.5 -260l-174 -23q-12 208 -115 309t-270 101q-447 0 -447 -627q0 -304 114 -458t330 -154q165 0 271.5 112.5t118.5 317.5l176 -23q-15 -268 -183 -413q-165 -142 -383 -142q-290 0 -454 201t-164 559q0 349 158 563
q160 213 463 213zM934 1980l-262 -307h-90l159 307h193z" />
    <glyph glyph-name="cacute" unicode="&#x107;" horiz-adv-x="956" 
d="M504 90q95 0 157.5 57.5t75.5 161.5l154 -16q-17 -149 -120.5 -235.5t-266.5 -86.5q-209 0 -317.5 133t-108.5 365q0 229 110 363.5t316 134.5q163 0 266.5 -87.5t120.5 -236.5l-154 -16q-13 104 -75.5 161.5t-157.5 57.5q-132 0 -201.5 -99t-69.5 -278q0 -181 69.5 -280
t201.5 -99zM731 1440l-262 -307h-90l160 307h192z" />
    <glyph glyph-name="Ccaron" unicode="&#x10c;" horiz-adv-x="1333" 
d="M705 1507q195 0 356 -108q87 -57 141.5 -168t61.5 -260l-174 -23q-12 208 -115 309t-270 101q-447 0 -447 -627q0 -304 114 -458t330 -154q165 0 271.5 112.5t118.5 317.5l176 -23q-15 -268 -183 -413q-165 -142 -383 -142q-290 0 -454 201t-164 559q0 349 158 563
q160 213 463 213zM616 1673l-190 307h90l180 -196l181 196h90l-191 -307h-160z" />
    <glyph glyph-name="ccaron" unicode="&#x10d;" horiz-adv-x="956" 
d="M504 90q95 0 157.5 57.5t75.5 161.5l154 -16q-17 -149 -120.5 -235.5t-266.5 -86.5q-209 0 -317.5 133t-108.5 365q0 229 110 363.5t316 134.5q163 0 266.5 -87.5t120.5 -236.5l-154 -16q-13 104 -75.5 161.5t-157.5 57.5q-132 0 -201.5 -99t-69.5 -278q0 -181 69.5 -280
t201.5 -99zM428 1133l-190 307h90l180 -197l180 197h90l-190 -307h-160z" />
    <glyph glyph-name="Dcaron" unicode="&#x10e;" horiz-adv-x="1347" 
d="M618 0h-481v1479h492q307 0 471 -215q166 -214 166 -525t-170 -526q-171 -213 -478 -213zM602 1329h-295v-1182h287q246 0 371 168q127 171 127 424t-123 422q-122 168 -367 168zM532 1673l-190 307h90l180 -196l181 196h90l-191 -307h-160z" />
    <glyph glyph-name="dcaron" unicode="&#x10f;" horiz-adv-x="1415" 
d="M952 1479v-1479h-153v166q-103 -195 -310 -195q-195 0 -303 144t-108 354q0 212 104 352q108 144 293 144q242 0 324 -211v725h153zM799 463q0 170 -77 272.5t-202 102.5q-132 0 -208 -97t-76 -278q0 -177 75 -271t205 -94q128 0 205.5 100t77.5 265zM1147 1479h188
q17 -112 17 -189q0 -175 -197 -295l-41 74q72 43 101.5 90t29.5 119h-98v201z" />
    <glyph glyph-name="Dcroat" unicode="&#x110;" horiz-adv-x="1347" 
d="M618 0h-481v686h-137v150h137v643h492q307 0 471 -215q166 -214 166 -525t-170 -526q-171 -213 -478 -213zM651 836v-150h-344v-539h287q246 0 371 168q127 171 127 424t-123 422q-122 168 -367 168h-295v-493h344z" />
    <glyph glyph-name="dslash" unicode="&#x111;" horiz-adv-x="1075" 
d="M952 1214v-1214h-153v166q-103 -195 -310 -195q-195 0 -303 144t-108 354q0 212 104 352q108 144 293 144q242 0 324 -211v460h-338v144h338v121h153v-121h133v-144h-133zM799 463q0 170 -77 272.5t-202 102.5q-132 0 -208 -97t-76 -278q0 -177 75 -271t205 -94
q128 0 205.5 100t77.5 265z" />
    <glyph glyph-name="Emacron" unicode="&#x112;" horiz-adv-x="1116" 
d="M307 147h737v-147h-907v1479h891v-150h-721v-493h664v-150h-664v-539zM834 1868v-135h-555v135h555z" />
    <glyph glyph-name="emacron" unicode="&#x113;" horiz-adv-x="980" 
d="M907 436h-669q0 -155 74 -246.5t204 -91.5q105 0 168 54.5t70 156.5l137 -16q-17 -149 -116 -235.5t-259 -86.5q-212 0 -326 138q-112 136 -112 360q0 228 110 363t318 135q195 0 298 -138.5t103 -392.5zM504 854q-254 0 -266 -299h510q-4 141 -70.5 220t-173.5 79z
M768 1327v-135h-555v135h555z" />
    <glyph glyph-name="Edotaccent" unicode="&#x116;" horiz-adv-x="1116" 
d="M307 147h737v-147h-907v1479h891v-150h-721v-493h664v-150h-664v-539zM635 1913v-225h-154v225h154z" />
    <glyph glyph-name="edotaccent" unicode="&#x117;" horiz-adv-x="980" 
d="M907 436h-669q0 -155 74 -246.5t204 -91.5q105 0 168 54.5t70 156.5l137 -16q-17 -149 -116 -235.5t-259 -86.5q-212 0 -326 138q-112 136 -112 360q0 228 110 363t318 135q195 0 298 -138.5t103 -392.5zM504 854q-254 0 -266 -299h510q-4 141 -70.5 220t-173.5 79z
M567 1372v-225h-153v225h153z" />
    <glyph glyph-name="Eogonek" unicode="&#x118;" horiz-adv-x="1116" 
d="M877 0h-740v1473h862v-150h-692v-487h678v-150h-678v-539h737v-147q-86 -25 -146 -83t-60 -105q0 -64 77 -64q45 0 105 31q16 -22 24 -53q-80 -68 -188 -68q-67 0 -105 39t-38 102q0 54 43 109t121 92z" />
    <glyph glyph-name="eogonek" unicode="&#x119;" horiz-adv-x="980" 
d="M907 436h-669q0 -161 72 -249.5t206 -88.5q111 0 166 49.5t72 161.5l137 -16q-27 -227 -221 -295q-75 -39 -126.5 -92t-51.5 -94q0 -64 77 -64q49 0 105 33l24 -55q-84 -66 -188 -66q-66 0 -103.5 38t-37.5 97q0 110 118 185q-205 17 -307 142t-102 347q0 228 110 363
t318 135q195 0 298 -138.5t103 -392.5zM504 854q-254 0 -266 -299h510q-4 141 -70.5 220t-173.5 79z" />
    <glyph glyph-name="Ecaron" unicode="&#x11a;" horiz-adv-x="1116" 
d="M307 147h737v-147h-907v1479h891v-150h-721v-493h664v-150h-664v-539zM477 1673l-190 307h90l180 -196l180 196h90l-190 -307h-160z" />
    <glyph glyph-name="ecaron" unicode="&#x11b;" horiz-adv-x="980" 
d="M907 436h-669q0 -155 74 -246.5t204 -91.5q105 0 168 54.5t70 156.5l137 -16q-17 -149 -116 -235.5t-259 -86.5q-212 0 -326 138q-112 136 -112 360q0 228 110 363t318 135q195 0 298 -138.5t103 -392.5zM504 854q-254 0 -266 -299h510q-4 141 -70.5 220t-173.5 79z
M410 1133l-191 307h90l180 -197l181 197h90l-191 -307h-159z" />
    <glyph glyph-name="Gcommaaccent" unicode="&#x122;" horiz-adv-x="1411" 
d="M702 119q108 0 216 59.5t182 155.5v184h-312v152h486v-670h-96l-45 172q-198 -201 -431 -201q-290 0 -454 201t-164 559q0 349 158 563q160 213 463 213q75 0 145 -14.5t143 -52t127.5 -96t91.5 -154.5t43 -219l-174 -23q-12 211 -111 310.5t-265 99.5q-447 0 -447 -627
q0 -304 114 -458t330 -154zM604 -109h189q16 -101 16 -184q0 -164 -197 -272l-20 35l-21 38q134 72 134 183h-101v200z" />
    <glyph glyph-name="gcommaaccent" unicode="&#x123;" horiz-adv-x="1071" 
d="M575 299q-211 0 -305 129q-75 -24 -75 -117q0 -90 75 -116q76 -27 285 -27q195 0 309.5 -68.5t114.5 -201.5q0 -144 -119 -225t-352 -81q-226 0 -338.5 73t-112.5 202q0 65 54.5 126t142.5 87q-80 20 -128 86t-48 149q0 180 139 236q-10 38 -10 82q0 152 97 243t271 91
q179 0 279 -103q51 26 51 99v65h135v-65q0 -57 -38.5 -109.5t-92.5 -65.5q33 -65 33 -155q0 -156 -96 -245t-271 -89zM186 -131q0 -80 77.5 -115t244.5 -35q171 0 250.5 35.5t79.5 114.5t-75 114t-247 35q-170 0 -250 -35.5t-80 -113.5zM575 412q222 0 222 221t-222 221
q-221 0 -221 -221t221 -221zM696 1026h-188q-16 101 -16 184q0 165 196 273q0 -1 2 -4.5t7 -12t10 -18.5q14 -23 22 -39q-133 -71 -133 -182h100v-201z" />
    <glyph glyph-name="Imacron" unicode="&#x12a;" horiz-adv-x="444" 
d="M307 1479v-1479h-170v1479h170zM442 1868v-135h-440v135h440z" />
    <glyph glyph-name="imacron" unicode="&#x12b;" horiz-adv-x="399" 
d="M397 1327v-135h-395v135h395zM276 938v-938h-153v938h153z" />
    <glyph glyph-name="Iogonek" unicode="&#x12e;" horiz-adv-x="444" 
d="M137 1479h170v-1479q-81 -38 -134.5 -91.5t-53.5 -96.5q0 -64 78 -64q48 0 104 33l25 -55q-84 -66 -189 -66q-67 0 -104 39t-37 102q0 53 37 107.5t104 91.5v1479z" />
    <glyph glyph-name="iogonek" unicode="&#x12f;" horiz-adv-x="399" 
d="M276 1372v-225h-153v225h153zM123 938h153v-938q-80 -39 -134 -92.5t-54 -95.5q0 -64 78 -64q54 0 104 33q25 -50 27 -55q-84 -66 -188 -66q-66 0 -104 38t-38 95q0 59 38 115t118 92v938z" />
    <glyph glyph-name="dotlessi" unicode="&#x131;" horiz-adv-x="399" 
d="M276 938v-938h-153v938h153z" />
    <glyph glyph-name="Kcommaaccent" unicode="&#x136;" horiz-adv-x="1273" 
d="M659 887l553 -887h-198l-475 758l-232 -250v-508h-170v1479h170v-750l697 750h204zM524 -109h189q16 -101 16 -184q0 -164 -197 -272q0 2 -20 35l-20 38q133 71 133 183h-101v200z" />
    <glyph glyph-name="kcommaaccent" unicode="&#x137;" horiz-adv-x="976" 
d="M545 569l393 -569h-190l-318 455l-154 -148v-307h-153v1479h153v-996l451 455h193zM401 -109h189q16 -101 16 -184q0 -164 -196 -272q0 1 -21 35l-20 38q133 71 133 183h-101v200z" />
    <glyph glyph-name="Lacute" unicode="&#x139;" horiz-adv-x="1042" 
d="M137 1473h170v-1326h707v-147h-877v1473zM655 1980l-262 -307h-90l160 307h192z" />
    <glyph glyph-name="lacute" unicode="&#x13a;" horiz-adv-x="399" 
d="M276 1479v-1479h-153v1479h153zM455 1980l-262 -307h-91l160 307h193z" />
    <glyph glyph-name="Lcommaaccent" unicode="&#x13b;" horiz-adv-x="1042" 
d="M137 1473h170v-1326h707v-147h-877v1473zM463 -109h188q17 -107 17 -184q0 -164 -197 -272q0 2 -20 35l-21 38q133 71 133 183h-100v200z" />
    <glyph glyph-name="lcommaaccent" unicode="&#x13c;" horiz-adv-x="399" 
d="M276 1479v-1479h-153v1479h153zM104 -111h189q16 -101 16 -184q0 -164 -196 -272l-21 35l-20 38q133 71 133 183h-101v200z" />
    <glyph glyph-name="Lcaron" unicode="&#x13d;" horiz-adv-x="1042" 
d="M137 1473h170v-1326h707v-147h-877v1473zM612 1475h189q16 -106 16 -189q0 -175 -196 -295l-41 74q72 43 101.5 90t29.5 119h-99v201z" />
    <glyph glyph-name="lcaron" unicode="&#x13e;" horiz-adv-x="772" 
d="M276 1479v-1479h-153v1479h153zM492 1479h188q16 -106 16 -189q0 -175 -196 -295l-41 74q72 43 101.5 90t29.5 119h-98v201z" />
    <glyph glyph-name="Lslash" unicode="&#x141;" horiz-adv-x="1042" 
d="M653 920l41 -107l-387 -149v-517h707v-147h-877v600l-141 -55l-41 108l182 70v756h170v-693z" />
    <glyph glyph-name="lslash" unicode="&#x142;" horiz-adv-x="399" 
d="M276 653v-653h-153v594l-127 -49l-39 106l166 64v821h153v-764l127 49l41 -104z" />
    <glyph glyph-name="Nacute" unicode="&#x143;" horiz-adv-x="1382" 
d="M1094 1479h149v-1479h-207l-741 1229h-8v-1229h-150v1479h207l741 -1229h9v1229zM928 1980l-262 -307h-91l160 307h193z" />
    <glyph glyph-name="nacute" unicode="&#x144;" horiz-adv-x="1056" 
d="M944 635v-635h-153v584q0 122 -48 184.5t-135 62.5q-119 0 -225 -100q-107 -98 -107 -244v-487h-153v938h149v-227q49 117 151.5 186.5t219.5 69.5q138 0 219.5 -88t81.5 -244zM764 1440l-262 -307h-90l159 307h193z" />
    <glyph glyph-name="Ncommaaccent" unicode="&#x145;" horiz-adv-x="1382" 
d="M1094 1479h149v-1479h-207l-741 1229h-8v-1229h-150v1479h207l741 -1229h9v1229zM586 -109h188q17 -107 17 -184q0 -164 -197 -272q0 1 -21 35l-20 38q133 71 133 183h-100v200z" />
    <glyph glyph-name="ncommaaccent" unicode="&#x146;" horiz-adv-x="1056" 
d="M944 635v-635h-153v584q0 122 -48 184.5t-135 62.5q-119 0 -225 -100q-107 -98 -107 -244v-487h-153v938h149v-227q49 117 151.5 186.5t219.5 69.5q138 0 219.5 -88t81.5 -244zM442 -109h189q16 -101 16 -184q0 -164 -196 -272q0 1 -21 35l-20 38q133 71 133 183h-101
v200z" />
    <glyph glyph-name="Ncaron" unicode="&#x147;" horiz-adv-x="1382" 
d="M1094 1479h149v-1479h-207l-741 1229h-8v-1229h-150v1479h207l741 -1229h9v1229zM610 1673l-190 307h90l180 -196l180 196h91l-191 -307h-160z" />
    <glyph glyph-name="ncaron" unicode="&#x148;" horiz-adv-x="1056" 
d="M944 635v-635h-153v584q0 122 -48 184.5t-135 62.5q-119 0 -225 -100q-107 -98 -107 -244v-487h-153v938h149v-227q49 117 151.5 186.5t219.5 69.5q138 0 219.5 -88t81.5 -244zM446 1133l-190 307h90l180 -197l181 197h90l-191 -307h-160z" />
    <glyph glyph-name="Omacron" unicode="&#x14c;" horiz-adv-x="1492" 
d="M1411 739q0 -346 -178 -557t-488 -211q-309 0 -487 211q-176 212 -176 557q0 344 178 555q180 213 485 213q306 0 486 -213q180 -210 180 -555zM1237 739q0 273 -129 445q-128 174 -363 174q-232 0 -360 -174q-129 -172 -129 -445q0 -275 129 -448q129 -172 360 -172
q234 0 363 172q129 173 129 448zM1024 1868v-135h-555v135h555z" />
    <glyph glyph-name="omacron" unicode="&#x14d;" horiz-adv-x="1050" 
d="M735 195q78 101 78 274q0 176 -78 272q-79 97 -211 97t-211 -97q-75 -93 -75 -272q0 -177 75 -274q79 -97 211 -97t211 97zM852 823q119 -143 119 -354t-119 -354q-117 -144 -328 -144q-209 0 -329 144q-117 144 -117 354q0 208 117 352q122 146 329 146q211 0 328 -144z
M803 1327v-135h-555v135h555z" />
    <glyph glyph-name="Ohungarumlaut" unicode="&#x150;" horiz-adv-x="1492" 
d="M1411 739q0 -346 -178 -557t-488 -211q-309 0 -487 211q-176 212 -176 557q0 344 178 555q180 213 485 213q306 0 486 -213q180 -210 180 -555zM1237 739q0 273 -129 445q-128 174 -363 174q-232 0 -360 -174q-129 -172 -129 -445q0 -275 129 -448q129 -172 360 -172
q234 0 363 172q129 173 129 448zM868 1980l-260 -307h-92l160 307h192zM1186 1980l-260 -307h-92l159 307h193z" />
    <glyph glyph-name="ohungarumlaut" unicode="&#x151;" horiz-adv-x="1050" 
d="M735 195q78 101 78 274q0 176 -78 272q-79 97 -211 97t-211 -97q-75 -93 -75 -272q0 -177 75 -274q79 -97 211 -97t211 97zM852 823q119 -143 119 -354t-119 -354q-117 -144 -328 -144q-209 0 -329 144q-117 144 -117 354q0 208 117 352q122 146 329 146q211 0 328 -144z
M647 1440l-260 -307h-92l160 307h192zM965 1440l-260 -307h-93l160 307h193z" />
    <glyph glyph-name="OE" unicode="&#x152;" horiz-adv-x="2217" 
d="M1407 147h739v-147h-909v227q-170 -256 -492 -256q-309 0 -487 211q-176 212 -176 557q0 344 178 555q180 213 485 213q323 0 492 -260v232h893v-150h-723v-493h664v-150h-664v-539zM1237 739q0 273 -129 445q-128 174 -363 174q-232 0 -360 -174q-129 -172 -129 -445
q0 -275 129 -448q129 -172 360 -172q234 0 363 172q129 173 129 448z" />
    <glyph glyph-name="oe" unicode="&#x153;" horiz-adv-x="1714" 
d="M1640 436h-669q0 -157 73 -247.5t205 -90.5q111 0 166 49.5t72 161.5l137 -16q-17 -149 -116 -235.5t-259 -86.5q-249 0 -364 207q-115 -207 -361 -207q-209 0 -329 144q-117 144 -117 354q0 208 117 352q122 146 329 146q241 0 361 -209q111 209 354 209
q195 0 298 -138.5t103 -392.5zM813 465q0 177 -76.5 275t-212.5 98t-211 -96.5t-75 -272.5q0 -177 75.5 -274t210.5 -97t212 97t77 270zM1237 854q-254 0 -266 -299h510q-4 141 -70.5 220t-173.5 79z" />
    <glyph glyph-name="Racute" unicode="&#x154;" horiz-adv-x="1298" 
d="M1143 1051q0 -159 -86.5 -261.5t-241.5 -127.5q116 -23 173.5 -81.5t94.5 -191.5q11 -34 25 -104l29 -115q36 -116 80 -170h-209l-101 373q-33 120 -102.5 164.5t-183.5 44.5h-314v-582h-170v1479h484q244 0 383 -114.5t139 -313.5zM307 1329v-598h328q166 0 252 80.5
t86 218.5t-86 218.5t-252 80.5h-328zM854 1980l-262 -307h-90l160 307h192z" />
    <glyph glyph-name="racute" unicode="&#x155;" horiz-adv-x="782" 
d="M281 352v-352h-158v938h158v-281q94 304 286 304q91 0 141 -51.5t50 -143.5q0 -65 -31 -135l-133 16q27 53 27 98q0 39 -22.5 65t-57.5 26q-107 0 -183 -166q-77 -165 -77 -318zM598 1440l-262 -307h-90l160 307h192z" />
    <glyph glyph-name="Rcommaaccent" unicode="&#x156;" horiz-adv-x="1298" 
d="M1143 1051q0 -159 -86.5 -261.5t-241.5 -127.5q116 -23 173.5 -81.5t94.5 -191.5q11 -34 25 -104l29 -115q36 -116 80 -170h-209l-101 373q-33 120 -102.5 164.5t-183.5 44.5h-314v-582h-170v1479h484q244 0 383 -114.5t139 -313.5zM307 1329v-598h328q166 0 252 80.5
t86 218.5t-86 218.5t-252 80.5h-328zM545 -109h188q17 -107 17 -184q0 -164 -197 -272q0 1 -21 35l-20 38q133 71 133 183h-100v200z" />
    <glyph glyph-name="rcommaaccent" unicode="&#x157;" horiz-adv-x="782" 
d="M281 352v-352h-158v938h158v-281q94 304 286 304q91 0 141 -51.5t50 -143.5q0 -65 -31 -135l-133 16q27 53 27 98q0 39 -22.5 65t-57.5 26q-107 0 -183 -166q-77 -165 -77 -318zM115 -109h188q16 -101 16 -184q0 -164 -196 -272q0 1 -21 35l-20 38q133 71 133 183h-100
v200z" />
    <glyph glyph-name="Rcaron" unicode="&#x158;" horiz-adv-x="1298" 
d="M1143 1051q0 -159 -86.5 -261.5t-241.5 -127.5q116 -23 173.5 -81.5t94.5 -191.5q11 -34 25 -104l29 -115q36 -116 80 -170h-209l-101 373q-33 120 -102.5 164.5t-183.5 44.5h-314v-582h-170v1479h484q244 0 383 -114.5t139 -313.5zM307 1329v-598h328q166 0 252 80.5
t86 218.5t-86 218.5t-252 80.5h-328zM526 1673l-190 307h90l180 -196l180 196h91l-191 -307h-160z" />
    <glyph glyph-name="rcaron" unicode="&#x159;" horiz-adv-x="782" 
d="M281 352v-352h-158v938h158v-281q94 304 286 304q91 0 141 -51.5t50 -143.5q0 -65 -31 -135l-133 16q27 53 27 98q0 39 -22.5 65t-57.5 26q-107 0 -183 -166q-77 -165 -77 -318zM309 1133l-190 307h90l180 -197l180 197h90l-190 -307h-160z" />
    <glyph glyph-name="Sacute" unicode="&#x15a;" horiz-adv-x="1208" 
d="M1147 406q0 -92 -31 -167t-83 -124t-121.5 -82.5t-142.5 -47.5t-151 -14q-85 0 -144 8.5t-132 36.5q-254 90 -281 469l170 17q15 -238 134 -318q56 -36 114 -50.5t139 -14.5q163 0 261 71t98 216q0 60 -29.5 104.5t-79.5 71t-114.5 47t-136 38t-143 37t-136 51t-114.5 74
t-79.5 110.5t-29.5 157q0 196 143 303q144 108 336 108q247 0 371.5 -116.5t148.5 -352.5l-170 -16q-21 203 -108 266q-89 68 -242 68q-127 0 -219 -62q-92 -59 -92 -198q0 -63 29.5 -108.5t79.5 -72t115 -45.5t136.5 -34.5t143 -33.5t136.5 -48.5t115 -72.5t79.5 -112.5
t29.5 -162.5zM817 1980l-262 -307h-90l160 307h192z" />
    <glyph glyph-name="sacute" unicode="&#x15b;" horiz-adv-x="901" 
d="M831 256q0 -135 -98 -210t-272 -75q-157 0 -266 64q-118 73 -127 280l147 15q15 -246 248 -246q100 0 158.5 47t58.5 127q0 43 -24.5 72t-65 42.5t-92 26t-105.5 21t-105.5 28t-92 46.5t-65 78.5t-24.5 121.5q0 129 93 201t250 72q341 0 362 -308l-147 -14
q-15 209 -220 209q-81 0 -134.5 -39t-53.5 -121q0 -56 53.5 -87.5t149.5 -51.5q38 -8 56.5 -12t55.5 -13t58 -17t52 -22t49.5 -28.5t40 -36t33 -46t19.5 -56t8 -68.5zM657 1440l-262 -307h-90l160 307h192z" />
    <glyph glyph-name="Scaron" unicode="&#x160;" horiz-adv-x="1208" 
d="M1147 406q0 -92 -31 -167t-83 -124t-121.5 -82.5t-142.5 -47.5t-151 -14q-85 0 -144 8.5t-132 36.5q-254 90 -281 469l170 17q15 -238 134 -318q56 -36 114 -50.5t139 -14.5q163 0 261 71t98 216q0 60 -29.5 104.5t-79.5 71t-114.5 47t-136 38t-143 37t-136 51t-114.5 74
t-79.5 110.5t-29.5 157q0 196 143 303q144 108 336 108q247 0 371.5 -116.5t148.5 -352.5l-170 -16q-21 203 -108 266q-89 68 -242 68q-127 0 -219 -62q-92 -59 -92 -198q0 -63 29.5 -108.5t79.5 -72t115 -45.5t136.5 -34.5t143 -33.5t136.5 -48.5t115 -72.5t79.5 -112.5
t29.5 -162.5zM530 1673l-190 307h90l180 -196l181 196h90l-191 -307h-160z" />
    <glyph glyph-name="scaron" unicode="&#x161;" horiz-adv-x="901" 
d="M831 256q0 -135 -98 -210t-272 -75q-157 0 -266 64q-118 73 -127 280l147 15q15 -246 248 -246q100 0 158.5 47t58.5 127q0 43 -24.5 72t-65 42.5t-92 26t-105.5 21t-105.5 28t-92 46.5t-65 78.5t-24.5 121.5q0 129 93 201t250 72q341 0 362 -308l-147 -14
q-15 209 -220 209q-81 0 -134.5 -39t-53.5 -121q0 -56 53.5 -87.5t149.5 -51.5q38 -8 56.5 -12t55.5 -13t58 -17t52 -22t49.5 -28.5t40 -36t33 -46t19.5 -56t8 -68.5zM369 1133l-191 307h90l181 -197l180 197h90l-191 -307h-159z" />
    <glyph glyph-name="Tcaron" unicode="&#x164;" 
d="M692 1329v-1329h-170v1329h-495v150h1161v-150h-496zM526 1673l-190 307h90l180 -196l180 196h91l-191 -307h-160z" />
    <glyph glyph-name="tcaron" unicode="&#x165;" horiz-adv-x="991" 
d="M565 215l111 -25q-27 -219 -227 -219q-133 0 -188.5 63t-55.5 197v578h-174v129h174v272l153 78v-350h277v-129h-277v-578q0 -80 23.5 -110.5t79.5 -30.5q83 0 104 125zM725 1479h188q17 -112 17 -189q0 -175 -197 -295l-41 74q72 43 101.5 90t29.5 119h-98v201z" />
    <glyph glyph-name="Umacron" unicode="&#x16a;" horiz-adv-x="1323" 
d="M1063 481v998h147v-998q0 -240 -153 -375t-395 -135q-243 0 -396 135t-153 375v998h168v-998q0 -174 110 -268q113 -94 281 -94t278 94q113 94 113 268zM938 1868v-135h-555v135h555z" />
    <glyph glyph-name="umacron" unicode="&#x16b;" horiz-adv-x="1052" 
d="M930 938v-938h-148v223q-50 -116 -152.5 -184t-219.5 -68q-137 0 -217 87t-80 243v637h153v-586q0 -250 187 -250q113 0 219 103q104 104 104 241v492h154zM803 1327v-135h-555v135h555z" />
    <glyph glyph-name="Uring" unicode="&#x16e;" horiz-adv-x="1323" 
d="M1063 481v998h147v-998q0 -240 -153 -375t-395 -135q-243 0 -396 135t-153 375v998h168v-998q0 -174 110 -268q113 -94 281 -94t278 94q113 94 113 268zM659 1903q-33 0 -57 -23.5t-24 -58.5t24.5 -60.5t56.5 -25.5q33 0 57.5 25.5t24.5 60.5t-23.5 58.5t-58.5 23.5z
M659 1667q-66 0 -108.5 44t-42.5 110t42.5 108.5t108.5 42.5t108 -42.5t42 -108.5t-43.5 -110t-106.5 -44z" />
    <glyph glyph-name="uring" unicode="&#x16f;" horiz-adv-x="1052" 
d="M930 938v-938h-148v223q-50 -116 -152.5 -184t-219.5 -68q-137 0 -217 87t-80 243v637h153v-586q0 -250 187 -250q113 0 219 103q104 104 104 241v492h154zM524 1362q-33 0 -57.5 -23.5t-24.5 -58.5t24.5 -60.5t57.5 -25.5t57.5 25.5t24.5 60.5t-23.5 58.5t-58.5 23.5z
M524 1126q-66 0 -108.5 44t-42.5 110t42.5 109t108.5 43t108 -43t42 -109t-43.5 -110t-106.5 -44z" />
    <glyph glyph-name="Uhungarumlaut" unicode="&#x170;" horiz-adv-x="1323" 
d="M1063 481v998h147v-998q0 -240 -153 -375t-395 -135q-243 0 -396 135t-153 375v998h168v-998q0 -174 110 -268q113 -94 281 -94t278 94q113 94 113 268zM784 1980l-260 -307h-92l160 307h192zM1102 1980l-260 -307h-92l159 307h193z" />
    <glyph glyph-name="uhungarumlaut" unicode="&#x171;" horiz-adv-x="1052" 
d="M930 938v-938h-148v223q-50 -116 -152.5 -184t-219.5 -68q-137 0 -217 87t-80 243v637h153v-586q0 -250 187 -250q113 0 219 103q104 104 104 241v492h154zM635 1440l-260 -307h-92l159 307h193zM952 1440l-260 -307h-92l160 307h192z" />
    <glyph glyph-name="Uogonek" unicode="&#x172;" horiz-adv-x="1323" 
d="M1063 481v998h147v-961q0 -419 -348 -518q-81 -38 -134.5 -91.5t-53.5 -96.5q0 -64 78 -64q48 0 104 33l27 -55q-84 -66 -191 -66q-67 0 -105 39t-38 102q0 99 117 176q-249 0 -402 132q-151 133 -151 409v961h168v-998q0 -174 110 -268q113 -94 281 -94t278 94
q113 94 113 268z" />
    <glyph glyph-name="uogonek" unicode="&#x173;" horiz-adv-x="1052" 
d="M780 0v223q-50 -116 -151.5 -184t-218.5 -68q-137 0 -217 87t-80 243v637h153v-586q0 -250 187 -250q114 0 217 103q104 104 104 241v492h156v-938q-83 -42 -136 -95t-53 -95q0 -64 78 -64q46 0 105 33l26 -53q-83 -68 -190 -68q-68 0 -106 39t-38 102q0 53 42.5 107
t121.5 94z" />
    <glyph glyph-name="Ydieresis" unicode="&#x178;" horiz-adv-x="1191" 
d="M993 1479h168l-481 -893v-586h-170v586l-479 893h192l385 -717zM856 1896v-208h-154v208h154zM487 1896v-208h-153v208h153z" />
    <glyph glyph-name="Zacute" unicode="&#x179;" horiz-adv-x="1208" 
d="M61 106l838 1223h-805v150h1034v-109l-837 -1223h856v-147h-1086v106zM856 1980l-262 -307h-90l160 307h192z" />
    <glyph glyph-name="zacute" unicode="&#x17a;" horiz-adv-x="921" 
d="M287 127h561v-127h-774v92l544 717h-538v129h754v-92zM680 1440l-262 -307h-90l159 307h193z" />
    <glyph glyph-name="Zdotaccent" unicode="&#x17b;" horiz-adv-x="1208" 
d="M61 106l838 1223h-805v150h1034v-109l-837 -1223h856v-147h-1086v106zM680 1913v-225h-154v225h154z" />
    <glyph glyph-name="zdotaccent" unicode="&#x17c;" horiz-adv-x="921" 
d="M287 127h561v-127h-774v92l544 717h-538v129h754v-92zM535 1372v-225h-154v225h154z" />
    <glyph glyph-name="Zcaron" unicode="&#x17d;" horiz-adv-x="1208" 
d="M61 106l838 1223h-805v150h1034v-109l-837 -1223h856v-147h-1086v106zM522 1673l-190 307h90l180 -196l180 196h90l-190 -307h-160z" />
    <glyph glyph-name="zcaron" unicode="&#x17e;" horiz-adv-x="921" 
d="M287 127h561v-127h-774v92l544 717h-538v129h754v-92zM379 1133l-191 307h91l180 -197l180 197h90l-190 -307h-160z" />
    <glyph glyph-name="florin" unicode="&#x192;" horiz-adv-x="786" 
d="M791 1210q-25 0 -49.5 31.5t-24.5 58.5q0 23 17 44t50 28q-18 37 -92 37q-60 0 -105.5 -51t-64.5 -158l-49 -262h262l-24 -94h-250l-101 -631q-49 -309 -143 -452.5t-242 -143.5q-93 0 -153 48t-60 128q0 38 25 64t61 26q37 0 63 -25t26 -61q0 -32 -24 -56t-60 -24
q21 -53 98 -53q35 0 61 13.5t54.5 52.5t52.5 120.5t45 206.5l125 787h-195l21 94h123q70 0 79 78q36 237 120.5 341.5t252.5 104.5q189 0 189 -159q0 -37 -26 -65t-62 -28z" />
    <glyph glyph-name="circumflex" unicode="&#x2c6;" horiz-adv-x="749" 
d="M371 1329l-181 -196h-90l191 307h160l190 -307h-90z" />
    <glyph glyph-name="caron" unicode="&#x2c7;" horiz-adv-x="749" 
d="M291 1133l-191 307h90l181 -197l180 197h90l-190 -307h-160z" />
    <glyph glyph-name="breve" unicode="&#x2d8;" horiz-adv-x="921" 
d="M459 1370q111 0 158 33.5t61 116.5l110 -11q-5 -122 -89 -192t-240 -70q-155 0 -239 70.5t-89 191.5l109 11q14 -83 62 -116.5t157 -33.5z" />
    <glyph glyph-name="dotaccent" unicode="&#x2d9;" horiz-adv-x="442" 
d="M276 1372v-225h-153v225h153z" />
    <glyph glyph-name="ring" unicode="&#x2da;" horiz-adv-x="450" 
d="M219 1362q-33 0 -57.5 -23.5t-24.5 -58.5t24.5 -60.5t57.5 -25.5t57.5 25.5t24.5 60.5t-23.5 58.5t-58.5 23.5zM219 1126q-66 0 -108.5 44t-42.5 110t42.5 109t108.5 43t108 -43t42 -109t-43.5 -110t-106.5 -44z" />
    <glyph glyph-name="ogonek" unicode="&#x2db;" horiz-adv-x="802" 
d="M436 0h150q-83 -42 -136 -95t-53 -95q0 -64 78 -64q46 0 105 33l26 -53q-83 -68 -190 -68q-68 0 -106 39t-38 102q0 53 42.5 107t121.5 94z" />
    <glyph glyph-name="tilde" unicode="&#x2dc;" horiz-adv-x="802" 
d="M371 1243q-67 0 -125 -94l-68 47q44 93 86.5 131.5t108.5 38.5q57 0 116 -47q60 -45 91 -45q66 0 122 90l68 -43q-44 -95 -85.5 -133.5t-106.5 -38.5q-59 0 -121 47t-86 47z" />
    <glyph glyph-name="hungarumlaut" unicode="&#x2dd;" horiz-adv-x="911" 
d="M477 1440l-260 -307h-92l160 307h192zM795 1440l-260 -307h-93l160 307h193z" />
    <glyph glyph-name="pi" unicode="&#x3c0;" horiz-adv-x="1282" 
d="M168 938h1198l-35 -129h-207l-145 -510q-27 -94 -27 -123q0 -55 54 -55q73 0 155 198l80 -43q-129 -305 -313 -305q-140 0 -140 127q0 84 33 199l144 512h-457l-225 -809h-160l225 809h-213z" />
    <glyph glyph-name="afii10023" unicode="&#x401;" horiz-adv-x="1116" 
d="M307 147h737v-147h-907v1479h891v-150h-721v-493h664v-150h-664v-539zM819 1765v-209h-153v209h153zM451 1765v-209h-154v209h154z" />
    <glyph glyph-name="afii10051" unicode="&#x402;" horiz-adv-x="1507" 
d="M692 674v-674h-170v1329h-495v150h1161v-150h-496v-510q169 105 391 105q163 0 262 -122t99 -331v-70q0 -190 -82 -309q-83 -121 -250 -121q-287 0 -287 297v37l156 21v-47q0 -160 131 -160q79 0 120.5 73.5t41.5 208.5v78q0 127 -71 208t-193 81q-152 0 -318 -94z" />
    <glyph glyph-name="afii10052" unicode="&#x403;" horiz-adv-x="1028" 
d="M782 1980l-262 -307h-90l160 307h192zM999 1329h-692v-1329h-170v1479h862v-150z" />
    <glyph glyph-name="afii10053" unicode="&#x404;" horiz-adv-x="1333" 
d="M688 1507q164 0 291 -61q114 -54 187 -167t81 -292l-174 -22q-18 393 -385 393q-394 0 -428 -522h588v-150h-590q3 -79 19.5 -156t51.5 -152.5t84 -132t124 -91.5t165 -35q169 0 273.5 105.5t116.5 307.5l176 -22q-15 -267 -181 -404q-163 -135 -385 -135
q-290 0 -454 201t-164 559q0 353 149 563q151 213 455 213z" />
    <glyph glyph-name="afii10054" unicode="&#x405;" horiz-adv-x="901" 
d="M831 256q0 -135 -98 -210t-272 -75q-157 0 -266 64q-118 73 -127 280l147 15q15 -246 248 -246q100 0 158.5 47t58.5 127q0 43 -24.5 72t-65 42.5t-92 26t-105.5 21t-105.5 28t-92 46.5t-65 78.5t-24.5 121.5q0 129 93 201t250 72q341 0 362 -308l-147 -14
q-15 209 -220 209q-81 0 -134.5 -39t-53.5 -121q0 -56 53.5 -87.5t149.5 -51.5q38 -8 56.5 -12t55.5 -13t58 -17t52 -22t49.5 -28.5t40 -36t33 -46t19.5 -56t8 -68.5z" />
    <glyph glyph-name="afii10055" unicode="&#x406;" horiz-adv-x="444" 
d="M307 1479v-1479h-170v1479h170z" />
    <glyph glyph-name="afii10056" unicode="&#x407;" horiz-adv-x="444" 
d="M455 1896v-208h-156v208h156zM147 1896v-208h-153v208h153zM307 1479v-1479h-170v1479h170z" />
    <glyph glyph-name="afii10057" unicode="&#x408;" horiz-adv-x="894" 
d="M20 387h170q0 -122 52.5 -195t152.5 -73t158.5 71.5t58.5 198.5v1090h170v-1090q0 -214 -102.5 -316t-284.5 -102q-198 0 -286 119q-89 121 -89 297z" />
    <glyph glyph-name="afii10058" unicode="&#x409;" horiz-adv-x="2129" 
d="M1260 1479v-605h352q218 0 346 -122q129 -123 129 -318q0 -194 -133 -315q-131 -119 -342 -119h-522v1329h-539q0 -290 -10 -518q-9 -204 -33 -377q-26 -169 -70 -268t-110.5 -144t-169.5 -51q-76 0 -148 35l31 135q44 -20 109 -20q92 0 135 88q44 90 65 379
q25 305 25 891h885zM1604 725h-344v-578h344q136 0 223 84q88 85 88 205q0 128 -81.5 208.5t-229.5 80.5z" />
    <glyph glyph-name="afii10059" unicode="&#x40a;" horiz-adv-x="2091" 
d="M1219 1479v-605h354q221 0 346 -122q129 -120 129 -318q0 -194 -133 -315q-131 -119 -342 -119h-522v725h-744v-725h-170v1479h170v-605h744v605h168zM1565 725h-346v-578h346q136 0 223 84q88 85 88 205q0 128 -81.5 208.5t-229.5 80.5z" />
    <glyph glyph-name="afii10060" unicode="&#x40b;" horiz-adv-x="1505" 
d="M27 1329v150h1161v-150h-496v-495q192 88 400 88q162 0 255 -111.5t93 -321.5v-489h-168v489q0 167 -66 224q-63 57 -194 57q-117 0 -320 -78v-692h-170v1329h-495z" />
    <glyph glyph-name="afii10061" unicode="&#x40c;" horiz-adv-x="1280" 
d="M864 1972l-262 -307h-90l160 307h192zM307 1479v-643h242q92 0 147 55q25 25 39 74q19 56 27 86q3 11 6 27.5t7.5 41.5t8.5 45q22 123 54 197q29 71 77 107t127 36q85 0 150 -47l-25 -121q-35 21 -80 21q-51 0 -80.5 -46t-48.5 -132q-32 -160 -54 -221
q-56 -155 -161 -197q176 -65 232 -322q48 -225 78 -276q26 -45 80 -45q40 0 79 22l25 -121q-73 -49 -150 -49q-197 0 -268 394l-18 94q-2 18 -19 73q-11 50 -28 70q-68 94 -191 84h-256v-686h-170v1479h170z" />
    <glyph glyph-name="afii10062" unicode="&#x40e;" horiz-adv-x="1277" 
d="M240 313h141q-21 -53 -21 -112q0 -49 27 -77t70 -28q49 0 86 45t80 156l-578 1182h188l474 -963l378 963h162l-469 -1196q-68 -170 -141 -242t-188 -72q-107 0 -172.5 55.5t-65.5 161.5q0 48 29 127zM885 1841l157 -12q0 -273 -346 -273q-344 0 -344 273l156 12
q0 -170 188 -170q189 0 189 170z" />
    <glyph glyph-name="afii10145" unicode="&#x40f;" horiz-adv-x="1419" 
d="M596 0h-459v1479h170v-1332h744v1332h168v-1479h-455v-375h-168v375z" />
    <glyph glyph-name="afii10017" unicode="&#x410;" horiz-adv-x="1327" 
d="M1296 0h-182l-139 383h-645l-140 -383h-159l549 1479h168zM920 532l-269 732l-268 -732h537z" />
    <glyph glyph-name="afii10018" unicode="&#x411;" horiz-adv-x="1196" 
d="M651 725h-344v-578h344q136 0 223 84q89 86 89 205q0 129 -81.5 209t-230.5 80zM1004 1479v-150h-697v-455h355q220 0 346 -120q127 -121 127 -320q0 -194 -131 -313q-133 -121 -342 -121h-525v1479h867z" />
    <glyph glyph-name="afii10019" unicode="&#x412;" horiz-adv-x="1239" 
d="M674 0h-537v1479h430q504 0 504 -367q0 -132 -74 -227q-72 -96 -186 -117q336 -53 336 -371q0 -183 -135 -291q-130 -106 -338 -106zM975 418q0 140 -99 204t-298 64h-271v-539h355q142 0 227.5 73.5t85.5 197.5zM612 1329h-305v-493h305q129 0 208 70t79 177t-79 176.5
t-208 69.5z" />
    <glyph glyph-name="afii10020" unicode="&#x413;" horiz-adv-x="1028" 
d="M999 1329h-692v-1329h-170v1479h862v-150z" />
    <glyph glyph-name="afii10021" unicode="&#x414;" horiz-adv-x="1476" 
d="M367 147h688v1182h-455q0 -506 -55 -747q-53 -246 -178 -435zM1401 147v-522h-168v375h-1028v-375h-168v522h143q91 129 139 252q113 284 113 930v150h791v-1332h178z" />
    <glyph glyph-name="afii10022" unicode="&#x415;" horiz-adv-x="1116" 
d="M307 147h737v-147h-907v1479h891v-150h-721v-493h664v-150h-664v-539z" />
    <glyph glyph-name="afii10024" unicode="&#x416;" horiz-adv-x="2013" 
d="M731 836h191v643h170v-643h190q93 0 148 55q24 24 38 74q19 56 27 86q4 15 23 114q23 127 53 197q29 71 77.5 107t127.5 36q84 0 149 -47l-24 -121q-37 21 -80 21q-51 0 -80.5 -46t-48.5 -132q-1 -4 -10 -49.5t-12 -56.5t-13 -52t-17 -56.5t-20 -49t-26 -50.5t-31 -40.5
t-39.5 -38t-46.5 -25.5q175 -64 231 -322q48 -225 78 -276q26 -45 80 -45q41 0 80 22l24 -121q-73 -49 -149 -49q-198 0 -269 394l-18 94q-3 23 -18 73q-11 49 -29 70q-68 94 -191 84h-204v-686h-170v686h-205q-121 10 -193 -84q-12 -15 -28 -70l-19 -73l-16 -94
q-71 -394 -268 -394q-77 0 -150 49l25 121q39 -22 79 -22q63 0 89 63q30 72 69 258q52 258 230 322q-68 29 -114.5 99.5t-66.5 158.5q-4 19 -10.5 53.5t-10.5 55t-11 51t-13 49t-14.5 41.5t-18.5 37t-22.5 26.5t-27.5 18.5t-33 6q-43 0 -80 -21l-25 121q65 47 150 47
q102 0 157 -65q24 -24 47 -78q32 -74 54 -197q4 -20 8.5 -45t7.5 -41.5t6 -27.5l25 -86q24 -68 64.5 -94.5t123.5 -34.5z" />
    <glyph glyph-name="afii10025" unicode="&#x417;" horiz-adv-x="1261" 
d="M625 119q170 0 271 82t101 219q0 117 -90 192q-89 74 -215 74h-182v150h182q117 0 193 77.5t76 194.5t-84 183.5t-230 66.5q-164 0 -256 -80q-93 -81 -102 -299l-176 22q7 146 59.5 253t136.5 159q156 94 338 94q207 0 340 -106q137 -104 137 -287q0 -126 -77.5 -220.5
t-198.5 -125.5q157 -24 239 -121t82 -246q0 -192 -155 -311q-152 -119 -389 -119q-223 0 -375 125q-153 129 -168 406l174 22q21 -405 369 -405z" />
    <glyph glyph-name="afii10026" unicode="&#x418;" horiz-adv-x="1398" 
d="M1075 1479h185v-1479h-168v1221l-768 -1221h-187v1479h170v-1221z" />
    <glyph glyph-name="afii10027" unicode="&#x419;" horiz-adv-x="1398" 
d="M887 1841l157 -12q0 -273 -346 -273q-344 0 -344 273l156 12q0 -170 188 -170q189 0 189 170zM1075 1479h185v-1479h-168v1221l-768 -1221h-187v1479h170v-1221z" />
    <glyph glyph-name="afii10028" unicode="&#x41a;" horiz-adv-x="1280" 
d="M307 1479v-643h242q92 0 147 55q25 25 39 74q19 56 27 86q3 11 6 27.5t7.5 41.5t8.5 45q22 123 54 197q29 71 77 107t127 36q85 0 150 -47l-25 -121q-35 21 -80 21q-51 0 -80.5 -46t-48.5 -132q-32 -160 -54 -221q-56 -155 -161 -197q176 -65 232 -322q48 -225 78 -276
q26 -45 80 -45q40 0 79 22l25 -121q-73 -49 -150 -49q-197 0 -268 394l-18 94q-2 18 -19 73q-11 50 -28 70q-68 94 -191 84h-256v-686h-170v1479h170z" />
    <glyph glyph-name="afii10029" unicode="&#x41b;" horiz-adv-x="1396" 
d="M375 1479h885v-1479h-170v1329h-539q0 -290 -10 -518q-9 -204 -33 -377q-26 -169 -70 -268t-110.5 -144t-169.5 -51q-76 0 -148 35l31 135q44 -20 109 -20q89 0 133 86q43 84 67 381q25 308 25 891z" />
    <glyph glyph-name="afii10030" unicode="&#x41c;" horiz-adv-x="1665" 
d="M408 1479l423 -1172l424 1172h271v-1479h-168v1284h-10l-463 -1284h-105l-463 1284h-12v-1284h-168v1479h271z" />
    <glyph glyph-name="afii10031" unicode="&#x41d;" horiz-adv-x="1357" 
d="M307 0h-170v1479h170v-643h744v643h168v-1479h-168v686h-744v-686z" />
    <glyph glyph-name="afii10032" unicode="&#x41e;" horiz-adv-x="1492" 
d="M1411 739q0 -346 -178 -557t-488 -211q-309 0 -487 211q-176 212 -176 557q0 344 178 555q180 213 485 213q306 0 486 -213q180 -210 180 -555zM1237 739q0 273 -129 445q-128 174 -363 174q-232 0 -360 -174q-129 -172 -129 -445q0 -275 129 -448q129 -172 360 -172
q234 0 363 172q129 173 129 448z" />
    <glyph glyph-name="afii10033" unicode="&#x41f;" horiz-adv-x="1357" 
d="M307 0h-170v1479h1082v-1479h-168v1329h-744v-1329z" />
    <glyph glyph-name="afii10034" unicode="&#x420;" horiz-adv-x="1210" 
d="M967 1016q0 142 -90 227.5t-261 85.5h-309v-647h309q171 0 261 96q90 101 90 238zM137 0v1479h471q249 0 392 -126.5t143 -342.5q0 -219 -144 -348q-145 -130 -389 -130h-303v-532h-170z" />
    <glyph glyph-name="afii10035" unicode="&#x421;" horiz-adv-x="1333" 
d="M705 1507q195 0 356 -108q87 -57 141.5 -168t61.5 -260l-174 -23q-12 208 -115 309t-270 101q-447 0 -447 -627q0 -304 114 -458t330 -154q165 0 271.5 112.5t118.5 317.5l176 -23q-15 -268 -183 -413q-165 -142 -383 -142q-290 0 -454 201t-164 559q0 349 158 563
q160 213 463 213z" />
    <glyph glyph-name="afii10036" unicode="&#x422;" 
d="M692 1329v-1329h-170v1329h-495v150h1161v-150h-496z" />
    <glyph glyph-name="afii10037" unicode="&#x423;" horiz-adv-x="1277" 
d="M240 313h141q-21 -53 -21 -112q0 -49 27 -77t70 -28q49 0 86 45t80 156l-578 1182h188l474 -963l378 963h162l-469 -1196q-68 -170 -141 -242t-188 -72q-107 0 -172.5 55.5t-65.5 161.5q0 48 29 127z" />
    <glyph glyph-name="afii10038" unicode="&#x424;" horiz-adv-x="1648" 
d="M739 367v823q-246 0 -366.5 -95t-120.5 -317q0 -221 121.5 -316t365.5 -95zM739 1536h170v-197q658 0 658 -561t-658 -561v-217h-170v217q-657 0 -657 561t657 561v197zM909 1190v-823q245 0 366.5 95t121.5 316q0 222 -120.5 317t-367.5 95z" />
    <glyph glyph-name="afii10039" unicode="&#x425;" horiz-adv-x="1325" 
d="M1268 0h-203l-410 623l-419 -623h-179l510 756l-473 723h203l373 -570l383 570h176l-473 -705z" />
    <glyph glyph-name="afii10040" unicode="&#x426;" horiz-adv-x="1449" 
d="M1229 0h-1092v1479h170v-1332h744v1332h168v-1332h178v-522h-168v375z" />
    <glyph glyph-name="afii10041" unicode="&#x427;" horiz-adv-x="1206" 
d="M1069 1479v-1479h-170v643q-204 -88 -446 -88q-183 0 -286.5 111t-103.5 321v492h170v-492q0 -165 72 -225q73 -55 227 -55t367 77v695h170z" />
    <glyph glyph-name="afii10042" unicode="&#x428;" horiz-adv-x="2019" 
d="M1880 0h-1743v1479h170v-1332h617v1332h170v-1332h618v1332h168v-1479z" />
    <glyph glyph-name="afii10043" unicode="&#x429;" horiz-adv-x="2111" 
d="M1890 0h-1753v1479h170v-1332h617v1332h170v-1332h618v1332h168v-1332h178v-522h-168v375z" />
    <glyph glyph-name="afii10044" unicode="&#x42a;" horiz-adv-x="1497" 
d="M625 1479v-605h354q220 0 346 -120q127 -121 127 -320q0 -196 -131 -315t-342 -119h-524v1329h-414v150h584zM969 725h-344v-578h344q136 0 223 84q88 85 88 205q0 129 -81 209t-230 80z" />
    <glyph glyph-name="afii10045" unicode="&#x42b;" horiz-adv-x="1619" 
d="M1483 1479v-1479h-170v1479h170zM651 725h-344v-578h344q136 0 223 84q89 86 89 205q0 129 -81.5 209t-230.5 80zM307 1479v-605h355q220 0 346 -120q127 -121 127 -320q0 -194 -131 -313q-133 -121 -342 -121h-525v1479h170z" />
    <glyph glyph-name="afii10046" unicode="&#x42c;" horiz-adv-x="1177" 
d="M651 725h-344v-578h344q136 0 223 84q89 86 89 205q0 129 -81.5 209t-230.5 80zM307 1479v-605h355q220 0 346 -120q127 -121 127 -320q0 -194 -131 -313q-133 -121 -342 -121h-525v1479h170z" />
    <glyph glyph-name="afii10047" unicode="&#x42d;" horiz-adv-x="1335" 
d="M662 1507q300 0 450 -211t150 -565q0 -361 -162 -559q-160 -201 -453 -201q-81 0 -157 18t-148.5 59t-128 101.5t-92 151.5t-43.5 203l176 22q12 -201 117.5 -304t275.5 -103q143 0 246 86q98 83 142 202t50 279h-587v150h585q-35 522 -421 522q-369 0 -390 -385l-174 22
q6 121 45 214t95.5 148t132.5 90t146 47.5t145 12.5z" />
    <glyph glyph-name="afii10048" unicode="&#x42e;" horiz-adv-x="2015" 
d="M1933 739q0 -346 -178 -557t-487 -211q-293 0 -467 195q-173 194 -197 520h-297v-686h-170v1479h170v-643h299q27 307 201 487q175 184 461 184q305 0 485 -213q180 -210 180 -555zM1759 739q0 273 -129 445q-128 174 -362 174q-233 0 -361 -174q-129 -172 -129 -445
q0 -275 129 -448q129 -172 361 -172q233 0 362 172q129 173 129 448z" />
    <glyph glyph-name="afii10049" unicode="&#x42f;" horiz-adv-x="1312" 
d="M463 274q-37 -161 -96.5 -232t-171.5 -71q-84 0 -154 49l25 121q39 -22 81 -22q56 0 91.5 49.5t58.5 161.5q25 134 68.5 210.5t117.5 114.5q-148 29 -231.5 135.5t-83.5 260.5q0 204 132.5 316t383.5 112h492v-1479h-170v600h-269q-86 0 -123 -18q-6 -3 -17.5 -7
t-17 -6.5t-13 -7.5t-13 -11t-10.5 -15t-12 -19t-10.5 -15.5t-8.5 -17t-10 -28.5l-13 -52q-4 -15 -26 -129zM678 750h328v579h-324q-168 0 -256 -75t-88 -207q0 -137 87 -217t253 -80z" />
    <glyph glyph-name="afii10065" unicode="&#x430;" horiz-adv-x="1042" 
d="M391 78q132 0 215.5 99t87.5 284q-141 0 -237.5 -17t-145 -49t-67.5 -68t-19 -83q0 -69 47.5 -117.5t118.5 -48.5zM975 137l55 -69q-43 -56 -74 -76.5t-79 -20.5q-145 0 -154 199q-114 -199 -369 -199q-127 0 -204.5 73t-77.5 187q0 330 622 330q4 102 4 105
q-1 101 -54.5 143.5t-172.5 42.5q-105 0 -167 -51t-66 -148l-132 23q0 146 115 217q119 72 264 72q371 0 371 -299q0 -64 -6 -234q-4 -226 -4 -248q0 -94 55 -94q33 0 74 47z" />
    <glyph glyph-name="afii10066" unicode="&#x431;" horiz-adv-x="1040" 
d="M971 469q0 -210 -117 -354t-330 -144q-209 0 -329 144q-117 144 -117 354q0 154 2 201q5 113 10 172q8 93 25 155q57 168 131 228q112 91 280 125q186 38 224 53q54 20 57 76h113q-3 -127 -64 -179q-51 -42 -258 -98l-74 -18q-179 -47 -258 -158t-80 -321
q102 262 369 262q208 0 311 -142q105 -141 105 -356zM813 469q0 179 -69.5 274t-202.5 95q-138 0 -220.5 -98.5t-82.5 -270.5q0 -177 75.5 -274t210.5 -97q136 0 212.5 97.5t76.5 273.5z" />
    <glyph glyph-name="afii10067" unicode="&#x432;" horiz-adv-x="946" 
d="M719 270q0 77 -53 117.5t-148 40.5h-242v-309h199q131 0 187.5 33.5t56.5 117.5zM674 680q0 60 -41.5 98.5t-116.5 38.5h-240v-276h240q74 0 116 40.5t42 98.5zM539 0h-416v938h403q141 0 221 -60t80 -161q0 -184 -165 -236q98 -10 155 -69.5t57 -147.5
q0 -132 -88.5 -198t-246.5 -66z" />
    <glyph glyph-name="afii10068" unicode="&#x433;" horiz-adv-x="761" 
d="M737 938v-129h-461v-809h-153v938h614z" />
    <glyph glyph-name="afii10069" unicode="&#x434;" horiz-adv-x="1081" 
d="M905 -291v291h-727v-291h-143v418h115q83 107 118 258q35 152 35 424v129h602v-811h144v-418h-144zM752 127v682h-310q0 -268 -28 -424q-26 -144 -105 -258h443z" />
    <glyph glyph-name="afii10070" unicode="&#x435;" horiz-adv-x="980" 
d="M907 436h-669q0 -155 74 -246.5t204 -91.5q105 0 168 54.5t70 156.5l137 -16q-17 -149 -116 -235.5t-259 -86.5q-212 0 -326 138q-112 136 -112 360q0 228 110 363t318 135q195 0 298 -138.5t103 -392.5zM504 854q-254 0 -266 -299h510q-4 141 -70.5 220t-173.5 79z" />
    <glyph glyph-name="afii10072" unicode="&#x436;" horiz-adv-x="1495" 
d="M823 938v-395h107q51 0 85.5 23.5t51.5 61t29.5 82.5l25 90t31 82.5t55 61t90.5 23.5q56 0 115 -33l-22 -90q-27 12 -56 12q-69 0 -96 -160q-8 -67 -46 -128.5t-97 -84.5q77 -25 125.5 -92t60.5 -141q27 -170 94 -170q19 0 56 16l22 -92q-59 -33 -127 -33q-48 0 -79 17.5
t-54 58.5q-35 71 -57 182q-24 106 -64 146q-38 41 -143 41h-107v-416h-153v416h-105q-104 0 -145 -41q-38 -41 -62 -146q-24 -108 -45 -153q-42 -105 -147 -105q-69 0 -125 33l20 92q37 -16 56 -16q67 0 94 170q12 76 59.5 142.5t126.5 90.5q-59 23 -98 84.5t-47 128.5
q-8 68 -32 114t-60 46q-31 0 -58 -12l-20 90q59 33 115 33q53 0 89.5 -23.5t54.5 -61t30.5 -82.5t24.5 -90t29.5 -82.5t52.5 -61t87 -23.5h105v395h153z" />
    <glyph glyph-name="afii10073" unicode="&#x437;" horiz-adv-x="911" 
d="M469 846q-108 0 -164 -45.5t-69 -149.5l-154 17q13 141 116.5 220t270.5 79q152 0 246 -72t94 -184q0 -172 -188 -234q100 -10 159.5 -71t59.5 -152q0 -135 -111 -209q-109 -74 -266 -74q-178 0 -284.5 85t-117.5 233l154 16q7 -104 73.5 -159.5t174.5 -55.5
q102 0 160.5 46t58.5 126q0 71 -54.5 112.5t-133.5 41.5h-142v127h140q76 0 119.5 46t43.5 111q0 67 -49.5 106.5t-136.5 39.5z" />
    <glyph glyph-name="afii10074" unicode="&#x438;" horiz-adv-x="1085" 
d="M123 0v938h153v-758l500 758h187v-938h-154v756l-500 -756h-186z" />
    <glyph glyph-name="afii10075" unicode="&#x439;" horiz-adv-x="1085" 
d="M541 1163q161 0 164 150l139 -13q0 -117 -77.5 -177t-225.5 -60q-144 0 -221.5 60t-77.5 177l139 13q3 -150 160 -150zM123 0v938h153v-758l498 758h189v-938h-154v756l-500 -756h-186z" />
    <glyph glyph-name="afii10076" unicode="&#x43a;" horiz-adv-x="985" 
d="M276 938v-395h127q74 0 119 41.5t60 107.5q5 17 15.5 60.5t16.5 65t21.5 55.5t33 50.5t48 30t69.5 13.5q56 0 115 -33l-22 -90q-27 12 -56 12q-69 0 -96 -160q-8 -67 -46.5 -128.5t-96.5 -84.5q66 -22 108 -71.5t59.5 -104.5t29.5 -107t31 -86t52 -34q24 0 56 16l22 -92
q-56 -33 -127 -33q-82 0 -119.5 56.5t-70.5 201.5q-23 103 -66 146q-41 41 -156 41h-127v-416h-153v938h153z" />
    <glyph glyph-name="afii10077" unicode="&#x43b;" horiz-adv-x="1050" 
d="M272 938h656v-938h-156v809h-356q0 -472 -56 -655q-52 -181 -219 -181q-69 0 -116 35l28 115q36 -25 80 -25q37 0 59.5 22t42.5 93t28.5 216.5t8.5 379.5v129z" />
    <glyph glyph-name="afii10078" unicode="&#x43c;" horiz-adv-x="1292" 
d="M123 0v938h244l278 -702l279 702h245v-938h-155v782h-8l-308 -782h-106l-307 782h-9v-782h-153z" />
    <glyph glyph-name="afii10079" unicode="&#x43d;" horiz-adv-x="1069" 
d="M946 938v-938h-153v416h-517v-416h-153v938h153v-395h517v395h153z" />
    <glyph glyph-name="afii10080" unicode="&#x43e;" horiz-adv-x="1050" 
d="M735 195q78 101 78 274q0 176 -78 272q-79 97 -211 97t-211 -97q-75 -93 -75 -272q0 -177 75 -274q79 -97 211 -97t211 97zM852 823q119 -143 119 -354t-119 -354q-117 -144 -328 -144q-209 0 -329 144q-117 144 -117 354q0 208 117 352q122 146 329 146q211 0 328 -144z
" />
    <glyph glyph-name="afii10081" unicode="&#x43f;" horiz-adv-x="1069" 
d="M946 938v-938h-153v809h-517v-809h-153v938h823z" />
    <glyph glyph-name="afii10082" unicode="&#x440;" horiz-adv-x="1075" 
d="M276 180v-565h-153v1323h153v-166q114 193 306 193q197 0 305 -144q110 -143 110 -352q0 -210 -108 -354t-293 -144q-115 0 -199 55.5t-121 153.5zM276 475q0 -168 76 -272.5t199 -104.5q130 0 208.5 99t78.5 278q0 176 -76 269.5t-207 93.5q-124 0 -201.5 -100
t-77.5 -263z" />
    <glyph glyph-name="afii10083" unicode="&#x441;" horiz-adv-x="956" 
d="M504 90q95 0 157.5 57.5t75.5 161.5l154 -16q-17 -149 -120.5 -235.5t-266.5 -86.5q-209 0 -317.5 133t-108.5 365q0 229 110 363.5t316 134.5q163 0 266.5 -87.5t120.5 -236.5l-154 -16q-13 104 -75.5 161.5t-157.5 57.5q-132 0 -201.5 -99t-69.5 -278q0 -181 69.5 -280
t201.5 -99z" />
    <glyph glyph-name="afii10084" unicode="&#x442;" horiz-adv-x="866" 
d="M510 809v-809h-154v809h-325v129h805v-129h-326z" />
    <glyph glyph-name="afii10085" unicode="&#x443;" horiz-adv-x="952" 
d="M35 938h166l327 -799l254 799h142l-322 -983q-64 -197 -129.5 -276.5t-179.5 -79.5q-75 0 -146 47q-67 46 -67 131q0 45 18 98q109 -14 142 -16q-17 -59 -17 -84q0 -35 23 -56.5t61 -21.5q88 0 146 248z" />
    <glyph glyph-name="afii10086" unicode="&#x444;" horiz-adv-x="1492" 
d="M823 168v-553h-155v553q-73 -199 -254 -199q-165 0 -254 142q-88 140 -88 356q0 211 88 354q88 144 254 144q178 0 254 -205v616h155v-616q33 96 99 150.5t155 54.5q165 0 254 -144q90 -146 90 -354q0 -210 -90 -356q-89 -142 -254 -142q-184 0 -254 199zM1042 834
q-95 0 -159 -102.5t-64 -268.5q0 -169 64 -270t159 -101q113 0 173.5 96.5t60.5 274.5q0 180 -60.5 275.5t-173.5 95.5zM449 834q-113 0 -172.5 -95.5t-59.5 -275.5q0 -179 60 -275t172 -96q95 0 159 101t64 270q0 166 -64 268.5t-159 102.5z" />
    <glyph glyph-name="afii10087" unicode="&#x445;" horiz-adv-x="940" 
d="M383 469l-330 469h183l241 -346l250 346h158l-332 -453l346 -485h-184l-254 360l-264 -360h-156z" />
    <glyph glyph-name="afii10088" unicode="&#x446;" horiz-adv-x="1124" 
d="M793 127v811h153v-811h144v-418h-144v291h-823v938h153v-811h517z" />
    <glyph glyph-name="afii10089" unicode="&#x447;" horiz-adv-x="946" 
d="M653 938h156v-938h-156v377q-160 -60 -315 -60q-287 0 -287 295v326h154v-326q0 -170 192 -170q126 0 256 50v446z" />
    <glyph glyph-name="afii10090" unicode="&#x448;" horiz-adv-x="1515" 
d="M1239 127v811h154v-938h-1270v938h153v-811h404v811h156v-811h403z" />
    <glyph glyph-name="afii10091" unicode="&#x449;" horiz-adv-x="1570" 
d="M1239 127v811h154v-811h143v-418h-143v291h-1270v938h153v-811h404v811h156v-811h403z" />
    <glyph glyph-name="afii10092" unicode="&#x44a;" horiz-adv-x="1083" 
d="M705 0h-416v809h-258v129h411v-352h263q154 0 244.5 -77t90.5 -216t-90.5 -216t-244.5 -77zM680 459h-238v-332h238q97 0 151 43.5t54 122.5t-54 122.5t-151 43.5z" />
    <glyph glyph-name="afii10093" unicode="&#x44b;" horiz-adv-x="1271" 
d="M1149 938v-938h-154v938h154zM123 0v938h153v-352h263q154 0 244.5 -77t90.5 -216q0 -160 -104.5 -226.5t-316.5 -66.5h-330zM514 459h-238v-332h238q97 0 151 43.5t54 122.5t-54 122.5t-151 43.5z" />
    <glyph glyph-name="afii10094" unicode="&#x44c;" horiz-adv-x="917" 
d="M123 0v938h153v-352h263q154 0 244.5 -77t90.5 -216q0 -160 -104.5 -226.5t-316.5 -66.5h-330zM514 459h-238v-332h238q97 0 151 43.5t54 122.5t-54 122.5t-151 43.5z" />
    <glyph glyph-name="afii10095" unicode="&#x44d;" horiz-adv-x="958" 
d="M457 90q122 0 189 85t75 241h-371v127h369q-11 144 -78 223.5t-184 79.5q-96 0 -160.5 -57.5t-77.5 -161.5l-153 16q17 148 122.5 236t268.5 88q208 0 315 -133t107 -365t-107 -365t-315 -133q-163 0 -268.5 87.5t-122.5 234.5l153 16q13 -104 77.5 -161.5t160.5 -57.5z
" />
    <glyph glyph-name="afii10096" unicode="&#x44e;" horiz-adv-x="1415" 
d="M889 -29q-198 0 -316 127q-114 129 -129 324h-168v-422h-153v938h153v-389h170q20 175 138 299q116 119 305 119q211 0 328 -144q118 -142 118 -354t-118 -354q-117 -144 -328 -144zM1100 195q78 101 78 274q0 176 -78 272q-79 97 -211 97q-134 0 -213 -97
q-76 -94 -76 -272q0 -176 76 -274q79 -97 213 -97q132 0 211 97z" />
    <glyph glyph-name="afii10097" unicode="&#x44f;" horiz-adv-x="1015" 
d="M500 498h237v319h-237q-199 0 -199 -162q0 -157 199 -157zM49 4l23 90q25 -14 55 -14q63 0 94 156q13 66 59 120.5t115 65.5q-114 14 -182 79.5t-68 172.5q0 129 87 196.5t247 67.5h414v-938h-156v385h-162q-26 0 -48.5 -5t-39.5 -11t-33.5 -20t-27 -23.5t-22.5 -30.5
t-17.5 -31.5t-15 -37t-12 -35.5t-11 -38t-10.5 -36q-16 -61 -55 -103q-37 -41 -106 -42.5t-128 32.5z" />
    <glyph glyph-name="afii10071" unicode="&#x451;" horiz-adv-x="980" 
d="M907 436h-669q0 -155 74 -246.5t204 -91.5q105 0 168 54.5t70 156.5l137 -16q-17 -149 -116 -235.5t-259 -86.5q-212 0 -326 138q-112 136 -112 360q0 228 110 363t318 135q195 0 298 -138.5t103 -392.5zM504 854q-254 0 -266 -299h510q-4 141 -70.5 220t-173.5 79z
M752 1356v-209h-154v209h154zM383 1356v-209h-154v209h154z" />
    <glyph glyph-name="afii10099" unicode="&#x452;" horiz-adv-x="1056" 
d="M438 -170q68 5 144 16q0 -153 102 -153q56 0 80 38t24 128v725q0 252 -190 252q-114 0 -219 -105q-103 -106 -103 -244v-487h-153v1186h-123v117h123v176h149v-176h375v-117h-375v-475q49 117 151.5 186.5t219.5 69.5q138 0 219.5 -88t81.5 -244v-776q0 -273 -266 -273
q-225 0 -240 244z" />
    <glyph glyph-name="afii10100" unicode="&#x453;" horiz-adv-x="761" 
d="M682 1440l-262 -307h-90l159 307h193zM737 938v-129h-461v-809h-153v938h614z" />
    <glyph glyph-name="afii10101" unicode="&#x454;" horiz-adv-x="958" 
d="M608 416h-372q11 -156 79.5 -241t190.5 -85q95 0 156.5 57t74.5 162q35 -2 154 -16q-17 -149 -119.5 -235.5t-265.5 -86.5q-209 0 -318.5 133.5t-109.5 364.5t109.5 364.5t318.5 133.5q163 0 265.5 -87.5t119.5 -236.5q-119 -14 -154 -16q-13 105 -74.5 162t-156.5 57
q-120 0 -188 -79t-80 -224h370v-127z" />
    <glyph glyph-name="afii10102" unicode="&#x455;" horiz-adv-x="901" 
d="M831 256q0 -135 -98 -210t-272 -75q-157 0 -266 64q-118 73 -127 280l147 15q15 -246 248 -246q100 0 158.5 47t58.5 127q0 43 -24.5 72t-65 42.5t-92 26t-105.5 21t-105.5 28t-92 46.5t-65 78.5t-24.5 121.5q0 129 93 201t250 72q341 0 362 -308l-147 -14
q-15 209 -220 209q-79 0 -133.5 -40.5t-54.5 -119.5q0 -56 53.5 -87.5t149.5 -51.5q38 -8 56.5 -12t55.5 -13t58 -17t52 -22t49.5 -28.5t40 -36t33 -46t19.5 -56t8 -68.5z" />
    <glyph glyph-name="afii10103" unicode="&#x456;" horiz-adv-x="399" 
d="M276 1372v-225h-153v225h153zM276 938v-938h-153v938h153z" />
    <glyph glyph-name="afii10104" unicode="&#x457;" horiz-adv-x="444" 
d="M430 1356v-209h-154v209h154zM123 1356v-209h-154v209h154zM276 938v-938h-153v938h153z" />
    <glyph glyph-name="afii10105" unicode="&#x458;" horiz-adv-x="399" 
d="M276 1372v-225h-153v225h153zM-227 -170q66 5 143 16q0 -153 100 -153q65 0 86 54t21 204v987h153v-1079q0 -273 -264 -273q-224 0 -239 244z" />
    <glyph glyph-name="afii10106" unicode="&#x459;" horiz-adv-x="1568" 
d="M272 938h656v-352h262q155 0 245.5 -77t90.5 -216t-90.5 -216t-245.5 -77h-418v809h-356q0 -472 -56 -655q-52 -181 -219 -181q-69 0 -116 35l28 115q36 -25 80 -25q37 0 59.5 22t42.5 93t28.5 216.5t8.5 379.5v129zM1163 459h-235v-332h235q97 0 151 43.5t54 122.5
t-54 122.5t-151 43.5z" />
    <glyph glyph-name="afii10107" unicode="&#x45a;" horiz-adv-x="1587" 
d="M793 586v352h153v-352h262q155 0 245.5 -77t90.5 -216t-90.5 -216t-245.5 -77h-415v459h-517v-459h-153v938h153v-352h517zM1184 459h-238v-332h238q97 0 151 43.5t54 122.5t-54 122.5t-151 43.5z" />
    <glyph glyph-name="afii10108" unicode="&#x45b;" horiz-adv-x="1056" 
d="M944 635v-635h-156v584q0 252 -190 252q-114 0 -219 -105q-103 -106 -103 -244v-487h-153v1186h-123v117h123v176h149v-176h375v-117h-375v-475q49 117 151.5 186.5t219.5 69.5q138 0 219.5 -88t81.5 -244z" />
    <glyph glyph-name="afii10109" unicode="&#x45c;" horiz-adv-x="993" 
d="M733 1440l-262 -307h-90l160 307h192zM276 938v-395h127q74 0 119 41.5t60 107.5q5 17 15.5 60.5t16.5 65t21.5 55.5t33 50.5t48 30t69.5 13.5q56 0 115 -33l-22 -90q-27 12 -56 12q-69 0 -96 -160q-8 -67 -46.5 -128.5t-96.5 -84.5q66 -22 108 -71.5t59.5 -104.5
t29.5 -107t31 -86t52 -34q24 0 56 16l22 -92q-56 -33 -127 -33q-82 0 -119.5 56.5t-70.5 201.5q-23 103 -66 146q-41 41 -156 41h-127v-416h-153v938h153z" />
    <glyph glyph-name="afii10110" unicode="&#x45e;" horiz-adv-x="952" 
d="M35 938h166l327 -799l254 799h142l-322 -983q-64 -197 -129.5 -276.5t-179.5 -79.5q-75 0 -146 47q-67 46 -67 131q0 45 18 98q109 -14 142 -16q-17 -59 -17 -84q0 -35 23 -56.5t61 -21.5q88 0 146 248zM526 1163q161 0 164 150l139 -13q0 -117 -77.5 -177t-225.5 -60
q-144 0 -221.5 60t-77.5 177l140 13q3 -150 159 -150z" />
    <glyph glyph-name="afii10193" unicode="&#x45f;" horiz-adv-x="1114" 
d="M797 127v811h155v-938h-344v-291h-141v291h-344v938h153v-811h521z" />
    <glyph glyph-name="afii10050" unicode="&#x490;" horiz-adv-x="1028" 
d="M137 1479h723v346h139v-496h-692v-1329h-170v1479z" />
    <glyph glyph-name="afii10098" unicode="&#x491;" horiz-adv-x="768" 
d="M123 0v938h489v276h125v-405h-461v-809h-153z" />
    <glyph glyph-name="endash" unicode="&#x2013;" horiz-adv-x="1316" 
d="M1198 614v-127h-1081v127h1081z" />
    <glyph glyph-name="emdash" unicode="&#x2014;" horiz-adv-x="1781" 
d="M1782 614v-127h-1782v127h1782z" />
    <glyph glyph-name="quoteleft" unicode="&#x2018;" horiz-adv-x="434" 
d="M311 1212v-200h-188q-17 94 -17 184q0 180 197 297l41 -74q-74 -43 -103.5 -89t-29.5 -118h100z" />
    <glyph glyph-name="quoteright" unicode="&#x2019;" horiz-adv-x="434" 
d="M123 1479h188q17 -112 17 -189q0 -175 -197 -295l-41 74q72 43 101.5 90t29.5 119h-98v201z" />
    <glyph glyph-name="quotesinglbase" unicode="&#x201a;" horiz-adv-x="434" 
d="M123 201h188q17 -104 17 -211q0 -151 -197 -271l-41 74q72 43 101.5 89t29.5 118h-98v201z" />
    <glyph glyph-name="quotedblleft" unicode="&#x201c;" horiz-adv-x="747" 
d="M311 1212v-200h-188q-17 94 -17 184q0 180 197 297l41 -74q-74 -43 -103.5 -89t-29.5 -118h100zM625 1212v-200h-189q-16 91 -16 200q0 164 196 281l41 -74q-73 -43 -103 -89.5t-30 -117.5h101z" />
    <glyph glyph-name="quotedblright" unicode="&#x201d;" horiz-adv-x="747" 
d="M436 1479h189q16 -94 16 -201q0 -163 -197 -283l-41 74q73 43 103.5 90.5t30.5 118.5h-101v201zM123 1479h188q17 -112 17 -189q0 -175 -197 -295l-41 74q72 43 101.5 90t29.5 119h-98v201z" />
    <glyph glyph-name="quotedblbase" unicode="&#x201e;" horiz-adv-x="747" 
d="M436 201h189q16 -112 16 -199q0 -169 -197 -283l-41 74q73 43 103.5 89.5t30.5 117.5h-101v201zM123 201h188q17 -104 17 -211q0 -151 -197 -271l-41 74q72 43 101.5 89t29.5 118h-98v201z" />
    <glyph glyph-name="dagger" unicode="&#x2020;" horiz-adv-x="1118" 
d="M621 829v-1214h-125v1214h-383v123h383v527h125v-527h385v-123h-385z" />
    <glyph glyph-name="daggerdbl" unicode="&#x2021;" horiz-adv-x="1118" 
d="M621 139v-524h-125v524h-383v123h383v567h-383v123h383v527h125v-527h385v-123h-385v-567h385v-123h-385z" />
    <glyph glyph-name="bullet" unicode="&#x2022;" horiz-adv-x="630" 
d="M106 651q0 88 59.5 146.5t149.5 58.5q88 0 148.5 -59t60.5 -146q0 -92 -60.5 -154.5t-148.5 -62.5q-91 0 -150 61.5t-59 155.5z" />
    <glyph glyph-name="ellipsis" unicode="&#x2026;" horiz-adv-x="1302" 
d="M123 201h188v-201h-188v201zM557 201h188v-201h-188v201zM991 201h189v-201h-189v201z" />
    <glyph glyph-name="perthousand" unicode="&#x2030;" horiz-adv-x="2322" 
d="M1698 76q-76 104 -76 264t76 264q76 107 221 107q143 0 219 -107q78 -107 78 -264t-78 -264q-76 -105 -219 -105q-145 0 -221 105zM1751 340q0 -279 168 -279q166 0 166 279q0 276 -166 276q-168 0 -168 -276zM981 76q-76 104 -76 264t76 264q76 107 221 107
q143 0 219 -107q78 -107 78 -264t-78 -264q-77 -105 -219 -105q-144 0 -221 105zM1034 340q0 -279 168 -279q166 0 166 279q0 276 -166 276q-168 0 -168 -276zM182 778q-76 107 -76 266q0 161 76 265q75 106 221 106q145 0 220 -106q77 -106 77 -265q0 -157 -77 -266
q-76 -104 -220 -104q-145 0 -221 104zM238 1044q0 -278 165 -278q168 0 168 278q0 277 -168 277q-165 0 -165 -277zM1382 1386l-1020 -1386h-137l1022 1386h135z" />
    <glyph glyph-name="guilsinglleft" unicode="&#x2039;" horiz-adv-x="608" 
d="M399 55l-307 457l307 457h164l-295 -457l295 -457h-164z" />
    <glyph glyph-name="guilsinglright" unicode="&#x203a;" horiz-adv-x="608" 
d="M45 969h164l307 -457l-307 -457h-164l295 457z" />
    <glyph glyph-name="fraction" unicode="&#x2044;" horiz-adv-x="1501" 
d="M1329 1386l-1020 -1386h-137l1020 1386h137z" />
    <glyph glyph-name="Euro" unicode="&#x20ac;" 
d="M610 -29q-198 0 -321.5 138.5t-165.5 386.5h-119v131h102q-4 50 -4 112v35h-98v131h107q30 274 155 436q126 166 344 166q215 0 334.5 -109t151.5 -354l-164 -24q-35 178 -111.5 258t-210.5 80q-140 0 -224 -119t-105 -334h579l-49 -131h-539v-35q0 -87 2 -112h496
l-49 -131h-428q30 -181 110 -279t207 -98q137 0 213 85.5t113 272.5l166 -24q-67 -482 -492 -482z" />
    <glyph glyph-name="uni20BD" unicode="&#x20bd;" horiz-adv-x="1284" 
d="M825 391v-133h-493v-258h-168v258h-160v133h160v141h-160v134h160v813h434q261 0 409 -123.5t148 -345.5q0 -217 -143 -348q-145 -130 -389 -130h-291v-141h493zM979 1010q0 143 -89.5 231t-260.5 88h-297v-663h297q173 0 260 100q90 104 90 244z" />
    <glyph glyph-name="afii61352" unicode="&#x2116;" horiz-adv-x="2111" 
d="M2030 498v-95h-594v95h594zM1511 717q-75 106 -75 266q0 161 75 264q76 107 222 107q143 0 219 -107q78 -107 78 -264q0 -156 -78 -266q-77 -105 -219 -105q-145 0 -222 105zM1565 983q0 -278 168 -278q165 0 165 278q0 277 -165 277q-168 0 -168 -277zM1071 250h8v934
q0 102 33 200q19 57 63.5 90t108.5 33q79 0 150 -47l-25 -119q-41 21 -84 21q-47 0 -71.5 -53.5t-24.5 -124.5v-1184h-207l-743 1229h-9v-1229h-147v1479h207z" />
    <glyph glyph-name="trademark" unicode="&#x2122;" horiz-adv-x="1900" 
d="M874 664v815h213l246 -613l246 613h215v-815h-135v679h-8l-271 -679h-94l-268 679h-8v-679h-136zM477 1366v-702h-137v702h-285v113h707v-113h-285z" />
    <glyph glyph-name="Omega" unicode="&#x2126;" horiz-adv-x="1519" 
d="M664 373v-373h-555v147h423v121q-194 41 -309 201q-114 164 -114 401q0 302 176 469q177 168 473 168q299 0 473 -168q178 -166 178 -469q0 -236 -115 -401q-114 -159 -307 -199v-123h422v-147h-553v373q184 30 273.5 147t89.5 350q0 237 -123 362.5t-338 125.5
q-213 0 -335 -125.5t-122 -362.5q0 -234 88 -350.5t275 -146.5z" />
    <glyph glyph-name="partialdiff" unicode="&#x2202;" horiz-adv-x="1103" 
d="M274 1247l-55 92q48 48 131 83.5t168 35.5q112 0 201 -38t146.5 -101.5t96 -153.5t54.5 -188.5t16 -210.5q0 -315 -121 -545q-63 -118 -170.5 -184t-246.5 -66q-193 0 -314 121q-117 120 -117 324q0 212 127 372q128 162 351 162q102 0 193.5 -43t137.5 -131
q0 124 -20 223t-62.5 175.5t-113.5 118.5t-168 44q-144 0 -234 -90zM502 98q155 0 246 131q94 131 94 308q0 128 -80 211t-207 83q-148 0 -236 -116t-88 -293q0 -156 73 -240t198 -84z" />
    <glyph glyph-name="increment" unicode="&#x2206;" horiz-adv-x="1361" 
d="M1284 129v-129h-1206v129l534 1350h138zM1124 147l-444 1141l-444 -1141h888z" />
    <glyph glyph-name="product" unicode="&#x220f;" horiz-adv-x="1357" 
d="M307 0h-170v1329h-96v150h1276v-150h-98v-1329h-168v1329h-744v-1329z" />
    <glyph glyph-name="summation" unicode="&#x2211;" horiz-adv-x="1320" 
d="M1169 1479v-150h-835l467 -567l-469 -615h891v-147h-1141v86l526 676l-526 631v86h1087z" />
    <glyph glyph-name="minus" unicode="&#x2212;" horiz-adv-x="1183" 
d="M1040 735v-121h-895v121h895z" />
    <glyph glyph-name="radical" unicode="&#x221a;" horiz-adv-x="1329" 
d="M700 150l273 1419h272v-94h-198l-304 -1510h-63l-440 909l-103 -49l-31 74l187 94z" />
    <glyph glyph-name="infinity" unicode="&#x221e;" horiz-adv-x="1419" 
d="M150 643q0 -71 50.5 -121.5t133.5 -50.5q56 0 132 51.5t128 120.5q-51 65 -129 119q-71 51 -131 51q-83 0 -133.5 -50.5t-50.5 -119.5zM680 535l-98 -101q-37 -37 -108 -69.5t-140 -32.5q-143 0 -232 92q-86 92 -86 219q0 128 86 217q90 90 232 90q100 0 179 -49.5
t165 -150.5q60 67 94 98q46 41 115 71.5t137 30.5q144 0 231 -90q88 -88 88 -217q0 -128 -88 -219q-86 -92 -231 -92q-71 0 -143 35q-72 37 -105 67q-27 24 -96 101zM1210 643q0 69 -51.5 119.5t-134.5 50.5q-59 0 -133 -51q-77 -55 -127 -119q52 -69 128 -120.5t132 -51.5
q83 0 134.5 51t51.5 121z" />
    <glyph glyph-name="integral" unicode="&#x222b;" horiz-adv-x="776" 
d="M160 -221q153 0 153 317q0 143 -18 422q-16 298 -16 408q0 213 28 360q26 149 97.5 229t201.5 87q66 0 112 -34t46 -98q0 -38 -22 -63t-58 -25q-41 0 -64.5 25.5t-23.5 65.5q0 36 33 75q-43 0 -69 -12t-54 -49q-55 -77 -55 -338q0 -117 16 -395q18 -261 18 -375
q0 -224 -51 -404q-30 -112 -95 -174.5t-159 -62.5q-71 0 -120.5 36.5t-49.5 96.5q0 36 22 62t58 26q38 0 63 -26.5t25 -65.5q0 -58 -45 -84q5 -1 11.5 -2t10 -1.5t5.5 -0.5z" />
    <glyph glyph-name="approxequal" unicode="&#x2248;" horiz-adv-x="1171" 
d="M801 813q101 0 190 127l86 -59q-74 -107 -142.5 -148t-166.5 -41q-86 0 -213 74q-125 76 -182 76q-105 0 -193 -125l-84 57q74 104 145.5 146.5t166.5 42.5q85 0 210 -76q127 -74 183 -74zM801 438q102 0 190 125l86 -59q-74 -108 -142 -149.5t-167 -41.5q-86 0 -211 76
q-128 78 -184 78q-105 0 -193 -129l-84 61q74 104 145.5 146.5t166.5 42.5q85 0 210 -76q127 -74 183 -74z" />
    <glyph glyph-name="notequal" unicode="&#x2260;" horiz-adv-x="1183" 
d="M391 207l-106 65l88 150h-228v123h304l155 256h-459v123h537l131 219l107 -68l-93 -151h213v-123h-286l-160 -256h446v-123h-522z" />
    <glyph glyph-name="lessequal" unicode="&#x2264;" horiz-adv-x="1183" 
d="M1040 473v-137l-895 377v47l895 379v-135l-626 -267zM1040 190v-122h-895v122h895z" />
    <glyph glyph-name="greaterequal" unicode="&#x2265;" horiz-adv-x="1183" 
d="M1040 760v-47l-895 -377v137l627 264l-627 267v135zM1040 190v-122h-895v122h895z" />
    <glyph glyph-name="lozenge" unicode="&#x25ca;" horiz-adv-x="1210" 
d="M573 1479h62l450 -740l-450 -739h-62l-448 739zM266 739l336 -565l340 565l-340 561z" />
    <glyph glyph-name="commaaccent" unicode="&#xf6c3;" horiz-adv-x="548" 
d="M156 -109h188q16 -101 16 -184q0 -164 -196 -272q0 1 -21 35l-20 38q133 71 133 183h-100v200z" />
    <glyph glyph-name="cyrBreve" unicode="&#xf6d1;" horiz-adv-x="1398" 
d="M887 1841l157 -12q0 -273 -346 -273q-344 0 -344 273l156 12q0 -170 188 -170q189 0 189 170z" />
    <glyph glyph-name="cyrbreve" unicode="&#xf6d4;" horiz-adv-x="1085" 
d="M541 1163q161 0 164 150l139 -13q0 -117 -77.5 -177t-225.5 -60q-144 0 -221.5 60t-77.5 177l139 13q3 -150 160 -150z" />
    <glyph glyph-name="Lslashsmall" unicode="&#xf6f9;" horiz-adv-x="929" 
d="M-2 346l-39 105l178 73v467h172v-401l291 119l41 -105l-332 -135v-326h590v-143h-762v403z" />
    <glyph glyph-name="OEsmall" unicode="&#xf6fa;" horiz-adv-x="1763" 
d="M1092 143h594v-143h-764v115q-123 -144 -334 -144q-236 0 -369 148q-133 151 -133 377q0 223 133 374q132 150 369 150q206 0 334 -146v117h739v-145h-569v-264h444v-144h-444v-295zM588 874q-153 0 -242.5 -104t-89.5 -274t89.5 -275.5t242.5 -105.5q156 0 245 105.5
t89 275.5t-89 274t-245 104z" />
    <glyph glyph-name="Scaronsmall" unicode="&#xf6fd;" horiz-adv-x="1001" 
d="M436 1133l-190 307h90l180 -197l180 197h90l-190 -307h-160zM932 274q0 -143 -131 -225q-133 -80 -299 -80q-174 0 -299 78q-122 81 -137 266l167 15q21 -224 269 -224q91 0 168 41q80 41 80 125q0 44 -36 74.5t-93.5 47.5t-127 31.5t-139 35.5t-127 51.5t-93.5 86
t-36 132.5q0 137 119 213q122 78 277 78q57 0 108.5 -8.5t105 -31t94 -57t68.5 -92t35 -131.5l-170 -14q-21 199 -241 199q-112 0 -177 -40t-65 -102q0 -119 240 -168q184 -35 261 -67q179 -74 179 -234z" />
    <glyph glyph-name="Zcaronsmall" unicode="&#xf6ff;" horiz-adv-x="962" 
d="M399 1133l-190 307h90l180 -197l180 197h91l-191 -307h-160zM670 846h-592v145h823v-100l-616 -748h620v-143h-850v98z" />
    <glyph glyph-name="Asmall" unicode="&#xf761;" horiz-adv-x="1110" 
d="M1079 0h-186l-96 217h-518l-99 -217h-149l446 991h156zM729 360l-192 435l-193 -435h385z" />
    <glyph glyph-name="Bsmall" unicode="&#xf762;" horiz-adv-x="1026" 
d="M547 846h-242v-264h242q114 -6 161.5 63.5t0 138.5t-161.5 62zM137 0v991h400q188 0 274 -59t86 -184q0 -91 -58 -151.5t-149 -78.5q126 -13 194 -79.5t68 -170.5q0 -123 -105.5 -195.5t-275.5 -72.5h-434zM782 287q0 77 -61.5 114t-208.5 37h-207v-295h266
q211 0 211 144z" />
    <glyph glyph-name="Csmall" unicode="&#xf763;" horiz-adv-x="1116" 
d="M874 358l168 -14q-24 -175 -153 -274t-289 -99q-226 0 -371 148q-143 146 -143 375q0 227 143 376q144 150 373 150q152 0 277 -94q125 -91 149 -283l-170 -14q-17 119 -88 182t-168 63q-159 0 -249.5 -102.5t-90.5 -277.5q0 -174 90.5 -276.5t247.5 -102.5
q101 0 178.5 65.5t95.5 177.5z" />
    <glyph glyph-name="Dsmall" unicode="&#xf764;" horiz-adv-x="1140" 
d="M532 0h-395v991h400q247 0 381 -143q135 -144 135 -352q0 -209 -140 -355q-138 -141 -381 -141zM518 846h-213v-703h203q181 0 278 95.5t97 257.5q0 160 -93.5 255t-271.5 95z" />
    <glyph glyph-name="Esmall" unicode="&#xf765;" horiz-adv-x="976" 
d="M307 143h594v-143h-764v991h740v-145h-570v-264h447v-144h-447v-295z" />
    <glyph glyph-name="Fsmall" unicode="&#xf766;" horiz-adv-x="897" 
d="M307 438v-438h-170v991h729v-145h-559v-264h447v-144h-447z" />
    <glyph glyph-name="Gsmall" unicode="&#xf767;" horiz-adv-x="1206" 
d="M1047 0h-93l-28 92q-139 -121 -326 -121q-226 0 -371 148q-143 146 -143 375q0 227 143 376q144 150 373 150q151 0 270 -88q124 -89 148 -270l-168 -17q-18 106 -89 169t-161 63q-157 0 -248.5 -104.5t-91.5 -278.5t90.5 -277.5t247.5 -103.5q148 0 272 106v141h-288
v150h463v-510z" />
    <glyph glyph-name="Hsmall" unicode="&#xf768;" horiz-adv-x="1169" 
d="M1032 991v-991h-170v438h-555v-438h-170v991h170v-409h555v409h170z" />
    <glyph glyph-name="Ismall" unicode="&#xf769;" horiz-adv-x="444" 
d="M307 991v-991h-170v991h170z" />
    <glyph glyph-name="Jsmall" unicode="&#xf76a;" horiz-adv-x="815" 
d="M532 991h170v-626q0 -204 -91 -294.5t-273 -90.5q-172 0 -244 96q-71 95 -71 241h170q0 -92 41.5 -143t115.5 -51q182 0 182 205v663z" />
    <glyph glyph-name="Ksmall" unicode="&#xf76b;" horiz-adv-x="1071" 
d="M137 991h170v-514l514 514h183l-404 -411l426 -580h-209l-338 455l-172 -174v-281h-170v991z" />
    <glyph glyph-name="Lsmall" unicode="&#xf76c;" horiz-adv-x="929" 
d="M309 143h590v-143h-762v991h172v-848z" />
    <glyph glyph-name="Msmall" unicode="&#xf76d;" horiz-adv-x="1400" 
d="M137 991h287l276 -762l277 762h285v-991h-168v840h-13l-311 -840h-154l-299 840h-12v-840h-168v991z" />
    <glyph glyph-name="Nsmall" unicode="&#xf76e;" horiz-adv-x="1181" 
d="M346 991l541 -776h8v776h149v-991h-208l-541 776h-8v-776h-150v991h209z" />
    <glyph glyph-name="Osmall" unicode="&#xf76f;" horiz-adv-x="1179" 
d="M1092 496q0 -226 -136 -377q-133 -148 -368 -148q-236 0 -369 148q-133 151 -133 377q0 223 133 374q132 150 369 150q236 0 368 -150q136 -151 136 -374zM588 874q-153 0 -242.5 -104t-89.5 -274t89.5 -275.5t242.5 -105.5q156 0 245 105.5t89 275.5t-89 274t-245 104z
" />
    <glyph glyph-name="Psmall" unicode="&#xf770;" horiz-adv-x="1007" 
d="M307 846v-342h277q84 0 135 48.5t51 123.5q0 74 -51 122t-135 48h-277zM137 0v991h438q175 0 270 -83.5t95 -231.5t-97.5 -233t-267.5 -85h-268v-358h-170z" />
    <glyph glyph-name="Qsmall" unicode="&#xf771;" horiz-adv-x="1179" 
d="M1092 496q0 -182 -86 -314.5t-240 -183.5q11 -80 25 -100.5t63 -20.5q27 0 68 14l14 -116q-64 -21 -117 -21q-101 0 -146 50.5t-59 170.5q-3 0 -13.5 -1t-14.5 -1q-234 0 -367 148t-133 375q0 223 133 374q132 150 369 150q236 0 368 -150q136 -151 136 -374zM922 496
q0 170 -89 274t-245 104q-153 0 -242.5 -104t-89.5 -274q0 -177 92 -278t256 -101q-2 6 -2 24q-11 96 -30 132t-62 36q-40 0 -84 -12l-14 117q82 16 133 16q102 0 148 -64t57 -212q172 94 172 342z" />
    <glyph glyph-name="Rsmall" unicode="&#xf772;" horiz-adv-x="1032" 
d="M137 0v991h404q385 0 385 -303q0 -85 -58 -164q-60 -78 -149 -96q67 -26 106 -115q34 -74 64 -180q26 -91 74 -133h-205l-74 231q-26 86 -59 109q-28 22 -109 22h-209v-362h-170zM563 846h-256v-338h256q93 0 142 47t49 133q0 71 -50.5 114.5t-140.5 43.5z" />
    <glyph glyph-name="Ssmall" unicode="&#xf773;" horiz-adv-x="1001" 
d="M932 274q0 -143 -131 -225q-133 -80 -299 -80q-174 0 -299 78q-122 81 -137 266l167 15q21 -224 269 -224q91 0 168 41q80 41 80 125q0 44 -36 74.5t-93.5 47.5t-127 31.5t-139 35.5t-127 51.5t-93.5 86t-36 132.5q0 137 119 213q122 78 277 78q57 0 108.5 -8.5t105 -31
t94 -57t68.5 -92t35 -131.5l-170 -14q-21 199 -241 199q-112 0 -177 -40t-65 -102q0 -119 240 -168q184 -35 261 -67q179 -74 179 -234z" />
    <glyph glyph-name="Tsmall" unicode="&#xf774;" horiz-adv-x="964" 
d="M567 846v-846h-170v846h-366v145h903v-145h-367z" />
    <glyph glyph-name="Usmall" unicode="&#xf775;" horiz-adv-x="1132" 
d="M874 991h146v-665q0 -160 -131 -258q-132 -97 -324 -97q-201 0 -327 99q-125 101 -125 256v665h168v-651q0 -108 78.5 -166.5t218.5 -58.5q142 0 219 58.5t77 166.5v651z" />
    <glyph glyph-name="Vsmall" unicode="&#xf776;" horiz-adv-x="1110" 
d="M31 991h184l354 -798l359 798h151l-448 -991h-154z" />
    <glyph glyph-name="Wsmall" unicode="&#xf777;" horiz-adv-x="1617" 
d="M733 991h185l260 -766l260 766h149l-350 -991h-154l-274 795l-270 -795h-154l-354 991h184l264 -766z" />
    <glyph glyph-name="Xsmall" unicode="&#xf778;" horiz-adv-x="1132" 
d="M78 991h217l278 -356l289 356h191l-385 -469l415 -522h-217l-309 391l-319 -391h-191l416 506z" />
    <glyph glyph-name="Ysmall" unicode="&#xf779;" horiz-adv-x="1040" 
d="M846 991h164l-398 -631v-360h-170v360l-411 631h202l310 -495z" />
    <glyph glyph-name="Zsmall" unicode="&#xf77a;" horiz-adv-x="962" 
d="M670 846h-592v145h823v-100l-616 -748h620v-143h-850v98z" />
    <glyph glyph-name="Agravesmall" unicode="&#xf7e0;" horiz-adv-x="1110" 
d="M555 1440l160 -307h-92l-261 307h193zM1079 0h-186l-96 217h-518l-99 -217h-149l446 991h156zM729 360l-192 435l-193 -435h385z" />
    <glyph glyph-name="Aacutesmall" unicode="&#xf7e1;" horiz-adv-x="1110" 
d="M760 1440l-262 -307h-90l159 307h193zM1079 0h-186l-96 217h-518l-99 -217h-149l446 991h156zM729 360l-192 435l-193 -435h385z" />
    <glyph glyph-name="Acircumflexsmall" unicode="&#xf7e2;" horiz-adv-x="1110" 
d="M1079 0h-186l-96 217h-518l-99 -217h-149l446 991h156zM729 360l-192 435l-193 -435h385zM555 1329l-180 -196h-90l190 307h160l190 -307h-90z" />
    <glyph glyph-name="Atildesmall" unicode="&#xf7e3;" horiz-adv-x="1110" 
d="M451 1243q-67 0 -125 -94l-68 47q44 93 86.5 131.5t108.5 38.5q57 0 116 -47q60 -45 90 -45q64 0 123 90l68 -43q-44 -94 -86 -133t-107 -39q-58 0 -120 47t-86 47zM1079 0h-186l-96 217h-518l-99 -217h-149l446 991h156zM729 360l-192 435l-193 -435h385z" />
    <glyph glyph-name="Adieresissmall" unicode="&#xf7e4;" horiz-adv-x="1110" 
d="M1079 0h-186l-96 217h-518l-99 -217h-149l446 991h156zM729 360l-192 435l-193 -435h385zM815 1356v-209h-153v209h153zM446 1356v-209h-153v209h153z" />
    <glyph glyph-name="Aringsmall" unicode="&#xf7e5;" horiz-adv-x="1110" 
d="M555 1362q-33 0 -57.5 -23.5t-24.5 -58.5t24.5 -60.5t57.5 -25.5t57.5 25.5t24.5 60.5t-23.5 58.5t-58.5 23.5zM555 1126q-66 0 -109 44t-43 110t43 109t109 43t108 -43t42 -109t-43.5 -110t-106.5 -44zM1079 0h-186l-96 217h-518l-99 -217h-149l446 991h156zM729 360
l-192 435l-193 -435h385z" />
    <glyph glyph-name="AEsmall" unicode="&#xf7e6;" horiz-adv-x="1646" 
d="M379 213l-166 -213h-186l766 991h753v-145h-569v-264h444v-144h-444v-295h594v-143h-764v213h-428zM807 356v414l-318 -414h318z" />
    <glyph glyph-name="Ccedillasmall" unicode="&#xf7e7;" horiz-adv-x="1116" 
d="M422 -326l20 62q47 -29 93 -29q92 0 92 66q0 69 -152 69l39 138q-194 24 -311 165q-117 144 -117 349q0 227 143 376q144 150 373 150q152 0 277 -94q125 -91 149 -283l-170 -14q-17 119 -88 182t-168 63q-159 0 -249.5 -102.5t-90.5 -277.5q0 -174 90.5 -276.5
t247.5 -102.5q101 0 178.5 65.5t95.5 177.5l168 -14q-25 -168 -141.5 -263.5t-288.5 -109.5l-22 -77q59 -2 98 -35t39 -88q0 -57 -46 -96.5t-122 -39.5q-72 0 -137 39z" />
    <glyph glyph-name="Egravesmall" unicode="&#xf7e8;" horiz-adv-x="976" 
d="M543 1440l159 -307h-92l-260 307h193zM307 143h594v-143h-764v991h740v-145h-570v-264h447v-144h-447v-295z" />
    <glyph glyph-name="Eacutesmall" unicode="&#xf7e9;" horiz-adv-x="976" 
d="M739 1440l-262 -307h-90l160 307h192zM307 143h594v-143h-764v991h740v-145h-570v-264h447v-144h-447v-295z" />
    <glyph glyph-name="Ecircumflexsmall" unicode="&#xf7ea;" horiz-adv-x="976" 
d="M307 143h594v-143h-764v991h740v-145h-570v-264h447v-144h-447v-295zM508 1329l-180 -196h-90l190 307h160l190 -307h-90z" />
    <glyph glyph-name="Edieresissmall" unicode="&#xf7eb;" horiz-adv-x="976" 
d="M307 143h594v-143h-764v991h740v-145h-570v-264h447v-144h-447v-295zM768 1356v-209h-154v209h154zM399 1356v-209h-153v209h153z" />
    <glyph glyph-name="Igravesmall" unicode="&#xf7ec;" horiz-adv-x="444" 
d="M240 1440l159 -307h-92l-260 307h193zM307 991v-991h-170v991h170z" />
    <glyph glyph-name="Iacutesmall" unicode="&#xf7ed;" horiz-adv-x="444" 
d="M399 1440l-262 -307h-90l160 307h192zM307 991v-991h-170v991h170z" />
    <glyph glyph-name="Icircumflexsmall" unicode="&#xf7ee;" horiz-adv-x="444" 
d="M221 1329l-139 -196h-90l149 307h160l150 -307h-91zM307 991v-991h-170v991h170z" />
    <glyph glyph-name="Idieresissmall" unicode="&#xf7ef;" horiz-adv-x="444" 
d="M442 1356v-209h-153v209h153zM156 1356v-209h-154v209h154zM307 991v-991h-170v991h170z" />
    <glyph glyph-name="Ethsmall" unicode="&#xf7f0;" horiz-adv-x="1157" 
d="M549 0h-395v438h-123v144h123v409h399q247 0 381 -143q135 -144 135 -352q0 -210 -139 -355q-138 -141 -381 -141zM535 846h-213v-264h245v-144h-245v-295h202q181 0 278 95.5t97 257.5q0 160 -93 255t-271 95z" />
    <glyph glyph-name="Ntildesmall" unicode="&#xf7f1;" horiz-adv-x="1181" 
d="M485 1243q-67 0 -125 -94l-67 47q44 93 86 131.5t108 38.5q58 0 117 -47q60 -45 90 -45q67 0 123 90l68 -43q-44 -94 -86 -133t-107 -39q-59 0 -121 47t-86 47zM346 991l541 -776h8v776h149v-991h-208l-541 776h-8v-776h-150v991h209z" />
    <glyph glyph-name="Ogravesmall" unicode="&#xf7f2;" horiz-adv-x="1179" 
d="M573 1440l160 -307h-92l-260 307h192zM1092 496q0 -226 -136 -377q-133 -148 -368 -148q-236 0 -369 148q-133 151 -133 377q0 223 133 374q132 150 369 150q236 0 368 -150q136 -151 136 -374zM588 874q-153 0 -242.5 -104t-89.5 -274t89.5 -275.5t242.5 -105.5
q156 0 245 105.5t89 275.5t-89 274t-245 104z" />
    <glyph glyph-name="Oacutesmall" unicode="&#xf7f3;" horiz-adv-x="1179" 
d="M811 1440l-262 -307h-90l159 307h193zM1092 496q0 -226 -136 -377q-133 -148 -368 -148q-236 0 -369 148q-133 151 -133 377q0 223 133 374q132 150 369 150q236 0 368 -150q136 -151 136 -374zM588 874q-153 0 -242.5 -104t-89.5 -274t89.5 -275.5t242.5 -105.5
q156 0 245 105.5t89 275.5t-89 274t-245 104z" />
    <glyph glyph-name="Ocircumflexsmall" unicode="&#xf7f4;" horiz-adv-x="1179" 
d="M1092 496q0 -226 -136 -377q-133 -148 -368 -148q-236 0 -369 148q-133 151 -133 377q0 223 133 374q132 150 369 150q236 0 368 -150q136 -151 136 -374zM588 874q-153 0 -242.5 -104t-89.5 -274t89.5 -275.5t242.5 -105.5q156 0 245 105.5t89 275.5t-89 274t-245 104z
M588 1329l-180 -196h-91l191 307h160l190 -307h-90z" />
    <glyph glyph-name="Otildesmall" unicode="&#xf7f5;" horiz-adv-x="1179" 
d="M483 1243q-67 0 -125 -94l-67 47q44 93 86 131.5t108 38.5q58 0 117 -47q60 -45 90 -45q64 0 123 90l68 -43q-44 -94 -86 -133t-107 -39q-59 0 -121 47t-86 47zM1092 496q0 -226 -136 -377q-133 -148 -368 -148q-236 0 -369 148q-133 151 -133 377q0 223 133 374
q132 150 369 150q236 0 368 -150q136 -151 136 -374zM588 874q-153 0 -242.5 -104t-89.5 -274t89.5 -275.5t242.5 -105.5q156 0 245 105.5t89 275.5t-89 274t-245 104z" />
    <glyph glyph-name="Odieresissmall" unicode="&#xf7f6;" horiz-adv-x="1179" 
d="M1092 496q0 -226 -136 -377q-133 -148 -368 -148q-236 0 -369 148q-133 151 -133 377q0 223 133 374q132 150 369 150q236 0 368 -150q136 -151 136 -374zM588 874q-153 0 -242.5 -104t-89.5 -274t89.5 -275.5t242.5 -105.5q156 0 245 105.5t89 275.5t-89 274t-245 104z
M850 1356v-209h-154v209h154zM481 1356v-209h-153v209h153z" />
    <glyph glyph-name="Oslashsmall" unicode="&#xf7f8;" horiz-adv-x="1179" 
d="M1092 496q0 -226 -136 -377q-132 -150 -368 -150q-163 0 -287 86l-47 -55h-152l109 129q-125 143 -125 367q0 223 133 374q132 150 369 150q172 0 299 -92l53 63h135l-108 -133q125 -137 125 -362zM256 496q0 -139 61 -240l469 551q-79 67 -198 67q-153 0 -242.5 -104
t-89.5 -274zM922 496q0 130 -62 233l-461 -555q77 -59 189 -59q156 0 245 105.5t89 275.5z" />
    <glyph glyph-name="Ugravesmall" unicode="&#xf7f9;" horiz-adv-x="1132" 
d="M582 1440l159 -307h-92l-260 307h193zM874 991h146v-665q0 -160 -131 -258q-132 -97 -324 -97q-201 0 -327 99q-125 101 -125 256v665h168v-651q0 -108 78.5 -166.5t218.5 -58.5q142 0 219 58.5t77 166.5v651z" />
    <glyph glyph-name="Uacutesmall" unicode="&#xf7fa;" horiz-adv-x="1132" 
d="M803 1440l-262 -307h-90l159 307h193zM874 991h146v-665q0 -160 -131 -258q-132 -97 -324 -97q-201 0 -327 99q-125 101 -125 256v665h168v-651q0 -108 78.5 -166.5t218.5 -58.5q142 0 219 58.5t77 166.5v651z" />
    <glyph glyph-name="Ucircumflexsmall" unicode="&#xf7fb;" horiz-adv-x="1132" 
d="M874 991h146v-665q0 -160 -131 -258q-132 -97 -324 -97q-201 0 -327 99q-125 101 -125 256v665h168v-651q0 -108 78.5 -166.5t218.5 -58.5q142 0 219 58.5t77 166.5v651zM565 1329l-180 -196h-90l190 307h160l191 -307h-91z" />
    <glyph glyph-name="Udieresissmall" unicode="&#xf7fc;" horiz-adv-x="1132" 
d="M874 991h146v-665q0 -160 -131 -258q-132 -97 -324 -97q-201 0 -327 99q-125 101 -125 256v665h168v-651q0 -108 78.5 -166.5t218.5 -58.5q142 0 219 58.5t77 166.5v651zM825 1356v-209h-153v209h153zM457 1356v-209h-154v209h154z" />
    <glyph glyph-name="Yacutesmall" unicode="&#xf7fd;" horiz-adv-x="1040" 
d="M758 1440l-262 -307h-90l159 307h193zM846 991h164l-398 -631v-360h-170v360l-411 631h202l310 -495z" />
    <glyph glyph-name="Thornsmall" unicode="&#xf7fe;" horiz-adv-x="1007" 
d="M137 0v1016h170v-158h283q164 0 257 -79.5t93 -235.5t-93.5 -237t-256.5 -81h-283v-225h-170zM307 713v-342h277q84 0 135 48.5t51 123.5q0 74 -51 122t-135 48h-277z" />
    <glyph glyph-name="Ydieresissmall" unicode="&#xf7ff;" horiz-adv-x="1040" 
d="M846 991h164l-398 -631v-360h-170v360l-411 631h202l310 -495zM780 1356v-209h-153v209h153zM412 1356v-209h-154v209h154z" />
    <glyph glyph-name="NULL" horiz-adv-x="0" 
 />
    <glyph glyph-name="CR" horiz-adv-x="681" 
 />
    <glyph glyph-name="Amacronsmall" horiz-adv-x="1110" 
d="M1079 0h-186l-96 217h-518l-99 -217h-149l446 991h156zM729 360l-192 435l-193 -435h385zM831 1327v-135h-555v135h555z" />
    <glyph glyph-name="Aogoneksmall" horiz-adv-x="1110" 
d="M477 991h156l446 -991q-81 -38 -134.5 -91.5t-53.5 -96.5q0 -64 78 -64q48 0 104 33l25 -55q-84 -66 -189 -66q-66 0 -103.5 38t-37.5 97q0 54 33 111t92 94l-96 217h-518l-99 -217h-149zM729 360l-192 435l-193 -435h385z" />
    <glyph glyph-name="Cacutesmall" horiz-adv-x="1116" 
d="M803 1440l-262 -307h-90l159 307h193zM874 358l168 -14q-24 -175 -153 -274t-289 -99q-226 0 -371 148q-143 146 -143 375q0 227 143 376q144 150 373 150q152 0 277 -94q125 -91 149 -283l-170 -14q-17 119 -88 182t-168 63q-159 0 -249.5 -102.5t-90.5 -277.5
q0 -174 90.5 -276.5t247.5 -102.5q101 0 178.5 65.5t95.5 177.5z" />
    <glyph glyph-name="Ccaronsmall" horiz-adv-x="1116" 
d="M520 1133l-190 307h90l180 -197l180 197h90l-190 -307h-160zM874 358l168 -14q-24 -175 -153 -274t-289 -99q-226 0 -371 148q-143 146 -143 375q0 227 143 376q144 150 373 150q152 0 277 -94q125 -91 149 -283l-170 -14q-17 119 -88 182t-168 63q-159 0 -249.5 -102.5
t-90.5 -277.5q0 -174 90.5 -276.5t247.5 -102.5q101 0 178.5 65.5t95.5 177.5z" />
    <glyph glyph-name="Dcaronsmall" horiz-adv-x="1140" 
d="M469 1133l-190 307h90l180 -197l180 197h90l-190 -307h-160zM532 0h-395v991h400q247 0 381 -143q135 -144 135 -352q0 -209 -140 -355q-138 -141 -381 -141zM518 846h-213v-703h203q181 0 278 95.5t97 257.5q0 160 -93.5 255t-271.5 95z" />
    <glyph glyph-name="Dcroatsmall" horiz-adv-x="1157" 
d="M549 0h-395v438h-123v144h123v409h399q247 0 381 -143q135 -144 135 -352q0 -210 -139 -355q-138 -141 -381 -141zM535 846h-213v-264h245v-144h-245v-295h202q181 0 278 95.5t97 257.5q0 160 -93 255t-271 95z" />
    <glyph glyph-name="Ecaronsmall" horiz-adv-x="976" 
d="M428 1133l-190 307h90l180 -197l180 197h90l-190 -307h-160zM307 143h594v-143h-764v991h740v-145h-570v-264h447v-144h-447v-295z" />
    <glyph glyph-name="Edotaccentsmall" horiz-adv-x="976" 
d="M307 143h594v-143h-764v991h740v-145h-570v-264h447v-144h-447v-295zM584 1372v-225h-154v225h154z" />
    <glyph glyph-name="Emacronsmall" horiz-adv-x="976" 
d="M307 143h594v-143h-764v991h740v-145h-570v-264h447v-144h-447v-295zM797 1327v-135h-555v135h555z" />
    <glyph glyph-name="Eogoneksmall" horiz-adv-x="976" 
d="M752 0h-615v991h740v-145h-570v-264h447v-144h-447v-295h594v-143q-82 -42 -135 -95t-53 -95q0 -64 78 -64q45 0 104 33l25 -53q-80 -68 -189 -68q-67 0 -105 39t-38 102q0 53 42.5 107t121.5 94z" />
    <glyph glyph-name="Euro.small" horiz-adv-x="1085" 
d="M0 518v92h96q34 180 164 295t318 115q70 0 135 -20.5t124.5 -63t101 -117.5t54.5 -174l-168 -16q-17 124 -83 184.5t-164 60.5q-120 0 -200.5 -70.5t-105.5 -193.5h428l-34 -92h-406q-2 -6 -2 -24q0 -43 6 -80h371l-33 -92h-311q80 -207 287 -207q101 0 171.5 64
t88.5 183l170 -16q-27 -177 -150 -276q-120 -99 -280 -99q-171 0 -295 94.5t-172 256.5h-111v92h88q-4 66 -4 80v24h-84z" />
    <glyph glyph-name="Gcommaaccentsmall" horiz-adv-x="1206" 
d="M1047 0h-93l-28 92q-139 -121 -326 -121q-226 0 -371 148q-143 146 -143 375q0 227 143 376q144 150 373 150q151 0 270 -88q124 -89 148 -270l-168 -17q-18 106 -89 169t-161 63q-157 0 -248.5 -104.5t-91.5 -278.5t90.5 -277.5t247.5 -103.5q148 0 272 106v141h-288
v150h463v-510zM504 -109h188q17 -107 17 -184q0 -164 -197 -272q0 2 -20 35l-21 38q133 71 133 183h-100v200z" />
    <glyph glyph-name="Imacronsmall" horiz-adv-x="444" 
d="M307 991v-991h-170v991h170zM434 1327v-135h-424v135h424z" />
    <glyph glyph-name="Iogoneksmall" horiz-adv-x="444" 
d="M137 991h170v-991q-81 -38 -134.5 -91.5t-53.5 -96.5q0 -64 78 -64q48 0 104 33l25 -55q-84 -66 -189 -66q-67 0 -104 39t-37 102q0 51 37 105t104 94v991z" />
    <glyph glyph-name="Kcommaaccentsmall" horiz-adv-x="1071" 
d="M137 991h170v-514l514 514h183l-404 -411l426 -580h-209l-338 455l-172 -174v-281h-170v991zM436 -109h189q16 -101 16 -184q0 -164 -197 -272l-20 35l-21 38q134 72 134 183h-101v200z" />
    <glyph glyph-name="Lacutesmall" horiz-adv-x="929" 
d="M625 1440l-263 -307h-90l160 307h193zM309 143h590v-143h-762v991h172v-848z" />
    <glyph glyph-name="Lcaronsmall" horiz-adv-x="929" 
d="M309 143h590v-143h-762v991h172v-848zM496 991h188q16 -98 16 -211q0 -150 -196 -270l-41 74q72 43 101.5 89t29.5 118h-98v200z" />
    <glyph glyph-name="Lcommaaccentsmall" horiz-adv-x="929" 
d="M309 143h590v-143h-762v991h172v-848zM399 -109h189q16 -101 16 -184q0 -164 -196 -272l-21 35l-20 38q133 71 133 183h-101v200z" />
    <glyph glyph-name="Nacutesmall" horiz-adv-x="1181" 
d="M834 1440l-263 -307h-90l160 307h193zM346 991l541 -776h8v776h149v-991h-208l-541 776h-8v-776h-150v991h209z" />
    <glyph glyph-name="Ncaronsmall" horiz-adv-x="1181" 
d="M510 1133l-191 307h91l180 -197l180 197h90l-190 -307h-160zM346 991l541 -776h8v776h149v-991h-208l-541 776h-8v-776h-150v991h209z" />
    <glyph glyph-name="Ncommaaccentsmall" horiz-adv-x="1181" 
d="M346 991l541 -776h8v776h149v-991h-208l-541 776h-8v-776h-150v991h209zM479 -109h189q16 -101 16 -184q0 -164 -197 -272q0 2 -20 35l-21 38q134 72 134 183h-101v200z" />
    <glyph glyph-name="Ohungarumlautsmall" horiz-adv-x="1179" 
d="M1092 496q0 -226 -136 -377q-133 -148 -368 -148q-236 0 -369 148q-133 151 -133 377q0 223 133 374q132 150 369 150q236 0 368 -150q136 -151 136 -374zM588 874q-153 0 -242.5 -104t-89.5 -274t89.5 -275.5t242.5 -105.5q156 0 245 105.5t89 275.5t-89 274t-245 104z
M702 1440l-260 -307h-92l160 307h192zM1020 1440l-260 -307h-92l159 307h193z" />
    <glyph glyph-name="Omacronsmall" horiz-adv-x="1179" 
d="M1092 496q0 -226 -136 -377q-133 -148 -368 -148q-236 0 -369 148q-133 151 -133 377q0 223 133 374q132 150 369 150q236 0 368 -150q136 -151 136 -374zM588 874q-153 0 -242.5 -104t-89.5 -274t89.5 -275.5t242.5 -105.5q156 0 245 105.5t89 275.5t-89 274t-245 104z
M850 1327v-135h-555v135h555z" />
    <glyph glyph-name="R.alt" horiz-adv-x="1298" 
d="M1020 0l-391 600h-322v-600h-170v1479h492q252 0 383 -113t131 -324q0 -166 -83 -274.5t-241 -144.5l408 -623h-207zM307 1329v-579h342q156 0 240 79t84 213q0 136 -87 211.5t-255 75.5h-324z" />
    <glyph glyph-name="R.altacute" horiz-adv-x="1298" 
d="M1020 0l-391 600h-322v-600h-170v1479h492q252 0 383 -113t131 -324q0 -166 -83 -274.5t-241 -144.5l408 -623h-207zM307 1329v-579h342q156 0 240 79t84 213q0 136 -87 211.5t-255 75.5h-324zM780 1980l-262 -307h-90l160 307h192z" />
    <glyph glyph-name="R.altcaron" horiz-adv-x="1298" 
d="M537 1673l-191 307h90l180 -196l181 196h90l-191 -307h-159zM1020 0l-391 600h-322v-600h-170v1479h492q252 0 383 -113t131 -324q0 -166 -83 -274.5t-241 -144.5l408 -623h-207zM307 1329v-579h342q156 0 240 79t84 213q0 136 -87 211.5t-255 75.5h-324z" />
    <glyph glyph-name="R.altcommaaccent" horiz-adv-x="1298" 
d="M1020 0l-391 600h-322v-600h-170v1479h492q252 0 383 -113t131 -324q0 -166 -83 -274.5t-241 -144.5l408 -623h-207zM307 1329v-579h342q156 0 240 79t84 213q0 136 -87 211.5t-255 75.5h-324zM524 -109h189q16 -101 16 -184q0 -164 -197 -272q0 2 -20 35l-20 38
q133 71 133 183h-101v200z" />
    <glyph glyph-name="Racutesmall" horiz-adv-x="1032" 
d="M713 1440l-262 -307h-91l160 307h193zM137 0v991h404q385 0 385 -303q0 -85 -58 -164q-60 -78 -149 -96q67 -26 106 -115q34 -74 64 -180q26 -91 74 -133h-205l-74 231q-26 86 -59 109q-28 22 -109 22h-209v-362h-170zM563 846h-256v-338h256q93 0 142 47t49 133
q0 71 -50.5 114.5t-140.5 43.5z" />
    <glyph glyph-name="Rcaronsmall" horiz-adv-x="1032" 
d="M420 1133l-191 307h90l181 -197l180 197h90l-190 -307h-160zM137 0v991h404q385 0 385 -303q0 -85 -58 -164q-60 -78 -149 -96q67 -26 106 -115q34 -74 64 -180q26 -91 74 -133h-205l-74 231q-26 86 -59 109q-28 22 -109 22h-209v-362h-170zM563 846h-256v-338h256
q93 0 142 47t49 133q0 71 -50.5 114.5t-140.5 43.5z" />
    <glyph glyph-name="Rcommaaccentsmall" horiz-adv-x="1032" 
d="M137 0v991h404q385 0 385 -303q0 -85 -58 -164q-60 -78 -149 -96q67 -26 106 -115q34 -74 64 -180q26 -91 74 -133h-205l-74 231q-26 86 -59 109q-28 22 -109 22h-209v-362h-170zM563 846h-256v-338h256q93 0 142 47t49 133q0 71 -50.5 114.5t-140.5 43.5zM420 -109h188
q17 -107 17 -184q0 -164 -197 -272l-20 35l-21 38q133 71 133 183h-100v200z" />
    <glyph glyph-name="Rsmall.alt" horiz-adv-x="1034" 
d="M137 0v991h418q201 0 301 -76.5t100 -238.5q0 -107 -56 -184t-159 -107l256 -385h-213l-231 362h-244v-362h-172zM588 846h-279v-338h223q135 0 193.5 38t58.5 126q0 78 -51 126t-145 48z" />
    <glyph glyph-name="Rsmall.altacute" horiz-adv-x="1034" 
d="M137 0v991h418q201 0 301 -76.5t100 -238.5q0 -107 -56 -184t-159 -107l256 -385h-213l-231 362h-244v-362h-172zM588 846h-279v-338h223q135 0 193.5 38t58.5 126q0 78 -51 126t-145 48zM760 1440l-262 -307h-90l159 307h193z" />
    <glyph glyph-name="Rsmall.altcaron" horiz-adv-x="1034" 
d="M137 0v991h418q201 0 301 -76.5t100 -238.5q0 -107 -56 -184t-159 -107l256 -385h-213l-231 362h-244v-362h-172zM588 846h-279v-338h223q135 0 193.5 38t58.5 126q0 78 -51 126t-145 48zM475 1133l-190 307h90l180 -197l180 197h90l-190 -307h-160z" />
    <glyph glyph-name="Rsmall.altcommaaccent" horiz-adv-x="1034" 
d="M137 0v991h418q201 0 301 -76.5t100 -238.5q0 -107 -56 -184t-159 -107l256 -385h-213l-231 362h-244v-362h-172zM588 846h-279v-338h223q135 0 193.5 38t58.5 126q0 78 -51 126t-145 48zM422 -109h188q17 -107 17 -184q0 -164 -197 -272q0 2 -20 35l-21 38
q133 71 133 183h-100v200z" />
    <glyph glyph-name="Sacutesmall" horiz-adv-x="1001" 
d="M727 1440l-262 -307h-90l160 307h192zM932 274q0 -143 -131 -225q-133 -80 -299 -80q-174 0 -299 78q-122 81 -137 266l167 15q21 -224 269 -224q91 0 168 41q80 41 80 125q0 44 -36 74.5t-93.5 47.5t-127 31.5t-139 35.5t-127 51.5t-93.5 86t-36 132.5q0 137 119 213
q122 78 277 78q57 0 108.5 -8.5t105 -31t94 -57t68.5 -92t35 -131.5l-170 -14q-21 199 -241 199q-112 0 -177 -40t-65 -102q0 -119 240 -168q184 -35 261 -67q179 -74 179 -234z" />
    <glyph glyph-name="Tcaronsmall" horiz-adv-x="964" 
d="M401 1133l-190 307h90l180 -197l181 197h90l-191 -307h-160zM567 846v-846h-170v846h-366v145h903v-145h-367z" />
    <glyph glyph-name="Uhungarumlautsmall" horiz-adv-x="1132" 
d="M874 991h146v-665q0 -160 -131 -258q-132 -97 -324 -97q-201 0 -327 99q-125 101 -125 256v665h168v-651q0 -108 78.5 -166.5t218.5 -58.5q142 0 219 58.5t77 166.5v651zM635 1440l-260 -307h-92l159 307h193zM952 1440l-260 -307h-92l160 307h192z" />
    <glyph glyph-name="Umacronsmall" horiz-adv-x="1132" 
d="M874 991h146v-665q0 -160 -131 -258q-132 -97 -324 -97q-201 0 -327 99q-125 101 -125 256v665h168v-651q0 -108 78.5 -166.5t218.5 -58.5q142 0 219 58.5t77 166.5v651zM842 1327v-135h-555v135h555z" />
    <glyph glyph-name="Uogoneksmall" horiz-adv-x="1132" 
d="M874 991h146v-637q0 -261 -264 -356q-89 -31 -145 -85.5t-56 -100.5q0 -64 78 -64q48 0 104 33l25 -55q-84 -66 -189 -66q-67 0 -105 39t-38 102q0 95 111 172q-198 6 -313 105.5t-115 275.5v637h168v-651q0 -108 78.5 -166.5t218.5 -58.5q142 0 219 58.5t77 166.5v651z
" />
    <glyph glyph-name="Uringsmall" horiz-adv-x="1132" 
d="M565 1362q-33 0 -57.5 -23.5t-24.5 -58.5t24.5 -60.5t57.5 -25.5t57.5 25.5t24.5 60.5t-23.5 58.5t-58.5 23.5zM565 1126q-66 0 -108.5 44t-42.5 110t42.5 109t108.5 43t108 -43t42 -109t-43.5 -110t-106.5 -44zM874 991h146v-665q0 -160 -131 -258q-132 -97 -324 -97
q-201 0 -327 99q-125 101 -125 256v665h168v-651q0 -108 78.5 -166.5t218.5 -58.5q142 0 219 58.5t77 166.5v651z" />
    <glyph glyph-name="Zacutesmall" horiz-adv-x="962" 
d="M721 1440l-262 -307h-90l159 307h193zM670 846h-592v145h823v-100l-616 -748h620v-143h-850v98z" />
    <glyph glyph-name="Zdotaccentsmall" horiz-adv-x="962" 
d="M670 846h-592v145h823v-100l-616 -748h620v-143h-850v98zM557 1372v-225h-154v225h154z" />
    <glyph glyph-name="afii10017small" horiz-adv-x="1110" 
d="M1079 0h-170l-98 217h-530l-101 -217h-149l446 991h156zM745 360l-198 443l-201 -443h399z" />
    <glyph glyph-name="afii10018small" horiz-adv-x="1019" 
d="M563 475h-256v-332h256q101 0 159 45.5t58 118.5q0 78 -55 123t-162 45zM307 846v-228h258q174 0 279.5 -84.5t105.5 -226.5q0 -140 -106.5 -223.5t-278.5 -83.5h-428v991h715v-145h-545z" />
    <glyph glyph-name="afii10019small" horiz-adv-x="1026" 
d="M547 846h-242v-264h242q114 -6 161.5 63.5t0 138.5t-161.5 62zM137 0v991h400q188 0 274 -59t86 -184q0 -91 -58 -151.5t-149 -78.5q126 -13 194 -79.5t68 -170.5q0 -123 -105.5 -195.5t-275.5 -72.5h-434zM782 287q0 77 -61.5 114t-208.5 37h-207v-295h266
q211 0 211 144z" />
    <glyph glyph-name="afii10020small" horiz-adv-x="894" 
d="M866 846h-559v-846h-170v991h729v-145z" />
    <glyph glyph-name="afii10021small" horiz-adv-x="1179" 
d="M326 127h503v719h-372q0 -273 -29 -449q-26 -159 -102 -270zM303 991h696v-864h148v-412h-156v285h-807v-285h-157v412h123q83 105 118 272q35 169 35 447v145z" />
    <glyph glyph-name="afii10022small" horiz-adv-x="976" 
d="M307 143h594v-143h-764v991h740v-145h-570v-264h447v-144h-447v-295z" />
    <glyph glyph-name="afii10023small" horiz-adv-x="976" 
d="M307 143h594v-143h-764v991h740v-145h-570v-264h447v-144h-447v-295zM780 1356v-209h-153v209h153zM412 1356v-209h-154v209h154z" />
    <glyph glyph-name="afii10024.ss01" horiz-adv-x="2000" 
d="M254 1479l440 -643h221v643h170v-643h222l440 643h203l-492 -721l498 -758h-201l-450 686h-220v-686h-170v686h-219l-450 -686h-201l498 758l-492 721h203z" />
    <glyph glyph-name="afii10024small" horiz-adv-x="1562" 
d="M866 438v-438h-170v438h-104q-84 0 -148 -37q-21 -12 -36 -47q-6 -11 -10 -20.5t-7 -16t-6.5 -19.5t-4.5 -18t-6 -25.5t-7 -29.5q-33 -140 -77.5 -195t-133.5 -55q-75 0 -131 33l22 107q27 -15 57 -15q41 0 68 51.5t41 129.5q13 79 58 147.5t114 91.5q-61 22 -99 83
t-46 130q-8 68 -33.5 114t-65.5 46q-30 0 -57 -12l-21 106q59 33 138 33q74 0 117.5 -42.5t56.5 -113.5q3 -13 9 -41.5t10 -44t11.5 -42t15 -41.5t19 -35.5t25.5 -32t32.5 -23.5t42.5 -17t52 -5h104v409h170v-409h105q77 0 124 42.5t62 110.5q4 17 11 48.5t11 50.5
t12.5 46.5t17.5 45t23.5 37.5t32 31t42.5 18.5t55 7.5q78 0 137 -33l-20 -106q-27 12 -58 12q-39 0 -63.5 -45.5t-32.5 -114.5q-8 -68 -46.5 -129t-100.5 -84q69 -23 114 -91.5t58 -147.5q14 -79 40.5 -130t67.5 -51q31 0 58 15l22 -107q-56 -33 -131 -33q-90 0 -134 54.5
t-77 195.5q-2 9 -7 29.5t-6 25.5t-4.5 18t-6.5 19.5t-7 16t-10 20.5q-22 45 -61 61.5t-123 22.5h-105z" />
    <glyph glyph-name="afii10024small.ss01" horiz-adv-x="1593" 
d="M555 582h158v409h168v-409h157l289 409h219l-356 -483l358 -508h-215l-297 438h-155v-438h-168v438h-156l-297 -438h-215l358 508l-356 483h219z" />
    <glyph glyph-name="afii10025small" horiz-adv-x="1003" 
d="M508 115q109 0 180.5 50.5t71.5 123.5q0 147 -209 147h-174v144h158q81 0 128.5 46t47.5 111q0 62 -56 99.5t-149 37.5q-228 0 -252 -204l-170 14q10 78 41.5 138.5t73.5 97t96.5 60t105.5 32t105 8.5q177 0 276 -76t99 -205q0 -88 -52.5 -145.5t-150.5 -77.5
q118 -12 185 -78.5t67 -169.5q0 -133 -119 -215q-116 -82 -303 -82q-164 0 -289 84q-122 85 -149 267l170 16q34 -223 268 -223z" />
    <glyph glyph-name="afii10026small" horiz-adv-x="1196" 
d="M1059 991v-991h-168v791l-551 -791h-203v991h170v-786l549 786h203z" />
    <glyph glyph-name="afii10027small" horiz-adv-x="1196" 
d="M1059 991v-991h-168v791l-551 -791h-203v991h170v-786l549 786h203zM596 1163q161 0 164 150l139 -13q0 -117 -77.5 -177t-225.5 -60q-144 0 -221.5 60t-77.5 177l139 13q3 -150 160 -150z" />
    <glyph glyph-name="afii10028.ss01" horiz-adv-x="1259" 
d="M307 1479v-643h258l439 643h204l-491 -721l495 -758h-198l-453 686h-254v-686h-170v1479h170z" />
    <glyph glyph-name="afii10028small" horiz-adv-x="1075" 
d="M307 438v-438h-170v991h170v-409h162q77 0 124 42.5t62 110.5q5 18 13 55t13.5 58t16 52t23.5 49t32 36t46 26.5t61 8.5q78 0 137 -33l-22 -106q-24 12 -55 12q-40 0 -65.5 -46t-33.5 -114q-8 -67 -47 -128.5t-98 -84.5q68 -23 112.5 -91.5t57.5 -147.5
q13 -78 40.5 -129.5t67.5 -51.5q30 0 60 15l20 -107q-53 -33 -131 -33q-86 0 -131 52.5t-76 183.5q-13 60 -19 80t-22 55q-22 50 -59.5 67t-126.5 25h-162z" />
    <glyph glyph-name="afii10028small.ss01" horiz-adv-x="1075" 
d="M137 991h170v-409h178l324 409h219l-391 -483l393 -508h-215l-334 438h-174v-438h-170v991z" />
    <glyph glyph-name="afii10029small" horiz-adv-x="1126" 
d="M25 6l28 131q35 -24 74 -24q55 0 82 47q63 102 63 676v155h715v-991h-168v846h-387q0 -510 -57 -690q-56 -183 -223 -183q-80 0 -127 33z" />
    <glyph glyph-name="afii10030small" horiz-adv-x="1400" 
d="M137 991h287l276 -762l277 762h285v-991h-168v840h-13l-311 -840h-154l-299 840h-12v-840h-168v991z" />
    <glyph glyph-name="afii10031small" horiz-adv-x="1169" 
d="M1032 991v-991h-170v438h-555v-438h-170v991h170v-409h555v409h170z" />
    <glyph glyph-name="afii10032small" horiz-adv-x="1179" 
d="M1092 496q0 -226 -136 -377q-133 -148 -368 -148q-236 0 -369 148q-133 151 -133 377q0 223 133 374q132 150 369 150q236 0 368 -150q136 -151 136 -374zM588 874q-153 0 -242.5 -104t-89.5 -274t89.5 -275.5t242.5 -105.5q156 0 245 105.5t89 275.5t-89 274t-245 104z
" />
    <glyph glyph-name="afii10033small" horiz-adv-x="1169" 
d="M1032 991v-991h-170v846h-555v-846h-170v991h895z" />
    <glyph glyph-name="afii10034small" horiz-adv-x="1007" 
d="M307 846v-342h277q84 0 135 48.5t51 123.5q0 74 -51 122t-135 48h-277zM137 0v991h438q175 0 270 -83.5t95 -231.5t-97.5 -233t-267.5 -85h-268v-358h-170z" />
    <glyph glyph-name="afii10035small" horiz-adv-x="1116" 
d="M874 358l168 -14q-24 -175 -153 -274t-289 -99q-226 0 -371 148q-143 146 -143 375q0 227 143 376q144 150 373 150q152 0 277 -94q125 -91 149 -283l-170 -14q-17 119 -88 182t-168 63q-159 0 -249.5 -102.5t-90.5 -277.5q0 -174 90.5 -276.5t247.5 -102.5
q101 0 178.5 65.5t95.5 177.5z" />
    <glyph glyph-name="afii10036small" horiz-adv-x="964" 
d="M567 846v-846h-170v846h-366v145h903v-145h-367z" />
    <glyph glyph-name="afii10037small" horiz-adv-x="1007" 
d="M817 991h160l-305 -735q-66 -160 -127 -221q-66 -66 -172 -66q-230 0 -230 174q0 56 35 103h141q-26 -51 -26 -90q0 -30 20.5 -49t57.5 -19q39 0 63.5 23t57.5 84l-447 796h188l338 -637z" />
    <glyph glyph-name="afii10038small" horiz-adv-x="1366" 
d="M248 530q0 -254 348 -254v502q-173 0 -260.5 -58.5t-87.5 -189.5zM768 145v-145h-172v145q-264 0 -389 90.5t-125 294.5q0 195 127.5 287t386.5 92v127h172v-127q259 0 387.5 -92.5t128.5 -286.5q0 -204 -126 -294.5t-390 -90.5zM768 778v-502q173 0 261.5 60.5
t88.5 193.5q0 132 -88 190t-262 58z" />
    <glyph glyph-name="afii10039small" horiz-adv-x="1132" 
d="M78 991h217l278 -356l289 356h191l-385 -469l415 -522h-217l-309 391l-319 -391h-191l416 506z" />
    <glyph glyph-name="afii10040small" horiz-adv-x="1212" 
d="M862 143v848h170v-848h146v-428h-156v285h-885v991h170v-848h555z" />
    <glyph glyph-name="afii10041small" horiz-adv-x="1038" 
d="M76 662v329h170v-329q0 -106 50.5 -141.5t178.5 -35.5q69 0 256 54v452h170v-991h-170v391q-165 -57 -330 -57q-325 0 -325 328z" />
    <glyph glyph-name="afii10042small" horiz-adv-x="1646" 
d="M1339 143v848h168v-991h-1370v991h170v-848h430v848h170v-848h432z" />
    <glyph glyph-name="afii10043small" horiz-adv-x="1914" 
d="M1339 143v848h168v-848h148v-428h-156v285h-1362v991h170v-848h430v848h170v-848h432z" />
    <glyph glyph-name="afii10044small" horiz-adv-x="1208" 
d="M512 991v-366h279q171 0 264.5 -83.5t93.5 -230.5q0 -148 -93 -229.5t-265 -81.5h-449v846h-311v145h481zM795 479h-283v-336h250q105 0 161 44.5t56 123.5q0 77 -50.5 122.5t-133.5 45.5z" />
    <glyph glyph-name="afii10045small" horiz-adv-x="1376" 
d="M1237 991v-991h-170v991h170zM590 479h-283v-336h285q82 0 132 49t50 119q0 77 -50.5 122.5t-133.5 45.5zM307 991v-366h279q171 0 264.5 -83.5t93.5 -230.5q0 -148 -93 -229.5t-265 -81.5h-449v991h170z" />
    <glyph glyph-name="afii10046small" horiz-adv-x="1003" 
d="M590 479h-283v-336h285q82 0 132 49t50 119q0 77 -50.5 122.5t-133.5 45.5zM307 991v-366h279q171 0 264.5 -83.5t93.5 -230.5q0 -148 -93 -229.5t-265 -81.5h-449v991h170z" />
    <glyph glyph-name="afii10047small" horiz-adv-x="1110" 
d="M842 434h-443v146h439q-21 140 -99.5 217t-210.5 77q-104 0 -183 -63.5t-95 -181.5l-170 14q10 79 43 144t78.5 107.5t102.5 71.5t112.5 41.5t109.5 12.5q226 0 361 -150q135 -147 135 -376q0 -230 -135 -377q-134 -146 -359 -146q-161 0 -299 99q-136 101 -163 274
l170 14q15 -115 104 -180q86 -63 188 -63q139 0 219.5 84t94.5 235z" />
    <glyph glyph-name="afii10048small" horiz-adv-x="1589" 
d="M1501 496q0 -227 -135 -377q-133 -148 -369 -148q-216 0 -348 129q-131 131 -149 334h-193v-434h-170v991h170v-411h195q27 195 155 317q129 123 340 123q237 0 369 -150q135 -150 135 -374zM997 874q-153 0 -242 -104t-89 -274t89 -275.5t242 -105.5q156 0 245 105.5
t89 275.5t-89 274t-245 104z" />
    <glyph glyph-name="afii10049.alt" horiz-adv-x="1312" 
d="M1006 0v600h-324l-426 -600h-201l432 623q-158 38 -240.5 146t-82.5 273q0 211 131 324t383 113h498v-1479h-170zM657 750h349v579h-328q-169 0 -256.5 -75.5t-87.5 -211.5q0 -134 83.5 -213t239.5 -79z" />
    <glyph glyph-name="afii10049small" horiz-adv-x="1095" 
d="M41 4l31 113q27 -15 78 -15q30 0 51.5 31t44.5 111q20 75 45.5 111.5t79.5 56.5q-232 47 -232 274q0 305 434 305h383v-991h-172v362h-215q-69 0 -102.5 -35.5t-65.5 -144.5q-38 -121 -87.5 -166t-155.5 -45q-73 0 -117 33zM784 508v338h-252q-223 0 -223 -166
q0 -78 50.5 -125t144.5 -47h280z" />
    <glyph glyph-name="afii10049small.alt" horiz-adv-x="1095" 
d="M496 991h460v-991h-172v362h-254l-245 -362h-213l272 385q-215 59 -215 291q0 149 93.5 232t273.5 83zM784 508v338h-286q-95 0 -147 -48t-52 -126q0 -164 199 -164h286z" />
    <glyph glyph-name="afii10050small" horiz-adv-x="894" 
d="M137 991h590v244h139v-389h-559v-846h-170v991z" />
    <glyph glyph-name="afii10051small" horiz-adv-x="1255" 
d="M868 655q153 0 232.5 -97t79.5 -253q0 -150 -87.5 -237.5t-226.5 -87.5q-102 0 -154.5 45t-52.5 125q0 34 17 94h131q-16 -37 -16 -64q0 -37 25 -57.5t63 -20.5q55 0 94 60.5t39 142.5q0 199 -219 199q-84 0 -226 -53v-451h-170v846h-366v145h903v-145h-367v-248
q155 57 301 57z" />
    <glyph glyph-name="afii10052small" horiz-adv-x="894" 
d="M754 1440l-262 -307h-91l160 307h193zM866 846h-559v-846h-170v991h729v-145z" />
    <glyph glyph-name="afii10053small" horiz-adv-x="1116" 
d="M874 358l168 -14q-23 -172 -159 -274q-135 -99 -297 -99q-223 0 -363 146q-137 146 -137 377q0 229 135 376q138 150 365 150q69 0 138.5 -21t134 -64t110.5 -118.5t59 -173.5l-170 -14q-16 119 -92.5 182t-179.5 63q-132 0 -212 -77t-104 -217h441v-146h-445
q18 -152 99 -235.5t221 -83.5q100 0 184 63q89 65 104 180z" />
    <glyph glyph-name="afii10054small" horiz-adv-x="1001" 
d="M932 274q0 -143 -131 -225q-133 -80 -299 -80q-174 0 -299 78q-122 81 -137 266l167 15q21 -224 269 -224q91 0 168 41q80 41 80 125q0 44 -36 74.5t-93.5 47.5t-127 31.5t-139 35.5t-127 51.5t-93.5 86t-36 132.5q0 137 119 213q122 78 277 78q57 0 108.5 -8.5t105 -31
t94 -57t68.5 -92t35 -131.5l-170 -14q-21 199 -241 199q-103 0 -172.5 -42t-69.5 -100q0 -119 240 -168q184 -35 261 -67q179 -74 179 -234z" />
    <glyph glyph-name="afii10055small" horiz-adv-x="444" 
d="M307 991v-991h-170v991h170z" />
    <glyph glyph-name="afii10056small" horiz-adv-x="444" 
d="M307 991v-991h-170v991h170z" />
    <glyph glyph-name="afii10057small" horiz-adv-x="815" 
d="M532 991h170v-626q0 -204 -91 -294.5t-273 -90.5q-172 0 -244 96q-71 95 -71 241h170q0 -92 41.5 -143t115.5 -51q182 0 182 205v663z" />
    <glyph glyph-name="afii10058small" horiz-adv-x="1675" 
d="M987 991v-366h279q171 0 264.5 -83t93.5 -231t-93 -229.5t-265 -81.5h-447v846h-387q0 -510 -57 -690q-56 -183 -223 -183q-80 0 -127 33l28 131q35 -24 74 -24q55 0 82 47q63 102 63 676v155h715zM1270 479h-283v-336h252q105 0 161 44.5t56 123.5q0 78 -50.5 123
t-135.5 45z" />
    <glyph glyph-name="afii10059small" horiz-adv-x="1769" 
d="M1032 991v-366h277q171 0 265.5 -83.5t94.5 -230.5t-94 -229t-266 -82h-447v481h-555v-481h-170v991h170v-366h555v366h170zM1313 479h-281v-336h285q82 0 132 49t50 119q0 78 -50.5 123t-135.5 45z" />
    <glyph glyph-name="afii10060small" horiz-adv-x="1251" 
d="M1178 328v-328h-170v328q0 107 -46 141.5t-169 34.5q-105 0 -226 -53v-451h-170v846h-366v145h903v-145h-367v-248q155 57 301 57q166 0 238 -80.5t72 -246.5z" />
    <glyph glyph-name="afii10061.ss01" horiz-adv-x="1259" 
d="M852 1980l-262 -307h-90l159 307h193zM307 1479v-643h258l439 643h204l-491 -721l495 -758h-198l-453 686h-254v-686h-170v1479h170z" />
    <glyph glyph-name="afii10061small" horiz-adv-x="1075" 
d="M791 1440l-263 -307h-90l160 307h193zM307 438v-438h-170v991h170v-409h162q77 0 124 42.5t62 110.5q5 18 13 55t13.5 58t16 52t23.5 49t32 36t46 26.5t61 8.5q78 0 137 -33l-22 -106q-24 12 -55 12q-40 0 -65.5 -46t-33.5 -114q-8 -67 -47 -128.5t-98 -84.5
q68 -23 112.5 -91.5t57.5 -147.5q13 -78 40.5 -129.5t67.5 -51.5q30 0 60 15l20 -107q-53 -33 -131 -33q-86 0 -131 52.5t-76 183.5q-13 60 -19 80t-22 55q-22 50 -59.5 67t-126.5 25h-162z" />
    <glyph glyph-name="afii10061small.ss01" horiz-adv-x="1040" 
d="M791 1440l-263 -307h-90l160 307h193zM133 965h164v-402h190l293 402h209l-356 -469l362 -496h-204l-304 424h-190v-424h-164v965z" />
    <glyph glyph-name="afii10062small" horiz-adv-x="1007" 
d="M817 991h160l-305 -735q-66 -160 -127 -221q-66 -66 -172 -66q-230 0 -230 174q0 56 35 103h141q-26 -51 -26 -90q0 -30 20.5 -49t57.5 -19q39 0 63.5 23t57.5 84l-447 796h188l338 -637zM561 1163q161 0 164 150l139 -13q0 -117 -77.5 -177t-225.5 -60q-144 0 -221.5 60
t-77.5 177l139 13q3 -150 160 -150z" />
    <glyph glyph-name="afii10072.ss01" horiz-adv-x="1495" 
d="M512 543h158v395h153v-395h160l272 395h191l-330 -449l348 -489h-190l-287 416h-164v-416h-153v416h-162l-287 -416h-190l348 489l-330 449h191z" />
    <glyph glyph-name="afii10076.ss01" horiz-adv-x="976" 
d="M123 938h153v-395h181l272 395h191l-330 -449l348 -489h-190l-287 416h-185v-416h-153v938z" />
    <glyph glyph-name="afii10097.alt" horiz-adv-x="1015" 
d="M737 0v385h-176l-262 -385h-190l278 391q-120 17 -185 86t-65 185q0 137 87.5 206.5t248.5 69.5h420v-938h-156zM479 498h258v319h-243q-199 0 -199 -160q0 -75 48 -117t136 -42z" />
    <glyph glyph-name="afii10109.ss01" horiz-adv-x="1011" 
d="M739 1440l-262 -307h-90l160 307h192zM127 965h160v-404h166l305 404h203l-367 -463l377 -502h-199l-317 428h-168v-428h-160v965z" />
    <glyph glyph-name="afii10145small" horiz-adv-x="1169" 
d="M862 143v848h170v-991h-368v-285h-158v285h-369v991h170v-848h555z" />
    <glyph glyph-name="afii61352.small" horiz-adv-x="1769" 
d="M1632 334v-88h-440v88h440zM1249 479q-57 69 -57 178q0 108 57 177q59 71 164 71q106 0 162 -71q57 -69 57 -177q0 -109 -57 -178q-54 -69 -162 -69q-107 0 -164 69zM1305 657q0 -153 108 -153q107 0 107 153q0 152 -107 152q-108 0 -108 -152zM842 281h8v426
q0 73 4 109.5t20 84.5q37 107 175 107q88 0 153 -33l-35 -121q-38 14 -82 14t-68 -39.5t-24 -91.5v-737h-159l-545 778h-8v-778h-144v991h209z" />
    <glyph glyph-name="ampersand.small" horiz-adv-x="1177" 
d="M1100 145l43 -77q-50 -55 -91.5 -76t-103.5 -21q-110 0 -198 88q-137 -88 -293 -88q-165 0 -264 72.5t-99 204.5q0 92 61 155t187 121q-90 125 -90 242q0 111 87 183.5t222 72.5q127 0 206 -69t79 -171q0 -98 -66 -161t-202 -119l206 -242q70 76 117 213l133 -10
q-57 -179 -160 -297q66 -63 119 -65.5t107 44.5zM457 115q118 0 198 45l-233 276q-83 -41 -120.5 -79.5t-37.5 -92.5q0 -67 54 -108t139 -41zM420 766q0 -75 74 -170q97 44 140.5 84.5t43.5 97.5q0 43 -31 71t-86 28q-63 0 -102 -30.5t-39 -80.5z" />
    <glyph glyph-name="dollar.small" horiz-adv-x="1028" 
d="M936 274q0 -132 -111 -208q-110 -78 -262 -93v-161h-125v161q-347 35 -368 340l168 15q18 -187 200 -217v325q-168 38 -252 104.5t-84 188.5q0 123 99 197q102 73 237 88v141h125v-139q325 -35 346 -316l-170 -14q-18 161 -176 191v-312q15 -4 47 -12l44 -11t34 -9.5
t40 -13.5t40 -17q81 -33 121.5 -86.5t46.5 -141.5zM754 270q0 54 -43.5 82.5t-147.5 55.5v-299q90 11 140.5 52t50.5 109zM256 743q0 -59 44 -92.5t138 -58.5v289q-86 -11 -134 -46.5t-48 -91.5z" />
    <glyph glyph-name="eight.onum" horiz-adv-x="1191" 
d="M944 406q0 127 -90.5 205.5t-247.5 78.5t-246.5 -78.5t-89.5 -205.5q0 -132 87.5 -209.5t248.5 -77.5t249.5 78.5t88.5 208.5zM100 393q0 137 87 239.5t223 135.5q-263 89 -263 356q0 168 136 277q133 106 323 106q194 0 326 -106q135 -108 135 -277q0 -267 -262 -356
q136 -33 222.5 -135.5t86.5 -239.5q0 -179 -131 -301q-130 -121 -377 -121t-377 121q-129 123 -129 301zM317 1102q0 -117 81 -189.5t210 -72.5t210 72.5t81 189.5q0 115 -80.5 185.5t-210.5 70.5t-210.5 -70.5t-80.5 -185.5z" />
    <glyph glyph-name="eight.small" horiz-adv-x="1013" 
d="M756 279q0 78 -66.5 120.5t-183.5 42.5t-183.5 -42.5t-66.5 -120.5q0 -164 250 -164t250 164zM86 252q0 98 65 168.5t175 93.5q-209 59 -209 238q0 119 108 193.5t281 74.5t281 -74.5t108 -193.5q0 -179 -209 -238q110 -23 175 -93.5t65 -168.5q0 -127 -106.5 -204
t-313.5 -77t-313.5 77t-106.5 204zM508 874q-221 0 -221 -139q0 -73 62 -113t159 -40t159 40t62 113q0 71 -59.5 105t-161.5 34z" />
    <glyph glyph-name="five.onum" horiz-adv-x="1216" 
d="M606 -264q159 0 248.5 87t89.5 236q0 136 -92 214.5t-252 78.5q-190 0 -321 -137l-99 86l105 637h753v-152h-632l-62 -356q116 72 262 72q235 0 371.5 -117t136.5 -326q0 -199 -145 -335q-144 -138 -363 -138q-126 0 -239 43q-116 43 -191.5 142t-75.5 229l170 20
q7 -130 102 -207t234 -77z" />
    <glyph glyph-name="five.small" horiz-adv-x="1009" 
d="M520 115q113 0 174.5 59.5t61.5 171.5q0 84 -64.5 138.5t-159.5 54.5q-105 0 -161.5 -22.5t-98.5 -84.5l-125 51l95 508h667v-145h-540l-41 -221q92 59 219 59q149 0 264 -92q115 -89 115 -246q0 -188 -121 -283q-121 -92 -285 -92q-68 0 -127.5 9t-117.5 31.5t-99 57.5
t-66.5 92t-25.5 130l170 20q12 -196 266 -196z" />
    <glyph glyph-name="four.onum" 
d="M733 150v301l170 49v-350h242v-150h-242v-272l-102 -113h-68v385h-667v150q215 173 329 346q119 184 176 471h170q-44 -216 -123 -373q-80 -163 -159 -248q-74 -82 -213 -196h487z" />
    <glyph glyph-name="four.small" horiz-adv-x="1017" 
d="M614 373v289l170 47v-336h197v-144h-197v-229h-170v229h-555v144q190 155 265 276t137 371h170q-63 -258 -156 -406q-86 -138 -252 -241h391z" />
    <glyph glyph-name="nine.onum" 
d="M590 -170q187 0 270 133q84 134 84 338q-166 -117 -405 -117q-212 0 -326 123q-113 125 -113 316q0 202 144 340q145 139 344 139q297 0 413 -187q113 -171 113 -471q0 -364 -121 -565q-119 -198 -403 -198q-428 0 -463 391q133 14 170 16q27 -258 293 -258zM588 950
q-143 0 -230.5 -90t-87.5 -237q0 -293 312 -293q105 0 203 34.5t159 94.5q2 18 2 69q0 422 -358 422z" />
    <glyph glyph-name="nine.small" horiz-adv-x="1034" 
d="M496 111q168 0 217 98q43 86 43 219q-139 -80 -303 -80q-171 0 -262 86.5t-91 227.5q0 157 113 258q114 102 283 102q238 0 333 -127t95 -356q0 -572 -428 -572q-338 0 -373 285l168 12q12 -80 60.5 -116.5t144.5 -36.5zM496 877q-226 0 -226 -197q0 -193 219 -193
q171 0 267 84q0 306 -260 306z" />
    <glyph glyph-name="numbersign.small" horiz-adv-x="1232" 
d="M96 293v110h238l67 177h-280v112h321l115 299h129l-115 -299h226l114 299h127l-114 -299h196v-112h-235l-68 -177h277v-110h-316l-106 -293h-133l106 293h-221l-107 -293h-131l107 293h-197zM754 580h-226l-65 -177h227z" />
    <glyph glyph-name="one.onum" horiz-adv-x="1116" 
d="M596 967h104v-820h334v-147h-852v147h348v539h-303v111q151 0 228 18q80 22 100 51q24 34 41 101z" />
    <glyph glyph-name="one.small" horiz-adv-x="1064" 
d="M541 1010h104v-863h299v-147h-784v147h317v594h-291v111q116 0 179.5 8.5t97.5 30.5q35 22 49.5 45t28.5 74z" />
    <glyph glyph-name="seven.onum" 
d="M1116 938v-109q-248 -349 -352 -608q-102 -255 -129 -606h-189q21 332 134 578q118 262 360 595h-817v150h993z" />
    <glyph glyph-name="seven.small" horiz-adv-x="1028" 
d="M952 991v-106q-224 -284 -290 -451q-65 -165 -80 -434h-189q21 263 101 440q82 174 282 406h-635v145h811z" />
    <glyph glyph-name="six.onum" 
d="M625 1358q-96 0 -169 -46.5t-112 -127.5q-74 -151 -74 -350q168 116 406 116q210 0 323 -137q115 -139 115 -332q0 -222 -141 -366t-346 -144q-291 0 -410 174q-117 175 -117 529q0 833 525 833q231 0 338 -116q109 -115 124 -293l-169 -17q-13 135 -90.5 206t-202.5 71z
M627 121q146 0 231.5 96.5t85.5 263.5q0 151 -81.5 236.5t-229.5 85.5q-107 0 -204.5 -34t-158.5 -93q-2 -20 -2 -84q0 -471 359 -471z" />
    <glyph glyph-name="six.small" horiz-adv-x="1034" 
d="M528 877q-258 0 -258 -318q139 80 301 80q172 0 262.5 -86t90.5 -227q0 -157 -113 -258q-110 -101 -281 -101q-242 0 -337 117q-93 122 -93 365q0 573 428 573q338 0 373 -287l-168 -12q-21 154 -205 154zM530 111q101 0 163.5 52.5t62.5 143.5q0 193 -221 193
q-89 0 -162.5 -28.5t-106.5 -72.5q0 -153 64 -220.5t200 -67.5z" />
    <glyph glyph-name="three.onum" horiz-adv-x="1216" 
d="M131 788v150h924v-113l-426 -368q21 6 45 6q199 0 319 -123q123 -123 123 -297q0 -194 -141 -326q-137 -131 -363 -131q-126 0 -239 43q-118 43 -195.5 142t-77.5 229l170 20q7 -132 101.5 -208t240.5 -76q152 0 243 85t91 222q0 135 -90 205.5t-233 70.5q-91 0 -181 -43
l-90 99l467 413h-688z" />
    <glyph glyph-name="three.small" horiz-adv-x="1009" 
d="M113 846v145h753v-110l-291 -263q166 -12 258.5 -91t92.5 -214q0 -165 -121 -254q-119 -88 -281 -88q-67 0 -127 9t-118.5 31.5t-100.5 57.5t-68 91.5t-26 128.5l170 20q6 -108 72 -151t198 -43q115 0 173.5 56t58.5 142q0 76 -59.5 123t-161.5 47q-94 0 -156 -39
l-78 103l320 299h-508z" />
    <glyph glyph-name="two.onum" 
d="M299 553q-103 14 -168 27q13 188 137.5 287.5t339.5 99.5q212 0 325.5 -81.5t113.5 -236.5q0 -55 -21 -108q-22 -56 -48.5 -93t-78.5 -77l-92 -66q-35 -21 -115 -59l-110 -49l-121 -47h631v-150h-951v111q421 181 572 292q157 115 157 232q0 188 -262 188
q-148 0 -219.5 -65.5t-89.5 -204.5z" />
    <glyph glyph-name="two.small" horiz-adv-x="1034" 
d="M262 610l-168 27q17 197 117.5 290t302.5 93q192 0 294.5 -80.5t102.5 -232.5q0 -162 -125 -287q-126 -129 -364 -273h520v-147h-838v109q364 201 500 329q139 130 139 267q0 80 -63.5 126t-165.5 46q-121 0 -179.5 -64t-72.5 -203z" />
    <glyph glyph-name="uni20BD.small" horiz-adv-x="1007" 
d="M137 358h-137v93h137v540h379q424 0 424 -315q0 -147 -97 -232.5t-268 -85.5h-268v-104h328v-92h-328v-162h-170v162h-137v92h137v104zM307 846v-395h256q90 0 148.5 53t58.5 143t-58.5 144.5t-148.5 54.5h-256z" />
    <glyph glyph-name="yen.small" horiz-adv-x="1040" 
d="M846 991h164l-348 -549h229v-92h-279v-110h279v-93h-279v-147h-170v147h-276v93h276v110h-276v92h225l-360 549h202l310 -495z" />
    <glyph glyph-name="zero.onum" 
d="M229 111q-129 141 -129 358q0 218 129 356q133 142 379 142t377 -140q129 -138 129 -358t-129 -358q-131 -140 -377 -140q-245 0 -379 140zM270 469q0 -166 88 -265.5t250 -99.5q160 0 249 100.5t89 264.5t-88.5 263t-249.5 99q-162 0 -250 -99t-88 -263z" />
    <glyph glyph-name="zero.small" horiz-adv-x="1026" 
d="M514 -31q-206 0 -317 150t-111 377t111 374q111 150 317 150q205 0 313 -150q111 -147 111 -374t-111 -377q-108 -150 -313 -150zM514 111q124 0 189 102.5t65 280.5q0 177 -65 278.5t-189 101.5q-126 0 -191 -101.5t-65 -278.5q0 -178 65 -280.5t191 -102.5z" />
    </font>
</defs>
</svg>
